<svg width="64" height="64" viewBox="0 0 64 64" fill="none" xmlns="http://www.w3.org/2000/svg">
<circle cx="32" cy="32" r="32" fill="white"/>
<g clip-path="url(#clip0_1358_2386)">
<path d="M40.4441 23.6182L29.6856 22.677C29.4003 22.657 29.1185 22.7499 28.901 22.9357C28.6835 23.1214 28.5476 23.3852 28.5227 23.6702C28.4977 23.9551 28.5857 24.2385 28.7677 24.4592C28.9496 24.6799 29.211 24.8203 29.4955 24.8502L37.6304 25.5619L22.9339 37.8937C22.7123 38.0797 22.5736 38.3461 22.5484 38.6343C22.5232 38.9226 22.6135 39.209 22.7995 39.4306C22.9854 39.6523 23.2518 39.791 23.5401 39.8162C23.8283 39.8414 24.1147 39.7511 24.3364 39.5651L39.0329 27.2333L38.3212 35.3682C38.306 35.5123 38.3198 35.6579 38.3615 35.7966C38.4033 35.9353 38.4722 36.0643 38.5644 36.1761C38.6565 36.2879 38.77 36.3802 38.8982 36.4476C39.0264 36.5151 39.1667 36.5563 39.311 36.5689C39.4553 36.5816 39.6007 36.5653 39.7387 36.5212C39.8766 36.477 40.0044 36.4058 40.1146 36.3117C40.2247 36.2177 40.3151 36.1026 40.3803 35.9732C40.4455 35.8439 40.4843 35.7029 40.4944 35.5583L41.4356 24.7999C41.4608 24.5117 41.3705 24.2253 41.1845 24.0037C40.9986 23.7821 40.7323 23.6435 40.4441 23.6182V23.6182Z" fill="#9762FD"/>
</g>
<defs>
<clipPath id="clip0_1358_2386">
<rect width="24" height="24" fill="white" transform="translate(20 20)"/>
</clipPath>
</defs>
</svg>
