<svg width="40" height="40" viewBox="0 0 40 40" fill="none" xmlns="http://www.w3.org/2000/svg">
<g id="Frame" clip-path="url(#clip0_1358_2130)">
<g id="Group">
<path id="Vector" d="M38.8916 31.1707H33.3836V25.6626C33.3836 25.0516 32.8877 24.5557 32.2766 24.5557C31.6656 24.5557 31.1697 25.0516 31.1697 25.6626V31.1707H25.6616C25.0506 31.1707 24.5547 31.6666 24.5547 32.2776C24.5547 32.8886 25.0506 33.3845 25.6616 33.3845H31.1697V38.8926C31.1697 39.5036 31.6656 39.9995 32.2766 39.9995C32.8877 39.9995 33.3836 39.5036 33.3836 38.8926V33.3845H38.8916C39.5027 33.3845 39.9986 32.8886 39.9986 32.2776C39.9986 31.6666 39.5027 31.1707 38.8916 31.1707Z" fill="#9762FD"/>
<path id="Vector_2" d="M17.1634 20.1638C22.7246 20.1638 27.2409 15.6387 27.2409 10.0863C27.2498 4.52513 22.7246 0 17.1634 0C11.6111 0 7.08594 4.52513 7.08594 10.0775C7.08594 15.6387 11.6111 20.1638 17.1634 20.1638ZM17.1634 2.39097C21.4052 2.39097 24.8499 5.84459 24.8499 10.0775C24.8499 14.3104 21.3963 17.764 17.1634 17.764C12.9217 17.764 9.4769 14.3104 9.4769 10.0775C9.4769 5.84459 12.9305 2.39097 17.1634 2.39097Z" fill="#9762FD"/>
<path id="Vector_3" d="M25.8313 23.7769C25.8313 23.1658 25.3354 22.6699 24.7244 22.6699H14.3281C6.42905 22.6699 0 29.099 0 36.998V38.8842C0 38.9374 0 38.9816 0.00885544 39.0171C0.0354217 39.2296 0.106265 39.4067 0.221386 39.5484C0.442772 39.8318 0.761567 39.9912 1.10693 39.9912H1.11578H1.12464C1.23976 39.9823 2.23157 39.8583 2.23157 38.8577V36.9892C2.21386 30.321 7.6511 24.8838 14.3281 24.8838H24.7155C25.3354 24.8838 25.8313 24.3879 25.8313 23.7769Z" fill="#9762FD"/>
</g>
</g>
<defs>
<clipPath id="clip0_1358_2130">
<rect width="40" height="40" fill="white"/>
</clipPath>
</defs>
</svg>
