<svg width="40" height="40" viewBox="0 0 40 40" fill="none" xmlns="http://www.w3.org/2000/svg">
<g id="Frame" clip-path="url(#clip0_1358_2121)">
<g id="Group">
<path id="Vector" d="M39.994 0.99804C39.9786 0.456454 39.5453 0.0154482 38.996 -2.57308e-05C35.1662 -0.0619213 31.0347 0.866512 27.0424 2.70017C23.0656 4.51835 19.5144 7.10249 16.7677 10.1586C11.4215 10.2824 6.17586 12.5338 2.36929 16.3404C2.09849 16.6112 1.99791 17.0213 2.11397 17.3849C2.23776 17.7563 2.54724 18.0193 2.93408 18.0735L8.93795 18.9323L8.39637 19.5435C8.04047 19.9458 8.05594 20.5648 8.43505 20.9439L19.0424 31.5512C19.2358 31.7447 19.4911 31.8452 19.7619 31.8452C20.0173 31.8452 20.2571 31.7524 20.4351 31.5899L21.0463 31.0406L21.9051 37.0445C21.9515 37.4004 22.23 37.7098 22.6246 37.8414C22.7174 37.8723 22.818 37.8878 22.9186 37.8878C23.2049 37.8878 23.4911 37.764 23.6923 37.5628C27.4679 33.7872 29.6962 28.5648 29.82 23.2108C32.8915 20.4565 35.4834 16.9052 37.3016 12.9361C39.1585 8.94388 40.0869 4.81235 39.994 0.99804ZM27.6459 25.1683C27.1971 28.6189 25.8122 31.8685 23.6304 34.5996L22.8877 29.4158L27.6459 25.1683ZM14.8258 12.3559L10.5782 17.1141L5.39443 16.3713C8.07915 14.2205 11.406 12.8046 14.8258 12.3559ZM11.6304 18.9942C11.7155 18.9245 11.7851 18.8472 11.847 18.7543L17.8819 11.9922L17.9438 11.9226C17.9979 11.8762 18.0366 11.822 18.0753 11.7679C23.0966 6.03479 30.8799 2.22821 37.9592 2.04253C37.7735 9.12957 33.9592 16.9207 28.2184 21.9419C28.1797 21.9729 28.141 22.0038 28.1101 22.0348L28.0637 22.0735C28.0482 22.0889 28.025 22.1044 28.0018 22.1276L21.2474 28.1547C21.1623 28.2089 21.0772 28.2785 21.0153 28.3636L19.8084 29.439L10.5627 20.1857L11.6304 18.9942Z" fill="#9762FD"/>
<path id="Vector_2" d="M28.4734 15.8454C29.6262 15.8454 30.7171 15.3966 31.5295 14.5842C33.2084 12.8976 33.2084 10.1587 31.5295 8.47206C30.7171 7.65968 29.6262 7.21094 28.4734 7.21094C27.3206 7.21094 26.2297 7.65968 25.4173 8.47206C23.7307 10.1587 23.7307 12.8976 25.4173 14.5842C26.2374 15.3966 27.3206 15.8454 28.4734 15.8454ZM28.4734 9.24575C29.0846 9.24575 29.6572 9.4856 30.0904 9.91113C30.9802 10.8009 30.9802 12.2477 30.0904 13.1374C29.2007 14.0272 27.7539 14.0272 26.8641 13.1374C25.9744 12.2477 25.9744 10.8009 26.8641 9.91113C27.2897 9.4856 27.8622 9.24575 28.4734 9.24575Z" fill="#9762FD"/>
<path id="Vector_3" d="M8.30219 26.4141C6.88633 26.4141 5.55558 26.9634 4.55751 27.9615C2.75481 29.7564 0.317669 37.7796 0.0468757 38.6849C-0.0614415 39.0408 0.0391387 39.4353 0.302195 39.6984C0.495618 39.8918 0.750938 39.9924 1.02173 39.9924C1.11457 39.9924 1.21515 39.9769 1.31573 39.9537C2.22869 39.6829 10.2519 37.238 12.0469 35.4431C13.0449 34.445 13.5943 33.1143 13.5943 31.6984C13.5943 30.2825 13.0449 28.9518 12.0469 27.9537C11.0411 26.9634 9.71806 26.4141 8.30219 26.4141ZM10.6001 34.004C9.72579 34.8783 5.77995 36.3715 2.57686 37.4237C3.62134 34.2206 5.12231 30.2748 5.99659 29.4005C6.61554 28.7893 7.42792 28.4489 8.30219 28.4489C9.16873 28.4489 9.98885 28.7893 10.6001 29.4005C11.8689 30.6694 11.8689 32.7351 10.6001 34.004Z" fill="#9762FD"/>
</g>
</g>
<defs>
<clipPath id="clip0_1358_2121">
<rect width="40" height="40" fill="white"/>
</clipPath>
</defs>
</svg>
