<svg width="40" height="40" viewBox="0 0 40 40" fill="none" xmlns="http://www.w3.org/2000/svg">
<g id="Frame" clip-path="url(#clip0_1358_2114)">
<path id="Vector" d="M38.8876 25.4717C38.2758 25.4717 37.7752 25.9723 37.7752 26.5841V31.6455C37.7752 34.3338 35.5875 36.5215 32.8992 36.5215H7.10081C4.41251 36.5215 2.2248 34.3338 2.2248 31.6455V26.5841C2.2248 25.9723 1.72422 25.4717 1.1124 25.4717C0.500579 25.4717 0 25.9723 0 26.5841V31.6455C0 35.5574 3.18888 38.737 7.10081 38.7463H32.9085C36.8204 38.7463 40 35.5574 40.0093 31.6455V26.5841C40 25.9723 39.4994 25.4717 38.8876 25.4717Z" fill="#9762FD"/>
<path id="Vector_2" d="M10.939 11.9749C11.3376 12.3087 11.9309 12.3179 12.3388 11.9935L18.8926 5.4396V28.3643C18.8926 28.9761 19.3932 29.4767 20.005 29.4767C20.6169 29.4767 21.1174 28.9761 21.1174 28.3643V5.46741L27.6806 12.0306C27.8938 12.2438 28.1719 12.355 28.4685 12.355C28.7652 12.355 29.0433 12.2438 29.2565 12.0306C29.6922 11.5949 29.6922 10.8904 29.2565 10.4547L20.793 1.99117C20.6354 1.84285 20.4407 1.73161 20.2275 1.68526C19.8753 1.62037 19.4952 1.74088 19.2264 2.00044L10.7814 10.4269C10.596 10.6493 10.5126 10.9367 10.5404 11.2241C10.5682 11.5207 10.7072 11.7803 10.939 11.9749Z" fill="#9762FD"/>
</g>
<defs>
<clipPath id="clip0_1358_2114">
<rect width="40" height="40" fill="white"/>
</clipPath>
</defs>
</svg>
