<svg width="40" height="40" viewBox="0 0 40 40" fill="none" xmlns="http://www.w3.org/2000/svg">
<g id="chat 1" clip-path="url(#clip0_1358_2100)">
<g id="Group">
<g id="Group_2">
<path id="Vector" d="M20.0897 0C20.079 0.0107172 20.0576 0.0107172 20.0254 0.0107172C9.17963 0.0107172 0.359375 8.83097 0.359375 19.6768C0.359375 24.103 1.8705 28.4006 4.63554 31.8622L1.77404 38.5069C1.53827 39.0535 1.79548 39.6858 2.33134 39.9108C2.52425 39.9966 2.73859 40.018 2.94222 39.9859L13.4344 38.1425C15.5349 38.9034 17.7427 39.2892 19.9718 39.2785C30.8176 39.2785 39.6379 30.4583 39.6379 19.6125C39.6593 8.79882 30.9034 0.0107172 20.0897 0ZM19.9826 37.1458C17.9141 37.1458 15.8672 36.7707 13.9273 36.0419C13.7452 35.9669 13.5522 35.9562 13.3593 35.9883L4.52836 37.5316L6.86471 32.098C7.02547 31.7229 6.96117 31.2835 6.69324 30.9727C5.42861 29.5044 4.42119 27.8326 3.71386 26.0213C2.92078 23.9958 2.51353 21.8416 2.51353 19.6661C2.51353 9.99914 10.38 2.14344 20.0361 2.14344C29.6709 2.122 37.4945 9.9134 37.5052 19.5482C37.5052 19.5696 37.5052 19.591 37.5052 19.6125C37.5052 29.2901 29.6388 37.1458 19.9826 37.1458Z" fill="#9762FD"/>
</g>
</g>
<g id="Group_3">
<g id="Group_4">
<path id="Vector_2" d="M19.1481 15.7217H13.3608C12.7713 15.7217 12.2891 16.204 12.2891 16.7934C12.2891 17.3828 12.7713 17.8651 13.3608 17.8651H19.1481C19.7375 17.8651 20.2198 17.3828 20.2198 16.7934C20.2198 16.204 19.7375 15.7217 19.1481 15.7217Z" fill="#9762FD"/>
</g>
</g>
<g id="Group_5">
<g id="Group_6">
<path id="Vector_3" d="M26.6501 21.0811H13.3608C12.7713 21.0811 12.2891 21.5633 12.2891 22.1528C12.2891 22.7422 12.7713 23.2245 13.3608 23.2245H26.6501C27.2395 23.2245 27.7218 22.7422 27.7218 22.1528C27.7218 21.5633 27.2395 21.0811 26.6501 21.0811Z" fill="#9762FD"/>
</g>
</g>
</g>
<defs>
<clipPath id="clip0_1358_2100">
<rect width="40" height="40" fill="white"/>
</clipPath>
</defs>
</svg>
