<svg width="40" height="40" viewBox="0 0 40 40" fill="none" xmlns="http://www.w3.org/2000/svg">
<g id="Frame" clip-path="url(#clip0_1358_2094)">
<path id="Vector" d="M37.2336 17.9911C36.4714 16.9936 35.4646 16.4291 34.4013 16.4197V14.152C34.3919 6.35145 28.0499 0 20.2399 0C12.4394 0 6.08797 6.35145 6.08797 14.152V16.4197H5.63631C3.45329 16.4197 1.66548 18.3392 1.66548 20.6916V26.836C1.63725 27.9087 2.03245 28.9344 2.7758 29.7154C3.51916 30.4964 4.51657 30.9386 5.58926 30.9668H5.64572H9.28721C9.5695 30.9574 9.84238 30.8257 10.0306 30.6187C10.2282 30.4023 10.3223 30.1294 10.3129 29.8471C10.3129 29.8283 10.3129 29.8095 10.3129 29.7906V17.737C10.3129 17.0877 9.92706 16.4197 9.28721 16.4197H8.34626V14.152C8.34626 7.5841 13.6815 2.24888 20.2493 2.24888C26.8172 2.24888 32.1524 7.5841 32.1524 14.152V16.4197H31.2115C30.5716 16.4197 30.1858 17.0877 30.1858 17.737V29.7718C30.1294 30.3552 30.5528 30.8821 31.1456 30.948C31.1644 30.948 31.1926 30.948 31.2209 30.9574H32.0771C30.6563 32.7923 28.4451 33.8932 26.1209 33.9214C25.5187 31.2773 22.9028 29.5836 20.2399 30.1294C17.9346 30.5999 16.2503 32.6417 16.2315 35.0035C16.2597 37.7605 18.5274 40.0094 21.2938 40.0094C22.677 39.9906 23.9661 39.4354 24.9353 38.4474C25.5563 37.8076 25.9703 37.0078 26.1303 36.1327C29.1884 36.1044 32.096 34.6366 33.9402 32.1901L34.8341 30.8727C36.9607 30.694 38.3345 29.3202 38.3345 27.3442V21.1997C38.3251 20.0894 37.9205 18.9038 37.2336 17.9911ZM36.0762 21.1809V27.3253C36.0762 28.605 34.7589 28.7085 34.3448 28.7085H32.4253V18.6685H34.3448C35.3517 18.6685 36.0762 20.1741 36.0762 21.1809ZM5.64572 18.6685H8.06397V28.7085H5.64572C4.66712 28.6803 3.88613 27.8711 3.91436 26.8925C3.91436 26.8737 3.91436 26.8643 3.91436 26.836V20.6916C3.91436 19.5719 4.68594 18.6685 5.64572 18.6685ZM23.2886 36.8666C22.7711 37.4218 22.0372 37.7511 21.2844 37.7511C19.76 37.7229 18.5274 36.5091 18.4709 34.9941C18.4709 33.4698 19.7036 32.2371 21.2279 32.2371C22.7523 32.2371 23.9849 33.4698 23.9849 34.9941V35.0035C24.0226 35.6904 23.7685 36.3679 23.2886 36.8666Z" fill="#9762FD"/>
</g>
<defs>
<clipPath id="clip0_1358_2094">
<rect width="40" height="40" fill="white"/>
</clipPath>
</defs>
</svg>
