<svg width="142" height="40" viewBox="0 0 142 40" fill="none" xmlns="http://www.w3.org/2000/svg">
<g id="BBC_logo_(1997-2021) 1" clip-path="url(#clip0_1358_2740)">
<path id="Vector" d="M76.9243 25.8528C76.9243 30.1996 71.5098 29.9416 71.5098 29.9416H66.0954V22.0872H71.5098C77.082 22.0498 76.9243 25.8528 76.9243 25.8528ZM66.0954 10.1085H70.2213C74.5056 10.3346 74.3439 13.5213 74.3439 13.5213C74.3439 17.4814 69.6065 17.546 69.6065 17.546H66.0954V10.1085ZM75.9228 19.0905C75.9228 19.0905 79.6289 17.5128 79.5959 13.3281C79.5959 13.3281 80.1595 6.47004 71.0642 5.63354H60.9718V34.3843H72.5401C72.5401 34.3843 82.206 34.4131 82.206 26.2721C82.2058 26.2721 82.4344 20.7321 75.9228 19.0905ZM49.804 0H92.295V40.0018H49.804V0ZM27.9256 25.8528C27.9256 30.1996 22.511 29.9416 22.511 29.9416H17.0962V22.0872H22.511C28.0836 22.0498 27.9256 25.8528 27.9256 25.8528ZM17.0962 10.1085H21.2229C25.5074 10.3346 25.3452 13.5213 25.3452 13.5213C25.3452 17.4814 20.6081 17.546 20.6081 17.546H17.0962V10.1085ZM26.9245 19.0905C26.9245 19.0905 30.6311 17.5128 30.5978 13.3281C30.5978 13.3281 31.161 6.47004 22.0657 5.63354H11.9729V34.3843H23.5419C23.5419 34.3843 33.2076 34.4131 33.2076 26.2721C33.2076 26.2721 33.4354 20.7321 26.9245 19.0905ZM0.805664 0H43.2966V40.0018H0.805664V0ZM132.626 7.69474V13.0065C132.626 13.0065 127.436 9.82021 121.701 9.75607C121.701 9.75607 111.001 9.54625 110.519 20.0024C110.519 20.0024 110.132 29.6182 121.572 30.1662C121.572 30.1662 126.371 30.7437 132.883 26.5955V32.0966C132.883 32.0966 124.148 37.281 114.03 33.2879C114.03 33.2879 105.524 30.1848 105.2 20.0024C105.2 20.0024 104.846 9.52954 116.19 6.05305C116.19 6.05305 119.22 4.89446 124.664 5.4094C124.664 5.40926 127.917 5.73081 132.626 7.69474ZM98.8025 40.0018H141.293V0H98.8025V40.0018Z" fill="#7B7B7B"/>
</g>
<defs>
<clipPath id="clip0_1358_2740">
<rect width="140.488" height="40" fill="white" transform="translate(0.805664)"/>
</clipPath>
</defs>
</svg>
