<svg width="141" height="40" viewBox="0 0 141 40" fill="none" xmlns="http://www.w3.org/2000/svg">
<g id="Hubspot" clip-path="url(#clip0_1358_2630)">
<path id="Vector" d="M15.2826 22.6611H4.91376V33.5551H0V6.6944H4.91376V17.9626H15.2826V6.6944H20.1964V33.5551H15.2826V22.6611Z" fill="#7B7B7B"/>
<path id="Vector_2" d="M35.9365 24.8649C35.9365 27.1102 34.1042 28.9397 31.8555 28.9397C29.6069 28.9397 27.7746 27.1102 27.7746 24.8649V13.3888H23.1523V24.9065C23.4855 29.7298 27.6497 33.3472 32.4802 33.0146C36.8526 32.7235 40.3089 29.2724 40.6004 24.9065V13.3888H35.9365V24.8649Z" fill="#7B7B7B"/>
<path id="Vector_3" d="M70.4603 14.553C70.4603 12.183 72.0427 11.4345 73.75 11.4345C75.1242 11.4345 76.9564 12.474 78.1641 13.763L81.2039 10.1871C79.6632 8.10812 76.5817 6.6944 74.0415 6.6944C68.9612 6.6944 65.3383 9.64658 65.3383 14.553C65.3383 23.6591 76.4984 20.79 76.4984 25.8628C76.4984 27.4428 74.9576 28.815 73.2086 28.815C70.4603 28.815 69.5441 27.4844 68.2949 26.0291L64.9219 29.5634C67.0873 32.2245 69.7524 33.5551 72.9588 33.5551C77.7476 33.5551 81.6203 30.5613 81.6203 25.8628C81.6203 15.8004 70.4603 18.9189 70.4603 14.553Z" fill="#7B7B7B"/>
<path id="Vector_4" d="M139.377 29.2724C136.628 29.2724 135.837 28.0665 135.837 26.2786V18.2121H140.126V14.1372H135.837V8.73181L131.09 10.8524V27.3181C131.09 31.5177 134.005 33.6383 137.961 33.6383C138.585 33.6383 139.21 33.5967 139.835 33.5135L141.001 29.2724C140.501 29.2308 139.918 29.2724 139.377 29.2724Z" fill="#7B7B7B"/>
<path id="Vector_5" d="M53.6776 13.5135C51.6372 13.4304 49.6383 14.2204 48.2225 15.7173V6.86072H43.5586V23.2433C43.5586 29.3971 48.0143 33.5967 53.0113 33.5967C58.5497 33.5967 63.4219 29.3139 63.4219 23.5343C63.3802 17.8378 58.8829 13.5135 53.6776 13.5135ZM53.636 28.8981C50.721 28.8981 48.3474 26.5281 48.3474 23.6175C48.3474 20.7069 50.721 18.3368 53.636 18.3368C56.5509 18.3368 58.9245 20.7069 58.9245 23.6175C58.9662 26.5281 56.5926 28.8981 53.636 28.8981Z" fill="#7B7B7B"/>
<path id="Vector_6" d="M104.398 23.2848C104.398 17.5052 99.5263 13.2225 93.9879 13.2225C88.9909 13.2225 84.5352 17.4221 84.5352 23.5759V40H89.1991V31.1435C90.6149 32.6404 92.6137 33.4304 94.6958 33.3056C99.9011 33.3472 104.398 28.9813 104.398 23.2848ZM99.9427 23.2433C99.9427 26.1539 97.5691 28.5239 94.6542 28.5239C91.7392 28.5239 89.3656 26.1539 89.3656 23.2433C89.3656 20.3327 91.7392 17.9626 94.6542 17.9626C97.5691 17.9626 99.9427 20.3327 99.9427 23.2433Z" fill="#7B7B7B"/>
<path id="Vector_7" d="M119.469 13.0146V8.35761C120.719 7.77549 121.551 6.48651 121.551 5.11437V4.98963C121.551 2.99379 119.927 1.37216 117.929 1.37216H117.845C115.846 1.37216 114.222 2.99379 114.222 4.98963V5.11437C114.222 6.52809 115.055 7.77549 116.304 8.35761V13.0562C114.514 13.3472 112.848 14.0541 111.432 15.1767L98.565 5.15595C98.6482 4.82331 98.6899 4.49067 98.7315 4.15803C98.7732 1.87113 96.9409 2.36234e-05 94.6922 2.36234e-05C92.4019 -0.0415564 90.528 1.78797 90.528 4.03329C90.4864 6.32019 92.3187 8.19129 94.5673 8.19129C95.3169 8.19129 96.0248 8.02497 96.6494 7.65075L109.309 17.5468C106.977 21.0811 107.018 25.6549 109.475 29.1061L105.644 32.9314C105.353 32.8483 105.019 32.7651 104.686 32.7651C102.854 32.7651 101.355 34.262 101.355 36.0915C101.355 37.921 102.854 39.4179 104.686 39.4179C106.519 39.4179 108.018 37.921 108.018 36.0915C108.018 35.7589 107.976 35.4678 107.851 35.1352L111.682 31.3514C116.18 34.8025 122.634 33.9709 126.09 29.4387C129.547 24.9065 128.714 18.5031 124.175 15.052C122.842 14.0125 121.218 13.3056 119.469 13.0146ZM117.887 28.4408C114.972 28.4408 112.598 26.0707 112.598 23.1601C112.598 20.2495 114.972 17.8794 117.887 17.8794C120.802 17.8794 123.175 20.2495 123.175 23.1601C123.175 26.0707 120.802 28.4408 117.887 28.4408Z" fill="#7B7B7B"/>
</g>
<defs>
<clipPath id="clip0_1358_2630">
<rect width="141" height="40" fill="white"/>
</clipPath>
</defs>
</svg>
