<svg width="257" height="40" viewBox="0 0 257 40" fill="none" xmlns="http://www.w3.org/2000/svg">
<g id="Greenpeace_logo 1" clip-path="url(#clip0_1358_2695)">
<g id="g10">
<path id="path22" fill-rule="evenodd" clip-rule="evenodd" d="M7.72334 15.8419C7.69693 15.9446 7.50467 16.1803 7.43712 16.2136C7.43712 16.3745 7.34028 16.5273 7.19266 16.6267C7.19266 16.8794 6.76954 16.9911 6.71639 17.2604C6.66783 17.506 6.56376 17.7385 6.37608 17.8659C6.37608 18.0934 6.00908 18.1802 6.00908 18.403C5.8993 18.4595 5.79854 18.8162 5.72361 18.8162C5.72361 18.9702 5.557 19.0776 5.51916 19.2704C5.43224 19.3152 5.31504 19.5192 5.31504 19.6426C5.12207 19.7392 5.18329 19.9978 4.98845 20.0963C4.98845 20.2356 4.82514 20.4074 4.82514 20.5513C4.75244 20.5513 4.58028 21.3086 4.58028 21.4188C4.4214 21.4188 4.48081 22.8022 4.53913 23.0259C4.66202 23.4994 4.69136 24.0096 4.98845 24.3103C5.06614 24.3888 5.11395 24.5266 5.15174 24.6411C5.21116 24.6704 5.42709 24.8861 5.47821 24.9505C5.59649 25.1 6.37608 25.2914 6.37608 25.3431C6.76935 25.4001 6.98225 25.6323 7.31477 25.6323C7.31477 25.6304 8.4264 25.9853 8.53911 26.004C8.53911 26.1674 9.07003 26.1126 9.07003 26.2518C9.41989 26.2878 9.76955 26.3228 10.1194 26.3582C10.4711 26.3943 10.8291 26.6134 11.1923 26.7062C11.1923 26.8434 11.949 26.9023 12.1376 26.8793C12.589 26.8248 12.946 26.954 13.3249 26.954C13.9357 26.954 14.4973 27.1193 15.1109 27.1193C15.1109 27.329 16.5445 27.0779 16.6615 27.0779C16.6615 26.9415 18.1685 26.7818 18.3643 26.7506C18.6657 26.7024 18.9671 26.6543 19.2683 26.6044C19.5619 26.5559 19.668 26.3467 19.9808 26.2518C20.382 26.13 20.5506 25.9703 20.906 25.8801C20.906 25.8853 21.6594 25.5081 21.7226 25.5081C21.833 25.3394 22.037 25.2905 22.1512 25.1364C22.2619 24.9876 22.5125 24.7778 22.6813 24.6411C22.8729 24.4859 23.0694 23.9557 23.0694 23.7319C23.2362 23.7319 23.1886 22.8855 23.0694 22.7406C22.8445 22.6649 22.7679 22.5702 22.5252 22.5889C22.1665 22.6169 21.8661 22.6763 21.4775 22.6991C21.4775 22.8177 20.6205 22.8709 20.6205 22.9886C20.372 22.9886 20.1223 23.0297 19.9269 23.0297C19.9269 23.1299 19.4802 23.1538 19.3552 23.1538C19.3552 23.2842 18.1719 23.251 18.1719 23.3603C18.0862 23.3603 17.6816 23.4247 17.6816 23.4844C17.5341 23.4928 16.8248 23.4966 16.8248 23.6081C16.5381 23.589 15.7815 23.7319 15.7228 23.7319C15.7228 23.8197 13.0699 24.2627 12.8588 24.3193C12.5914 24.3912 12.4864 24.2791 12.2179 24.2954C11.9859 24.3103 11.9184 24.1867 11.7636 24.1867C11.6982 24.0522 11.666 24.1559 11.6006 24.021C11.4717 24.021 11.4362 23.8963 11.3353 23.8145C11.1681 23.6796 11.1663 23.4988 11.029 23.3603C10.9458 23.2756 10.8262 22.7406 10.6614 22.7406C10.6001 22.5534 10.2396 21.5841 10.1313 21.5841C10.1313 21.3805 10.0689 21.3248 10.1288 21.1091C10.1824 20.9164 10.213 20.6848 10.213 20.5305C10.213 20.4609 10.2907 20.0963 10.3353 20.0963C10.3497 19.8126 10.4167 19.4521 10.4167 19.2289C10.5626 19.2289 10.5642 18.3614 10.7845 18.3614C10.7845 18.24 10.8326 18.0896 10.9476 18.0312C11.0118 17.774 11.1428 17.6573 11.2945 17.4526C11.4488 17.2445 11.8658 17.159 12.1038 17.0606C12.2137 17.0148 12.8656 17.0017 12.8656 16.9569C13.0285 16.9569 14.0495 16.8383 14.0495 16.7094C14.3042 16.7094 14.6151 16.6525 14.9199 16.6403C15.1761 16.6303 15.2912 16.5441 15.4779 16.5441C15.4779 16.2967 16.6428 16.2444 16.9062 16.2136C16.9062 16.165 17.2416 16.0897 17.3145 16.0897C17.3145 15.9898 17.8688 15.9883 17.9921 15.982C18.4546 15.9599 18.7343 15.7592 19.1511 15.7592C19.556 15.7592 19.8348 15.5986 20.2803 15.5757C20.634 15.5571 20.9881 15.5388 21.3415 15.5207C21.5673 15.5089 21.693 15.4286 21.9266 15.4286C21.9266 15.4149 23.1449 15.2639 23.2735 15.2639C23.2735 15.2648 23.8304 15.1312 23.9284 15.0965C24.2233 14.994 24.5999 14.9333 24.8652 14.9333C24.8652 14.9296 25.1734 14.7969 25.2356 14.7699C25.4906 14.6597 25.6176 14.7241 25.8192 14.7437C26.0468 14.7658 26.2883 14.7213 26.5075 14.6643C26.6943 14.6158 26.9269 14.516 27.1052 14.5803C27.2176 14.6208 27.8444 14.5599 27.8444 14.6436C28.0685 14.6436 28.1238 14.7264 28.3343 14.7264C28.3343 14.7487 29.155 14.9333 29.2321 14.9333C29.2321 15.0238 29.5288 15.0074 29.5998 15.0154C29.7327 15.1089 29.8654 15.2015 29.9977 15.2947C30.1638 15.4106 30.2881 15.6112 30.3342 15.8142C30.4005 16.1024 30.5171 16.2515 30.5795 16.5031C30.7517 16.5899 30.765 16.8667 30.9463 16.9569C31.069 17.3258 31.2327 17.535 31.2327 17.9076C31.344 17.9076 31.3693 18.7751 31.4774 18.7751C31.4774 18.901 31.7057 19.601 31.7629 19.601C31.787 19.9003 31.8383 20.142 31.9145 20.4276C32.0107 20.7881 31.8456 21.1844 31.7629 21.5346C31.7275 21.6853 31.6212 21.9636 31.4774 22.0383C31.4774 22.1457 31.3864 22.3371 31.3141 22.41C31.2346 22.4908 31.0691 22.7116 31.0691 22.8233C31.0273 22.8233 30.865 23.1679 30.865 23.236C30.7574 23.236 30.7391 23.7734 30.6205 23.7734C30.5935 23.8804 30.4636 24.2278 30.3752 24.2278C30.3752 24.5167 30.1306 24.8488 30.1306 25.219C30.1254 25.219 29.7669 25.9647 29.7768 26.0725C29.8213 26.5665 29.6205 26.7458 29.5587 27.2435C29.5273 27.4981 29.4364 27.6563 29.4364 27.8632C29.3876 27.8632 29.3142 28.1247 29.3142 28.1938C29.1707 28.1938 29.335 28.9371 29.1919 28.9371C29.1378 29.2052 29.0629 29.2827 29.0286 29.5977C29.0112 29.7555 28.8571 30.6305 28.7835 30.6305C28.7835 30.7105 28.7141 31.085 28.661 31.085C28.661 31.4604 28.6942 31.7022 28.6711 32.0767C28.6554 32.3311 28.5796 32.4628 28.5796 32.7644C28.5796 32.8589 28.5338 33.2337 28.4567 33.2337C28.4567 33.4345 28.3833 33.6073 28.4458 33.8669C28.5198 34.1769 28.5388 34.4132 28.5388 34.7204C28.6903 34.7204 28.62 36.0464 28.62 36.2285C28.62 36.7291 28.4598 37.111 28.4264 37.653C28.3943 38.1741 28.0465 38.444 27.9675 38.8517C27.7474 38.9623 25.6417 40.1273 25.1668 39.9891C25.056 39.957 25.1186 39.8845 24.9878 39.8845C24.9878 39.7949 24.7597 39.7588 24.6885 39.7327C24.548 39.6813 24.3113 39.5497 24.2533 39.4297C24.1814 39.4297 23.3549 39.1085 23.3549 39.1406C23.2696 39.1406 23.0284 39.0585 23.0284 38.9753C22.9487 38.9753 22.8091 38.918 22.7424 38.8517C22.5381 38.6463 22.0859 38.5476 22.1195 38.1588C22.1386 37.9378 22.206 37.8006 22.0899 37.5708C22.0065 37.4967 21.9798 37.1166 21.9266 37.1166C21.9513 36.4596 22.0492 35.9587 22.0492 35.3651C22.0492 34.7422 22.0082 34.0854 22.0082 33.5227C21.9862 33.5227 22.2241 32.2242 22.1715 32.035C22.103 31.7913 22.0962 31.3054 21.9292 31.1479C21.7393 30.9686 21.62 31.0168 21.3551 31.0439C21.3551 31.0909 20.7169 31.3459 20.5796 31.3745C20.5796 31.4604 20.1164 31.527 20.0286 31.5392C19.7898 31.5724 19.632 31.7045 19.4372 31.7045C19.4372 31.8753 18.4165 31.7642 18.4165 31.9945C18.0335 31.9945 17.7408 32.1785 17.3825 32.2143C16.9451 32.2582 16.7881 32.4478 16.3487 32.4478C15.9883 32.4478 15.649 32.5785 15.2318 32.5595C14.8634 32.5427 14.6023 32.3914 14.2401 32.4982C13.8434 32.615 13.5753 32.4478 13.2332 32.4478C12.9829 32.3936 12.545 32.5315 12.1721 32.5315C12.1721 32.6641 9.44001 32.242 9.19238 32.242C9.19238 32.1542 8.1723 32.0743 8.1723 31.9118C7.65045 31.8447 7.3698 31.626 6.78465 31.5812C6.53702 31.4697 6.21835 31.2502 5.94762 31.2502C5.8659 31.2502 5.60051 31.2054 5.60051 31.1261C5.46876 31.1261 4.82514 30.9415 4.82514 30.7964C4.51366 30.7964 4.20845 30.3827 3.88645 30.3827C3.88645 30.3401 3.34819 30.011 3.23378 30.011C3.07435 29.8358 2.7481 29.6011 2.66192 29.433C2.50397 29.433 2.27534 29.1444 2.17256 29.0199C2.0694 29.0199 1.84871 28.8161 1.80498 28.7308C1.62359 28.5826 1.51933 28.473 1.51933 28.276C1.50457 28.276 1.29937 27.9388 1.27409 27.8632C1.22261 27.8632 1.05487 27.527 1.02959 27.4501C0.920904 27.1199 0.829194 26.7501 0.776602 26.441C0.74505 26.2542 0.689323 26.0712 0.638393 25.8891C0.619203 25.8194 0.498337 25.6323 0.495569 25.6084C0.485974 25.5277 0.441133 24.7236 0.417329 24.7236C0.417329 24.239 0.243319 19.601 0.294618 19.601C0.294618 19.4714 0.371935 18.6509 0.49889 18.6509C0.49889 18.5863 0.703162 17.6931 0.730288 17.3706C0.742098 17.2268 0.906883 16.2546 1.07037 16.2546C1.07037 15.9222 1.43002 15.629 1.51933 15.2639C1.82177 15.1092 1.87085 14.6106 2.13178 14.4783C2.13178 14.2562 2.49862 14.1694 2.49862 13.9415C2.70436 13.8028 2.72227 13.5394 2.90716 13.4456C2.90716 13.3065 3.15185 13.2365 3.15185 13.0738C3.36866 12.8857 3.51371 12.7229 3.68255 12.4959C3.83977 12.416 3.87151 12.185 4.04994 12.1235C4.09977 11.9708 4.17284 11.9329 4.29499 11.8346C4.29499 11.762 4.36327 11.6415 4.41734 11.5867C4.54927 11.4538 5.07464 10.5541 5.19274 10.5541C5.25973 10.2799 5.42469 10.0288 5.65535 9.82423C5.77175 9.72057 5.8659 9.43838 6.04966 9.43838C6.09638 9.34333 6.1722 9.38234 6.1722 9.31454C6.31297 9.31454 6.25175 9.21256 6.37608 9.14964C6.37608 8.99387 6.75328 8.65416 6.90681 8.65416C7.03762 8.47783 7.1552 8.42236 7.34434 8.31048C7.64544 8.13247 8.86813 6.61872 9.15157 6.54739C9.20381 6.44244 9.42097 6.3821 9.51899 6.3821C9.51899 6.35017 9.92327 6.0926 10.0089 6.0926C10.0661 5.9768 11.6149 4.74137 12.0088 4.27481C12.1293 4.27481 12.3478 4.08896 12.4168 3.98588C12.5801 3.93171 12.6347 3.82805 12.7433 3.69656C12.8335 3.69656 12.9512 3.60878 13.0088 3.53109C13.0957 3.41361 13.2064 3.32602 13.3147 3.22834C13.4553 3.10245 13.3828 3.09126 13.478 2.99415C13.6792 2.79057 14.0111 2.74333 14.2128 2.54027C14.3191 2.43288 14.4339 2.12659 14.6208 2.12659C14.7926 1.91741 14.934 1.7876 15.1515 1.71383C15.3591 1.39822 15.8099 1.37708 16.0085 1.17689C16.0836 1.1003 16.3548 0.887386 16.4572 0.887386C16.5227 0.755184 16.8215 0.673519 16.9881 0.639908C16.9881 0.550259 17.3961 0.53252 17.3961 0.432976C17.4856 0.411125 17.7637 0.331757 17.7637 0.267689C18.0438 0.173927 18.1748 0.144043 18.4985 0.144043C18.4985 0.0355568 19.0729 0.0263786 19.1965 0.029007C19.5684 0.0385208 19.9406 0.0473213 20.3122 0.0566444C20.5203 0.0619011 20.6816 -0.0221519 20.9328 0.00997925C21.4135 0.0721321 21.7308 0.267689 22.1578 0.267689C22.2376 0.267689 22.6204 0.338306 22.6204 0.391907C22.8289 0.443832 23.127 0.514782 23.3305 0.648323C23.8954 1.01758 24.3024 1.43087 24.797 1.90661C25.1036 2.20132 25.4647 2.57766 25.559 2.95303C25.7395 3.04493 25.9012 3.69656 25.9669 3.69656C25.9669 4.15117 26.168 4.60218 26.2121 5.10087C26.3643 5.10087 26.5795 5.93386 26.5795 6.05133C26.6485 6.05133 26.6611 6.8774 26.8244 6.8774C26.8244 7.14692 26.9107 7.30006 26.8771 7.5746C26.8441 7.84168 26.702 8.09925 26.702 8.36465C26.6592 8.36465 26.5387 8.628 26.5387 8.69504C26.3405 8.84689 26.2027 9.0411 26.0196 9.20883C25.8298 9.38292 24.8245 9.545 24.8245 9.68695C24.4685 9.68695 24.1849 9.86291 23.7775 9.82891C23.5851 9.81247 23.3778 9.78407 23.198 9.70976C23.0376 9.64402 22.9965 9.46377 22.8655 9.39745C22.8655 9.20041 22.5799 9.13788 22.5799 8.94271C22.4451 8.8762 22.3348 8.58 22.3348 8.44775C22.1746 8.44775 22.1534 7.73338 21.9266 7.62112C21.9266 7.56527 21.6183 6.8774 21.5592 6.8774C21.5592 6.61184 21.1189 6.24388 20.9269 6.01007C20.7733 5.82365 20.5044 5.85918 20.4168 5.67988C20.1529 5.62662 19.959 5.52745 19.8042 5.76202C19.6658 5.76202 19.518 5.91928 19.3759 5.94768C19.1485 5.99363 19.0186 6.19573 18.804 6.25788C18.7343 6.27845 18.4165 6.45119 18.4165 6.46429C18.2726 6.46429 18.1486 6.56833 17.9674 6.62939C17.9674 6.74165 17.5326 6.82193 17.4371 6.91904C17.2704 7.08715 17.0267 7.17589 16.8248 7.29054C16.6873 7.29054 16.4559 7.49896 16.3758 7.62112C16.1341 7.68146 16.0003 7.86879 15.7638 7.86879C15.7638 7.90331 15.4595 8.03408 15.3966 8.03408C15.2504 8.19654 14.9402 8.41787 14.8657 8.57101C14.3811 8.73443 13.9499 9.17374 13.6409 9.56274C13.3734 9.63001 13.1927 9.86047 12.9964 10.0749C12.7897 10.3005 12.5875 10.4378 12.3762 10.6778C12.2352 10.8384 12.04 11.1325 11.8455 11.1325C11.7025 11.3057 11.1923 11.6693 11.1923 11.8759C11.0266 12.0066 10.7433 12.1728 10.7433 12.3717C10.6136 12.4885 10.3318 12.8676 10.172 12.8676C10.1255 12.9629 10.0499 12.924 10.0499 12.9918C9.90059 13.0917 9.94764 13.2073 9.80465 13.2807C9.80465 13.5054 9.56345 13.5512 9.45772 13.6941C9.31232 13.8893 8.90692 14.1249 8.90692 14.3547C8.85377 14.3547 8.76888 14.6143 8.70247 14.6643C8.54469 14.7839 8.38932 15.0407 8.33561 15.2639C8.15529 15.4002 7.94645 15.8419 7.72334 15.8419Z" fill="#7B7B7B"/>
<path id="path24" fill-rule="evenodd" clip-rule="evenodd" d="M66.4544 12.5783C66.4072 12.7535 66.1998 12.9533 66.0458 13.0327C65.9513 13.3194 65.871 13.4514 65.8418 13.776C65.6887 14.3074 65.512 14.8227 66.0052 15.222C66.0052 15.3103 66.3278 15.4343 66.427 15.442C66.719 15.4653 66.8876 15.5111 67.189 15.5111C67.189 15.5708 68.6988 15.5292 68.6988 15.4284C68.7715 15.4284 69.1069 15.3533 69.1069 15.3047C69.3932 15.2627 69.5684 15.222 69.8826 15.222C69.9714 15.222 70.8619 15.146 70.8619 15.0567C71.193 15.0171 72.331 14.8083 72.4944 14.7678C72.6536 14.4482 73.314 14.3955 73.6645 14.3955C74.0689 14.3955 74.469 14.2784 74.881 14.2881C75.1554 14.2952 75.719 14.4422 75.719 14.7678C75.8593 14.8621 75.9911 15.0567 76.0454 15.222C76.1177 15.4411 76.2537 15.5643 76.3312 15.8006C76.3732 15.8006 76.7044 16.5804 76.719 16.6681C76.7823 17.051 76.9774 17.1535 77.0114 17.6038C77.0303 17.8532 77.1149 17.9839 77.1475 18.279C77.1602 18.279 77.3232 19.1475 77.3516 19.2702C77.4654 19.2702 77.6978 20.3232 77.7025 20.5284C77.7106 20.8816 77.3728 21.1706 77.1069 21.1706C76.9538 21.4027 76.6845 21.4101 76.4129 21.4597C76.4129 21.5032 76.1455 21.6296 76.0657 21.6455C75.8342 21.6922 75.5565 21.7314 75.2702 21.7491C74.9679 21.8397 74.6363 21.9555 74.3212 21.9555C73.785 21.9555 73.3263 22.0797 72.8416 22.0797C72.631 22.0797 72.3555 22.0816 72.0863 22.0539C71.8312 22.0289 71.5959 22.1208 71.27 22.1208C71.09 22.1208 69.6374 22.1905 69.6374 22.245C69.0658 22.2861 68.8036 22.4514 68.2911 22.4514C68.2911 22.5224 67.4606 22.6727 67.3109 22.6852C67.0884 22.7035 66.8564 22.782 66.6377 22.782C66.35 22.782 66.0331 22.7721 65.7463 22.8025C65.5753 22.8203 65.4567 22.9052 65.2702 22.9052C65.0283 22.9052 64.8762 22.9883 64.699 22.9883C64.699 23.1126 64.3315 23.05 64.3315 23.1947C64.1808 23.1947 63.998 23.323 63.8827 23.4426C63.8827 23.5776 63.631 23.8605 63.5152 23.9384C63.3641 24.1131 63.4335 24.3069 63.3801 24.5077C63.237 25.0512 63.4104 25.2427 63.7193 25.632C63.8667 25.632 64.0122 25.8384 64.1681 25.8384C64.1681 25.873 64.4728 26.0037 64.5356 26.0037C64.5356 26.1391 65.2286 26.3343 65.4336 26.376C65.4336 26.4697 66.5763 26.4747 66.5763 26.6649C66.787 26.6649 66.9249 26.7474 67.189 26.7474C67.189 26.9815 67.8598 26.7387 67.9642 26.706C68.3813 26.6826 68.7706 26.5821 69.1069 26.5821C69.1069 26.4841 69.7007 26.3913 69.8415 26.376C69.8415 26.2265 70.4291 25.9981 70.5354 25.8384C70.6724 25.8384 70.7645 25.7142 70.9233 25.7142C71.1217 25.7142 71.261 25.6722 71.4197 25.6872C71.6607 25.7095 71.6942 25.7367 71.8756 25.8721C71.9507 25.9281 72.168 26.1395 72.168 26.169C72.3404 26.3253 72.8393 27.135 72.964 27.2429C73.1307 27.3871 73.6466 28.3159 73.6782 28.7305C73.6645 28.7305 73.8563 29.6158 73.8629 29.7447C73.8672 29.8338 73.8086 30.1345 73.76 30.1345C73.76 30.325 73.7189 30.5543 73.7189 30.7962C73.6513 30.7962 73.597 31.5815 73.597 31.7042C73.5167 31.7042 73.3929 32.5266 73.3929 32.6545C73.1898 32.7563 73.3079 33.0066 73.1071 33.1087C73.1071 33.585 72.0367 34.27 72.0367 34.0823C72.5705 34.0823 69.1069 35.1286 69.1069 34.9269C68.8858 34.9966 68.6586 34.8687 68.4541 34.8033C68.1768 34.7753 68.0096 34.7164 67.7464 34.6925C67.3936 34.6604 66.9703 34.3896 66.6174 34.3896C66.6174 34.3737 65.8838 34.1701 65.8011 34.1421C65.4723 34.031 65.1705 33.853 64.8214 33.853C64.8214 33.7363 64.495 33.8069 64.495 33.6874C64.2276 33.6429 64.016 33.5682 63.7193 33.5225C63.7193 33.2821 62.6583 33.4259 62.6583 33.1504C62.5643 33.1504 61.8425 32.8715 61.8425 32.7787C61.6564 32.7311 61.4556 32.6056 61.3521 32.4476C61.1377 32.4476 61.0366 32.1176 60.8216 32.1176C60.7763 32.027 60.4678 31.8286 60.3729 31.8286C60.3015 31.7216 60.0446 31.4985 59.9236 31.4985C59.7942 31.341 59.7196 31.2958 59.7196 31.0847C59.6955 31.0847 59.6355 30.9316 59.5561 30.8784C59.5561 30.8625 59.198 30.7331 59.1484 30.6303C59.0455 30.5441 58.9037 30.4852 58.9037 30.3414C58.7719 30.2742 58.8721 30.2418 58.7403 30.1761C58.7403 29.9483 58.3728 29.8624 58.3728 29.6386C58.2698 29.5878 58.2107 29.4387 58.189 29.3291C58.1441 29.1017 58.1281 29.3693 58.1281 29.0605C58.1191 29.0605 58.0053 28.8286 58.0053 28.7716C57.8125 28.6702 57.7379 27.9872 57.6382 27.9872C57.6382 27.6632 57.393 27.3129 57.393 26.9955C57.2386 26.9955 57.3864 25.4257 57.189 25.4257C57.189 25.1997 57.1077 25.1263 57.1077 24.8471C57.0317 24.8471 57.0666 23.9577 57.0666 23.8251C57.0666 23.663 57.2518 22.6989 57.189 22.6989C57.189 22.4103 57.2301 22.081 57.2301 21.8523C57.2301 21.6795 57.3529 21.5727 57.3529 21.3775C57.3529 20.5561 57.7265 19.9792 57.8692 19.2567C57.95 18.8496 58.2098 18.5815 58.2098 18.1548C58.3047 18.1066 58.4139 17.8858 58.4139 17.7831C58.4521 17.7831 58.5768 17.5412 58.5768 17.4524C58.6576 17.4118 58.7223 17.1634 58.7809 17.1634C58.7809 17.0919 58.9595 16.7092 59.0261 16.7092C59.1329 16.2824 59.3624 16.0285 59.4338 15.5938C59.5481 15.5938 59.5382 14.6434 59.6785 14.6434C59.8268 14.1458 59.4952 13.627 59.1484 13.3631C59.1484 13.3017 59.0776 13.1152 59.0261 13.1152C59.0261 12.873 58.8145 12.9332 58.7398 12.746C58.6628 12.5516 58.3728 12.3753 58.3728 12.2062C58.2825 12.2062 58.3317 11.9448 58.3317 11.8756C58.1635 11.7393 58.0761 11.6233 57.9646 11.4349C57.7492 11.0718 57.8017 10.3501 57.8017 9.98929C57.8017 9.55974 57.7284 9.14416 57.8149 8.65858C57.8621 8.39245 57.8829 8.09453 57.8829 7.86857C57.899 7.86857 58.1281 7.40292 58.1281 7.33158C58.301 7.21526 58.4521 6.75353 58.6992 6.75353C58.7507 6.64987 58.8867 6.57184 58.985 6.50514C58.985 6.36974 59.1484 6.29917 59.241 6.20388C59.4895 5.94951 59.7484 5.71791 60.0871 5.59651C60.4244 5.47607 60.8084 5.56013 61.1575 5.54234C61.6875 5.51624 61.9762 5.13876 62.4542 4.97739C62.9554 4.80742 63.186 4.64811 63.8421 4.56371C63.8421 4.49644 64.2649 4.39824 64.3589 4.39824C64.6816 4.39824 64.7685 4.40402 65.128 4.42941C65.3599 4.44643 65.4813 4.3237 65.692 4.30204C65.9877 4.27215 68.5509 3.65508 68.617 3.65508C68.617 3.49018 69.7007 3.34449 69.8826 3.28339C70.1022 3.20909 70.1174 3.15922 70.4131 3.15922C70.611 3.15922 70.7711 3.07684 70.9644 3.07684C71.2728 3.07684 71.9261 2.82152 72.005 2.80789C72.2067 2.77447 72.2672 2.70161 72.5355 2.68836C72.8771 2.6712 73.0599 2.6142 73.3787 2.53952C73.4496 2.52327 73.8823 2.39254 73.8823 2.37423C74.3339 2.37423 74.6788 2.25059 75.1072 2.25059C75.1072 2.31877 76.4162 2.16673 76.6184 2.14507C76.7658 2.1292 77.8003 2.04141 77.8003 2.25059C78.0521 2.31408 78.114 2.51672 78.3719 2.58117C78.5358 2.78753 78.6681 3.02941 78.8613 3.15922C78.9119 3.36314 79.1041 3.62649 79.2699 3.73761C79.2699 3.80541 79.4513 4.10983 79.5146 4.10983C79.5359 4.1967 79.6686 4.48133 79.7187 4.48133C79.7735 4.74578 79.9228 5.13503 79.9228 5.34904C80.1061 5.34904 80.2213 6.09238 80.372 6.09238C80.4278 6.33144 80.5761 6.68631 80.5761 6.87717C80.6318 6.87717 80.8047 7.26622 80.8213 7.33158C81.0064 7.42778 80.9757 7.70701 80.9639 7.88946C80.9507 8.08803 80.9904 8.16553 80.8213 8.28224C80.7542 8.48152 80.6578 8.36443 80.6578 8.5848C80.6578 8.92025 80.5742 8.98485 80.2898 9.16979C80.0758 9.30945 79.8255 9.43816 79.637 9.43816C79.637 9.55917 78.9558 9.62362 78.8004 9.63481C78.5306 9.65403 78.3672 9.81057 78.0658 9.81057C77.9213 9.81057 76.8617 9.99771 76.8617 10.0167C76.5896 10.0167 76.3373 10.2237 76.0185 10.2237C75.7157 10.2237 75.5267 10.3473 75.2905 10.3473C74.9348 10.3473 74.5177 10.4711 74.1681 10.4711C73.8219 10.4711 73.6371 10.5954 73.3244 10.5954C72.9555 10.5954 72.8029 10.7607 72.4949 10.7607C72.2573 10.7607 72.0934 10.9259 71.8822 10.9259C71.8822 11.1402 71.1231 11.1553 70.936 11.1656C70.8066 11.1725 70.1278 11.2965 70.1278 11.3798C69.8131 11.3798 69.6913 11.5454 69.3927 11.5454C69.3927 11.6749 68.9439 11.6392 68.9439 11.7519C68.849 11.7587 68.3723 11.7524 68.3723 11.8344C68.2467 11.8344 68.1886 11.9171 68.0459 11.9171C68.0459 12.0469 67.3973 12.0703 67.2296 12.0821C67.2296 12.1272 66.5905 12.5387 66.4544 12.5783Z" fill="#7B7B7B"/>
<path id="path26" fill-rule="evenodd" clip-rule="evenodd" d="M85.7193 23.6492C85.6385 23.947 85.347 23.9962 85.2412 24.2418C85.1231 24.5154 85.1023 24.8814 85.1448 25.1732C85.1921 25.5006 85.4571 25.593 85.5969 25.8801C85.7344 25.9264 86.3315 26.1393 86.3315 26.2109C86.4359 26.2109 87.1067 26.3209 87.1067 26.417C87.3627 26.417 87.7118 26.5823 87.9234 26.5823C87.9234 26.8285 90.3723 26.8168 90.3723 26.6651C90.4219 26.6623 90.6798 26.7211 90.78 26.7267C90.8466 26.7299 91.1475 26.7986 91.1475 26.7062C91.3856 26.7062 91.1678 26.6651 91.3516 26.6651C91.3516 26.4759 92.1665 26.4587 92.3308 26.4587C92.3308 26.2878 92.9672 26.369 93.0659 26.1692C93.2029 26.1692 93.4292 25.9139 93.5147 25.7975C93.7074 25.7975 93.7693 25.5081 93.9639 25.5081C94.0116 25.4128 94.2823 25.2606 94.3716 25.2606C94.3716 25.2565 94.7495 25.1321 94.8284 25.1177C95.262 25.0383 95.3442 25.4231 95.7188 25.5495C95.7188 25.6472 95.8062 25.8162 95.8766 25.923C95.9886 26.0945 96.1539 26.2028 96.2966 26.3457C96.4114 26.4609 96.4128 26.4957 96.4128 26.6651C96.4128 26.8948 96.5101 26.8373 96.5758 27.0367C96.6334 27.2114 96.7916 27.3599 96.8025 27.5093C96.8138 27.6593 97.1473 28.036 97.1473 28.2759C97.4105 28.4095 97.4738 29.6715 97.4738 29.9288C97.5319 30.2762 97.4072 30.5106 97.3717 30.7964C97.3391 31.0606 97.2876 31.3492 97.2697 31.6636C97.2451 31.6636 97.1351 32.015 97.1199 32.0907C97.0557 32.4185 96.8875 32.9059 96.5351 33.0273C96.3934 33.4494 95.9975 33.574 95.58 33.6627C95.4581 33.6889 94.6985 33.8958 94.6985 34.0181C94.4788 34.0732 94.3154 34.1732 94.0475 34.1866C93.7612 34.2021 91.6936 34.5075 91.4541 34.5346C91.1607 34.5672 89.9141 34.8748 89.7601 34.6787C89.6226 34.6787 89.693 34.5965 89.556 34.5965C89.556 34.5168 89.1498 34.5812 89.0661 34.5863C88.8427 34.6003 88.7671 34.6503 88.5116 34.5355C88.2881 34.4359 88.2168 34.4309 87.9872 34.5047C87.7468 34.5822 87.1643 34.3836 87.066 34.1834C86.9309 34.1834 86.8294 34.0938 86.6305 34.0732C86.4359 34.0542 86.2379 33.9886 86.0457 33.9565C85.9791 33.9453 85.638 33.7701 85.638 33.7286C85.4906 33.7202 84.7806 33.7165 84.7806 33.6048C84.6143 33.5811 83.8826 33.4195 83.8826 33.3159C83.6662 33.2651 83.3195 33.2505 83.2293 33.0684C83.054 33.0684 82.9081 32.7145 82.6988 32.6547C82.6506 32.453 82.4952 32.4493 82.4952 32.242C82.4461 32.242 82.3724 31.9805 82.3724 31.9118C82.3558 31.9118 82.0875 31.569 82.0053 31.4987C82.0053 31.3178 81.8419 31.1942 81.8419 31.0027C81.6468 31.0027 81.5069 30.1763 81.352 30.1763C81.309 30.003 81.1815 29.7972 81.0662 29.6804C80.9424 29.5547 80.5357 29.4651 80.5357 29.226C80.4436 29.1557 80.3727 29.142 80.3727 29.0199C80.2121 28.9113 80.3127 28.8447 80.1682 28.7718C80.1682 28.7012 80.009 28.4412 79.9641 28.4412C79.9641 28.2997 79.71 27.3673 79.6377 27.3673C79.6377 27.2482 79.4889 26.0865 79.4742 26.0865C79.3779 25.7667 79.3788 25.3064 79.4246 24.9771C79.4879 24.5223 79.5579 24.1073 79.5768 23.6081C79.6042 22.8765 79.9046 22.2293 79.9641 21.5013C79.9806 21.3024 80.0718 20.5101 80.2093 20.5101C80.2093 20.343 80.3297 19.4357 80.454 19.4357C80.454 19.2663 80.4951 19.0033 80.4951 18.7751C80.5362 18.7751 80.6174 18.4333 80.6174 18.3614C80.6628 18.3614 80.822 17.4453 80.822 17.3155C80.822 17.1469 80.8976 16.0897 81.0251 16.0897C81.0638 15.9368 81.3048 15.0986 81.352 15.0986C81.352 14.7427 81.6784 14.3931 81.8012 14.0241C81.8693 14.0241 81.9519 13.554 82.087 13.4871C82.087 13.3149 82.2179 13.184 82.2505 12.9918C82.3464 12.9918 82.4243 12.593 82.5358 12.537C82.5358 12.3885 82.7215 12.1788 82.7805 12.0001C82.8367 12.0001 83.1069 11.1727 83.1069 11.0909C83.1362 11.0909 83.3516 10.5451 83.3516 10.4714C83.4352 10.4714 83.7196 9.42359 83.7196 9.31453C83.7706 9.31453 83.8297 7.9612 83.824 7.79218C83.8146 7.49522 83.8146 7.21977 83.8623 6.98071C83.8897 6.84152 83.9639 6.88489 83.9639 6.75374C84.09 6.65199 84.1197 6.55484 84.2095 6.46428C84.3408 6.33055 84.5232 6.27284 84.6583 6.11315C84.8019 5.94355 84.9918 5.82814 85.1883 5.76201C85.4798 5.66395 86.6168 5.14661 86.6168 5.10086C86.8813 5.10086 86.5847 5.05979 86.9031 5.05979C86.9031 4.93275 87.0472 5.0682 87.1067 5.05979C87.1067 4.97592 87.5148 4.9961 87.5148 4.85338C87.6168 4.85338 88.1275 4.7656 88.1275 4.68809C88.5631 4.68809 89.0416 4.55364 89.4946 4.50229C89.7658 4.47145 89.8588 4.4005 90.1678 4.42665C90.4158 4.44716 90.6425 4.33046 90.9434 4.2748C90.9434 4.15283 92.0455 4.25109 92.0455 4.06806C92.225 4.06806 93.2289 4.01479 93.2289 3.86165C93.6535 3.80021 94.125 3.7524 94.535 3.61417C94.6087 3.58898 94.8208 3.49502 94.8208 3.44888C94.9465 3.43301 95.433 3.36674 95.433 3.2836C95.6059 3.2836 96.6575 3.34432 96.6575 3.11831C96.846 3.11831 96.9324 3.03559 97.188 3.03559C97.188 3.02025 97.6556 2.91195 97.7185 2.91195C97.9254 2.91195 98.0543 2.82885 98.3104 2.82885C98.6132 2.82885 98.8853 2.76999 99.18 2.69847C99.3846 2.64956 101.066 2.71716 101.066 2.78773C101.405 2.78773 101.663 3.03559 102.046 3.03559C102.046 3.13643 102.127 3.01728 102.127 3.11831C102.311 3.11831 102.391 3.23784 102.529 3.3546C102.66 3.46423 103.196 4.02694 103.27 4.02694C103.387 4.51329 103.562 5.0508 104.004 5.34925C104.004 5.44081 104.14 5.65185 104.208 5.72094C104.282 5.79601 104.298 5.9109 104.331 6.01044C104.411 6.04965 104.494 6.1677 104.494 6.25787C104.526 6.25787 104.865 6.94427 104.879 7.02455C104.973 7.55685 104.689 8.96789 104.371 9.23215C104.229 9.31621 104.095 9.38907 103.926 9.40586C103.398 9.45797 103.004 9.57526 102.412 9.50057C102.151 9.46749 100.322 9.85223 100.188 9.85223C100.01 9.85223 99.779 9.93442 99.5962 9.93442C99.5962 9.9796 99.3284 10.0586 99.2698 10.0586C99.2698 10.1623 98.7757 10.1412 98.6576 10.1412C98.6576 10.0715 98.2589 10.2239 98.1474 10.2239C97.1398 10.2239 96.2153 10.4301 95.229 10.4301C94.6999 10.4301 92.6577 10.7282 92.6577 10.8019C92.5637 10.8019 92.2085 10.9317 92.2085 11.0087C92.0384 11.0087 91.9454 11.103 91.7323 11.1465C91.5453 11.1842 91.4413 11.422 91.2699 11.422C91.2127 11.5384 90.9316 11.7109 90.8211 11.7109C90.7616 11.829 90.6761 11.8105 90.5967 11.9174C90.4989 12.0485 90.3662 12.1243 90.2495 12.2888C90.1139 12.3997 89.9774 12.5094 89.8413 12.6196C89.7842 12.8013 89.727 12.9834 89.6699 13.1645C89.5929 13.412 89.4852 13.7538 89.2702 13.9004C89.2702 13.9994 89.0699 14.2691 88.9844 14.3338C88.7185 14.5358 88.7804 14.8225 88.7804 15.0569C89.0298 15.182 89.0699 15.4067 89.3841 15.4405C89.6557 15.4702 89.7993 15.3875 90.0454 15.3875C90.0454 15.3049 91.2699 15.3356 91.2699 15.1807C91.5127 15.1807 93.3923 14.8808 93.3923 14.768C93.7556 14.768 94.1014 14.6083 94.4533 14.5199C94.4533 14.3963 95.1472 14.3029 95.1472 14.1894C95.4089 14.1647 95.6617 14.1927 95.8006 13.983C95.8894 13.983 96.1714 13.8102 96.2087 13.7351C96.324 13.6959 96.9437 13.5493 96.9437 13.4456C97.0708 13.4456 97.2928 13.292 97.4832 13.2757C97.6641 13.2602 97.7534 13.3633 97.9225 13.3633C97.9225 13.3775 98.2286 13.5699 98.2901 13.5699C98.3562 13.7053 98.4927 13.6968 98.6306 13.7351C98.8404 13.793 98.7265 13.7743 98.882 13.9004C99.0152 14.008 99.0303 14.1115 99.1673 14.231C99.2594 14.3104 99.4328 14.4861 99.4328 14.6027C99.6709 14.7627 99.9637 15.3694 99.9637 15.6355C100.17 15.6355 100.304 16.4614 100.413 16.4614C100.413 16.5787 100.496 16.7724 100.617 16.8333C100.617 16.8906 100.76 17.2053 100.78 17.2053C100.78 17.4042 100.861 17.5928 100.861 17.7833C100.861 18.0065 100.861 18.1838 100.861 18.4445C100.68 18.4445 100.94 19.7248 100.78 19.7248C100.78 19.9284 100.599 20.3518 100.372 20.4685C100.372 20.7483 99.7611 20.9229 99.5556 20.9229C99.5556 21.0381 99.2287 20.9687 99.2287 21.0882C98.9585 21.1568 98.7747 21.2535 98.4738 21.274C98.0336 21.3039 97.8692 21.5517 97.4327 21.6252C97.4327 21.642 96.9579 21.7326 96.8615 21.7493C96.8615 21.8773 96.4945 21.8707 96.4945 21.9557C96.1544 21.9834 95.1808 22.1621 95.1071 22.1621C95.1071 22.325 91.747 22.658 91.5963 22.658C91.5963 22.7271 91.2713 22.7822 91.1886 22.7822C91.1886 22.7803 89.8012 22.9988 89.8012 22.8233C89.728 22.8233 89.6869 22.911 89.5631 22.9335C89.4063 22.9609 89.2499 22.9885 89.0935 23.016C88.7506 23.0763 88.4331 23.0506 88.0864 23.0297C88.0864 23.1843 87.0249 23.1576 87.0249 23.3191C86.8247 23.3191 86.6952 23.4013 86.4949 23.4013C86.3315 23.4013 86.168 23.4013 86.0046 23.4013C86.0046 23.4994 85.8062 23.6245 85.7193 23.6492Z" fill="#7B7B7B"/>
<path id="path28" fill-rule="evenodd" clip-rule="evenodd" d="M147.677 11.5039C147.677 11.5601 147.327 11.7936 147.269 11.7936C147.202 11.9327 146.888 12.0858 146.738 12.1234C146.698 12.2063 146.504 12.3305 146.412 12.3305C146.354 12.4461 146.206 12.4958 146.086 12.4958C146.086 12.5537 145.676 12.7229 145.596 12.7432C145.427 13.0029 145.079 13.0925 144.779 13.1878C144.447 13.2923 144.152 13.4455 143.8 13.4455C143.8 13.5847 143.221 13.5736 143.114 13.5753C142.827 13.5781 142.61 13.5762 142.372 13.4044C142.292 13.2843 142.25 13.3105 142.25 13.198C142.089 13.0887 142.189 13.0238 142.046 12.95C142.018 12.7983 141.947 12.1234 141.841 12.1234C141.841 11.9747 141.69 11.0492 141.596 11.0492C141.596 10.9507 141.567 10.4712 141.514 10.4712C141.525 10.2854 141.535 10.0994 141.545 9.9137C141.556 9.71949 141.473 9.63132 141.476 9.41205C141.482 9.09754 141.5 8.74062 141.857 8.67545C142.171 8.61755 142.46 8.61229 142.78 8.61229C143.02 8.57084 143.105 8.61229 143.351 8.61229C143.351 8.71074 143.8 8.67918 143.8 8.77758C144.104 8.77758 144.288 8.81927 144.575 8.81927C144.766 8.81927 144.926 8.90141 145.106 8.90141C145.342 8.90141 145.672 8.96773 145.963 8.98418C145.963 8.98676 146.37 9.11977 146.433 9.12871C146.737 9.17299 146.961 9.3562 147.229 9.3562C147.229 9.56256 148.062 9.54244 148.24 9.82219C148.315 9.94081 148.471 10.554 148.249 10.554C148.126 10.9307 148.022 11.2183 147.677 11.5039ZM179.921 5.18379C180.161 5.18379 180.409 7.16634 180.288 7.16634C180.288 7.24107 180.3 8.01334 180.282 8.28229C180.264 8.56581 180.203 8.86876 180.043 9.10782C179.961 9.17485 179.554 9.49348 179.554 9.47966C179.456 9.47966 178.86 9.82501 178.86 9.85207C178.489 9.85207 178.127 10.0994 177.717 10.0994C177.717 10.1145 176.609 10.2256 176.468 10.2733C175.825 10.4903 175.166 10.5713 174.533 10.6365C174.533 10.7975 173.513 10.6976 173.513 10.8433C173.093 10.8433 172.698 11.081 172.187 11.1116C172.008 11.1221 171.105 11.2613 171.105 11.3798C170.85 11.3976 170.574 11.463 170.37 11.463C170.37 11.5507 169.923 11.5984 169.799 11.6077C169.324 11.6413 169.102 11.7926 168.575 11.8757C168.575 11.9551 167.718 12.1234 167.595 12.1234C167.595 12.309 166.405 12.4 166.179 12.4302C165.979 12.4575 165.825 12.6194 165.635 12.6194C165.635 12.7143 165.105 12.7432 164.984 12.7432C164.984 12.8118 164.044 12.9229 164.044 13.0736C163.963 13.0736 163.636 13.1326 163.636 13.198C163.47 13.198 163.4 13.4044 163.228 13.4044C163.133 13.599 162.86 13.6958 162.86 13.9003C162.72 13.9946 162.589 14.1898 162.534 14.3545C162.508 14.4329 162.366 14.6847 162.33 14.6847C162.272 14.8631 162.215 14.8154 162.167 15.0153C162.086 15.0562 161.963 15.2077 161.963 15.3048C161.847 15.3825 161.595 15.6652 161.595 15.8006C161.48 15.8585 161.394 16.2545 161.35 16.2545C161.364 16.4061 161.378 16.558 161.391 16.7093C161.514 16.7503 161.636 16.7918 161.758 16.8331C161.9 17.0118 162.061 17.1635 162.248 17.1635C162.248 17.3518 163.423 17.1612 163.609 17.165C164.24 17.1771 164.822 17.1237 165.436 16.986C165.74 16.9179 166.018 16.9157 166.33 16.9157C166.33 16.812 166.824 16.8331 166.942 16.8331C166.942 16.7821 168.207 16.7587 168.207 16.585C168.336 16.5654 168.86 16.518 168.86 16.4198C169.092 16.3608 169.316 16.2134 169.554 16.2134C169.554 16.1859 170.254 15.8408 170.391 15.8212C170.535 15.8001 170.755 15.7231 170.82 15.5939C170.895 15.5939 171.089 15.4859 171.145 15.429C171.247 15.3276 171.444 15.2198 171.595 15.1805C171.679 15.053 172.085 14.8995 172.085 14.8089C172.469 14.8089 172.745 14.9546 173.097 15.1062C173.285 15.1881 173.676 15.4364 173.676 15.6765C173.805 15.6765 173.833 16.1721 173.962 16.1721C174.089 16.558 174.246 16.8727 174.33 17.2051C174.383 17.2051 174.616 17.9546 174.635 18.0727C174.65 18.1605 174.937 18.8985 174.942 18.8985C174.942 19.0422 175.111 20.51 174.942 20.51C174.942 20.6323 174.788 21.088 174.696 21.088C174.696 21.1521 174.568 21.4597 174.533 21.4597C174.533 21.6446 174.428 21.823 174.289 22.0107C174.196 22.1339 173.635 22.3795 173.635 22.4515C173.584 22.4515 173.269 22.6266 173.269 22.6578C173.076 22.6578 172.951 22.782 172.758 22.782C172.693 22.782 172.248 22.8866 172.248 22.9467C171.944 22.9467 171.674 22.989 171.374 23.0239C170.692 23.1033 168.754 23.466 168.423 23.4544C168.063 23.4422 161.656 24.434 161.156 24.434C160.594 24.434 160.29 24.5619 159.686 24.5909C159.309 24.609 159.073 24.8308 158.739 24.9439C158.597 24.9915 158.441 24.9961 158.371 25.1362C158.227 25.1362 158.27 25.2604 158.126 25.2604C157.995 25.4154 157.858 25.6312 157.718 25.7563C157.69 26.0047 157.718 26.1774 157.718 26.4169C157.799 26.4169 158.025 26.8984 158.126 26.975C158.239 27.0599 158.409 27.2402 158.493 27.3672C158.67 27.3672 158.924 27.5468 159.024 27.6977C159.144 27.6977 159.403 27.9213 159.473 28.0283C159.65 28.0283 159.691 28.1936 159.881 28.1936C159.881 28.2898 160.914 28.3981 161.108 28.4093C161.728 28.4458 162.364 28.3328 162.955 28.1464C163.061 28.1124 163.636 28.0666 163.636 27.9872C163.718 27.9662 164.085 27.8565 164.085 27.7799C164.338 27.7183 164.372 27.6152 164.656 27.5736C164.656 27.469 165.023 27.5128 165.023 27.4086C165.098 27.4086 165.391 27.3414 165.391 27.2844C165.684 27.2517 165.794 27.2635 165.962 27.0366C166.22 27.0366 166.462 26.7475 166.738 26.7475C166.738 26.7303 167.413 26.4585 167.513 26.4585C167.513 26.395 168.503 26.2372 168.656 26.2242C168.967 26.198 169.221 26.5603 169.452 26.7475C169.589 26.8586 169.649 27.0861 169.799 27.1608C169.83 27.285 169.96 27.7799 170.043 27.7799C170.129 28.1665 170.33 28.3742 170.33 28.6895C170.507 28.6895 170.452 30.2163 170.452 30.4651C170.592 30.4651 170.452 31.6342 170.452 31.7043C170.395 31.7043 170.357 32.4893 170.316 32.6135C170.241 32.8398 170.11 33.2214 169.921 33.3157C169.921 33.5384 169.417 33.8626 169.269 34.0385C169.181 34.1407 168.938 34.3075 168.819 34.3075C168.819 34.3401 168.586 34.4311 168.534 34.4311C168.46 34.5839 168.124 34.7212 167.962 34.7613C167.856 34.9751 167.293 35.133 167.106 35.133C167.106 35.2665 166.325 35.344 166.207 35.5878C166.018 35.5878 165.645 35.7979 165.418 35.8772C165.068 35.9996 164.779 36.0014 164.411 36.0014C164.411 36.1098 164.085 35.9996 164.085 36.1251C163.835 36.2026 162.636 36.0453 162.411 36.0354C162.083 36.0214 161.753 36.0127 161.423 35.9972C161.122 35.9831 160.832 35.8772 160.534 35.8772C160.424 35.8772 159.841 35.8922 159.841 35.7945C159.507 35.7945 159.192 35.612 158.882 35.5672C158.705 35.542 157.84 35.4378 157.84 35.2992C157.698 35.2992 157.582 35.2067 157.391 35.175C157.391 35.1427 157.076 34.9686 157.024 34.9686C156.942 34.7996 156.412 34.7651 156.412 34.6377C156.342 34.6377 155.963 34.4158 155.963 34.3896C155.762 34.3401 155.549 34.2356 155.432 34.06C155.227 34.06 155.153 33.7285 154.942 33.7285C154.783 33.5346 154.464 33.3839 154.371 33.1915C153.981 33.1915 153.805 32.5201 153.568 32.3109C153.378 32.1422 153.292 31.8412 153.106 31.7459C153.106 31.6218 153.021 31.6119 152.983 31.4568C152.834 31.3784 152.931 31.2435 152.78 31.1679C152.736 30.9924 152.576 30.8906 152.576 30.7131C152.531 30.7131 152.371 30.4152 152.371 30.3414C152.206 30.3414 152.045 29.0858 152.045 28.9164C152.045 28.5793 151.917 28.1039 151.85 27.6772C151.807 27.4008 151.781 27.1061 151.84 26.8296C151.792 26.4399 151.776 26.042 151.848 25.6526C151.905 25.3491 151.881 25.0326 151.881 24.7235C151.934 24.7235 151.963 24.2435 151.963 24.1449C152.032 24.1449 152.178 23.2368 152.188 23.0915C152.212 22.6765 152.452 22.3211 152.452 21.9556C152.425 21.9556 152.78 20.9461 152.78 20.8817C152.94 20.8817 152.96 20.0552 153.066 20.0552C153.066 19.9786 153.138 19.6008 153.188 19.6008C153.188 19.4191 153.197 19.1429 153.351 19.0638C153.39 18.8687 153.473 18.8197 153.473 18.6507C153.507 18.6507 153.637 18.3425 153.637 18.279C153.793 18.279 153.87 17.5357 154.003 17.5357C154.066 17.1551 154.178 16.9651 154.29 16.6265C154.335 16.4852 154.453 16.3501 154.453 16.2134C154.547 16.2134 154.635 15.3561 154.657 15.222C154.505 15.222 154.439 15.2112 154.371 15.4701C154.18 15.516 154.046 15.6765 153.881 15.6765C153.881 15.7151 153.555 15.8482 153.473 15.8623C153.274 15.8959 149.83 18.6586 149.738 18.7333C149.578 18.8627 149.515 18.9402 149.311 18.9402C149.311 19.0383 148.721 19.2287 148.616 19.2287C148.616 19.3455 148.208 19.2726 148.208 19.394C148.072 19.408 147.936 19.422 147.8 19.4355C147.764 19.508 147.681 19.5706 147.607 19.6092C147.496 19.6671 147.346 19.8152 147.269 19.9314C147.229 19.9314 146.821 20.1191 146.821 20.1383C146.683 20.1383 145.923 20.3242 145.923 20.4269C145.831 20.4403 145.351 20.5221 145.351 20.5922C145.186 20.6342 145.012 20.7575 144.861 20.7575C144.861 20.8807 144.249 20.9545 144.249 21.088C143.727 21.2203 143.124 21.4093 142.536 21.4821C142.322 21.5092 142.302 21.5858 142.168 21.7492C142.075 21.7492 142.113 21.8996 142.004 21.9556C141.938 22.2236 141.808 22.3538 141.786 22.6304C141.747 23.1499 141.66 23.5584 141.596 24.0623C141.443 24.0623 141.392 24.8331 141.392 25.012C141.343 25.012 141.355 26.6233 141.187 26.6233C141.187 26.7867 141.101 27.6977 140.943 27.6977C140.943 27.8724 140.893 29.4328 140.861 29.4328C140.861 29.5919 140.678 30.9195 140.78 30.9195C140.833 31.1134 140.793 31.3593 140.756 31.5526C140.717 31.7478 140.739 31.8757 140.739 32.1456C140.739 32.2306 140.493 33.8985 140.504 34.1085C140.516 34.2991 140.453 34.4115 140.453 34.5549C140.425 34.5549 140.313 34.7706 140.249 34.8239C140.106 34.9447 139.939 35.0265 139.841 35.175C139.708 35.175 139.569 35.3397 139.433 35.3397C139.433 35.4486 139.07 35.4636 138.984 35.4636C138.984 35.5807 137.754 35.6294 137.546 35.6294C137.326 35.6294 137.215 35.5414 136.984 35.4636C136.984 35.4187 136.727 35.2566 136.658 35.2566C136.59 35.1227 136.393 35.0719 136.29 34.9686C136.171 34.8476 135.937 34.8715 135.841 34.6786C135.645 34.6786 134.984 34.0161 134.984 33.8116C134.838 33.7378 134.855 32.804 134.658 32.7377C134.63 32.5307 134.604 32.324 134.576 32.1176C134.429 32.1176 134.647 30.3527 134.617 30.2589C134.519 29.9511 134.739 28.9411 134.739 28.6581C134.739 28.4607 134.653 28.3253 134.672 28.1385C134.692 27.9241 134.78 27.8341 134.78 27.6772C134.78 27.4736 134.704 25.7974 134.903 25.7974C134.903 25.5942 134.984 25.4818 134.984 25.2188C135.013 25.2188 135.117 23.7304 135.066 23.5254C134.983 23.4749 134.413 23.2023 134.413 23.1948C134.245 23.1948 134.108 22.9467 133.923 22.9467C133.795 22.7544 133.561 22.6718 133.412 22.4925C133.294 22.3487 132.944 22.1956 132.944 21.9967C132.9 21.9967 132.722 21.6325 132.658 21.5428C132.492 21.5428 132.3 21.2845 132.25 21.1291C132.039 21.0221 131.882 20.5589 131.882 20.3442C131.872 20.3442 131.637 19.6615 131.637 19.6008C131.58 19.6008 132.168 16.464 132.168 16.3376C132.275 16.3376 132.317 15.6765 132.454 15.6765C132.454 15.3804 133.053 15.0199 133.311 14.9331C133.555 14.85 133.692 14.8378 133.993 14.8715C134.116 14.8855 134.576 14.8027 134.576 14.7262C134.787 14.7262 135.016 14.615 135.229 14.5609C135.34 14.4301 135.429 14.2988 135.576 14.2098C135.718 14.1235 135.626 14.0897 135.759 14.0239C135.832 13.8041 135.974 13.5548 136.069 13.3054C136.188 12.9957 136.086 12.5708 136.098 12.2361C136.123 11.5087 136.164 10.784 136.209 10.0585C136.227 10.0585 135.869 9.61712 135.841 9.56257C135.727 9.54578 135.311 9.47182 135.311 9.39728C135.086 9.39728 134.975 9.34502 134.71 9.4524C134.448 9.55884 134.163 9.53455 133.882 9.54483C133.761 9.54894 133.23 9.54483 133.23 9.64495C133.039 9.64495 132.942 9.76897 132.76 9.76897C132.48 9.76897 132.195 10.141 131.882 10.141C131.882 10.1995 131.554 10.3891 131.474 10.3891C131.345 10.5864 131.175 10.6383 130.943 10.678C130.943 10.8205 130.047 10.9095 129.842 10.926C129.842 11.0483 128.64 10.8018 128.556 10.8018C128.277 10.8018 127.956 10.554 127.719 10.554C127.497 10.3452 127.236 10.1477 127.066 9.89314C126.746 9.86551 126.588 9.82348 126.382 9.98934C126.204 10.1322 126.197 10.4114 126.197 10.6178C126.197 10.8601 126.095 11.0427 126.029 11.2697C125.886 11.7618 126.426 11.9411 126.405 12.3716C126.382 12.8544 126.453 13.2002 126.425 13.6877C126.416 13.8506 126.416 14.031 126.372 14.1892C126.29 14.4852 126.414 14.8023 126.332 15.0984C126.347 15.7252 126.433 16.3899 126.309 17.0034C126.261 17.2438 126.332 17.3685 126.332 17.6179C126.332 17.9597 126.344 18.2925 126.348 18.6324C126.351 18.9028 126.232 19.1927 126.205 19.4654C126.172 19.7844 126.168 20.1066 126.169 20.4269C126.174 20.5427 126.241 21.2533 126.169 21.2533C126.169 21.5811 126.087 21.8519 126.087 22.1414C126.087 22.542 125.917 22.7852 125.951 23.2228C125.99 23.7392 125.931 24.377 125.869 25.0124C125.813 25.5923 125.732 26.1083 125.77 26.6444C125.785 26.8433 125.872 27.6561 126.005 27.6561C126.005 28.1697 126.087 28.8986 126.087 29.4123C126.087 29.5789 126.169 29.7102 126.169 29.8665C126.169 30.1313 126.17 30.5067 126.16 30.8349C126.155 31.0231 126.044 32.4476 125.964 32.4476C125.964 32.5849 125.812 33.4394 125.719 33.4394C125.719 33.51 125.439 34.1833 125.434 34.1833C125.434 34.258 125.368 34.5549 125.311 34.5549C125.311 34.7389 125.026 34.8949 125.026 35.0923C124.969 35.1408 124.495 35.4677 124.495 35.4225C124.308 35.4225 124.168 35.5579 123.941 35.5588C123.876 35.5592 121.998 35.5467 121.821 35.5467C121.377 35.5467 121.112 35.4439 120.699 35.3397C120.524 35.119 120.404 34.9664 120.189 34.7822C119.976 34.5992 119.848 34.3214 119.638 34.1627C119.536 34.0852 119.434 33.9199 119.434 33.8116C119.289 33.8116 119.343 33.1915 119.189 33.1915C119.189 33.0991 118.967 32.5313 118.903 32.5313C118.883 32.4109 118.814 31.8696 118.74 31.8696C118.74 31.4705 118.74 31.0717 118.74 30.672C118.629 30.672 118.601 29.7634 118.495 29.7634C118.495 29.6582 118.303 28.9369 118.21 28.9369C118.176 28.8333 118.004 28.3172 117.965 28.3172C117.905 28.0816 117.762 27.948 117.679 27.6977C117.558 27.6165 117.352 27.3821 117.352 27.243C117.173 27.1524 117.156 26.5822 116.985 26.5822C116.985 26.3805 116.714 26.2736 116.658 26.0449C116.485 25.9138 116.46 25.6773 116.291 25.591C116.291 25.507 116.042 25.1344 115.964 25.0952C115.964 24.866 115.779 24.8402 115.639 24.6613C115.588 24.5974 115.317 24.2276 115.312 24.2276C115.312 24.166 115.241 23.9796 115.189 23.9796C115.189 23.8531 115.073 23.6542 114.944 23.5459C114.687 23.3287 114.733 23.1107 114.577 22.8539C114.47 22.6784 114.291 22.4505 114.291 22.2862C114.204 22.2862 114.216 21.9393 114.087 21.8728C114.087 21.6319 113.679 21.5325 113.679 21.2944C113.503 21.2044 113.265 20.8533 113.108 20.6753C112.988 20.6753 112.985 20.5856 112.88 20.5128C112.744 20.4166 112.678 20.4123 112.507 20.4399C112.438 20.4512 112.291 20.4624 112.291 20.5511C112.111 20.5511 112.164 20.6753 112.006 20.6753C112.006 20.7864 111.883 20.7485 111.883 20.8817C111.748 20.9513 111.801 21.0703 111.801 21.2119C111.801 21.305 111.769 21.9145 111.679 21.9145C111.679 22.0895 111.346 23.5254 111.312 23.5254C111.312 23.9185 111.026 24.4564 111.026 24.8887C110.986 24.8887 110.781 25.4167 110.781 25.5079C110.607 25.5079 110.746 26.5822 110.577 26.5822C110.577 26.6808 110.691 27.6152 110.618 27.6152C110.618 28.273 110.496 28.6045 110.496 29.2156C110.496 29.5496 110.496 29.8833 110.496 30.2169C110.496 30.5263 110.347 30.834 110.25 31.1259C110.239 31.2402 110.213 31.9116 110.128 31.9116C110.128 32.1021 110.006 32.1662 110.006 32.366C109.965 32.366 109.761 32.9488 109.761 33.0272C109.408 33.198 109.42 33.7979 108.84 33.6519C108.71 33.6187 107.436 33.481 107.22 33.481C106.939 33.481 106.68 33.4394 106.414 33.4394C106.414 33.3493 105.369 33.3899 105.23 33.1088C105.03 33.0645 104.898 33.0808 104.782 32.9029C104.663 32.9029 104.64 32.7629 104.536 32.6755C104.274 32.4532 104.285 32.1124 104.235 31.7543C104.19 31.4353 103.993 31.2841 103.983 30.9512C103.976 30.7411 104.005 30.5291 104.037 30.3218C104.083 30.0187 103.978 29.7619 103.948 29.4659C103.927 29.2493 104.026 29.0425 104.069 28.8342C104.12 28.5793 104.042 28.4508 104.026 28.1936C104.016 28.0321 104.185 27.0777 104.128 27.0777C104.134 26.9647 104.13 26.2932 104.21 26.2932C104.21 26.2017 104.247 25.9216 104.332 25.9216C104.465 25.323 104.538 24.7776 104.591 24.0897C104.654 23.2704 104.985 22.8888 104.985 22.0381C105.135 22.0381 105.07 21.047 105.23 21.047C105.23 20.6775 105.475 20.278 105.475 19.8899C105.548 19.8899 105.742 18.6802 105.801 18.4854C105.801 18.0222 105.928 17.4937 106.052 16.9595C106.13 16.6252 106.201 16.289 106.285 15.9564C106.375 15.6049 106.358 15.3039 106.341 14.9415C106.325 14.6003 106.345 14.258 106.418 13.9236C106.486 13.6126 106.448 13.3273 106.477 13.0139C106.507 12.6947 106.496 12.3701 106.496 12.0477C106.496 11.8378 106.611 11.5741 106.585 11.3782C106.499 10.7345 106.457 10.1416 106.414 9.52092C106.347 9.52092 106.169 8.96491 106.169 8.86015C106.037 8.86015 105.991 7.45565 106.128 7.45565C106.128 7.30084 106.218 7.1628 106.237 6.94636C106.257 6.72446 106.248 6.69945 106.23 6.40249C106.198 5.84872 106.373 5.40512 106.373 4.87378C106.373 4.54506 106.536 4.19393 106.536 3.82023C106.511 3.82023 107.026 2.9706 107.026 2.87014C107.163 2.87014 107.236 2.62228 107.393 2.62228C107.483 2.50873 107.843 2.30944 107.843 2.25064C108.011 2.25064 108.094 2.15162 108.291 2.08535C108.291 2.04088 108.684 1.93631 108.781 1.92006C108.781 1.64829 110.053 1.87655 110.261 1.88922C110.584 1.90882 110.746 1.94918 111.026 2.04423C111.302 2.13651 111.473 2.38417 111.761 2.45699C111.761 2.61893 112.414 2.67311 112.414 2.78757C112.548 2.78757 112.76 2.86957 112.822 2.99398C112.97 2.99398 113.189 3.41645 113.189 3.53091C113.482 3.53091 113.417 4.85173 113.424 5.09041C113.427 5.18943 113.417 5.6797 113.516 5.6797C113.516 6.10925 113.524 6.53135 113.557 6.95998C113.567 7.10156 113.643 8.32336 113.638 8.32336C113.491 8.76883 113.638 9.29438 113.638 9.68678C113.704 9.68678 113.883 10.2755 113.883 10.3891C114.004 10.3891 113.895 10.7885 113.885 10.8755C113.864 11.0427 114.169 11.2187 114.169 11.3798C114.322 11.4592 114.414 11.7618 114.414 11.9172C114.431 11.9172 114.659 12.2903 114.659 12.3305C114.843 12.422 114.842 12.6452 115.026 12.7847C115.026 12.9618 115.282 13.1485 115.353 13.3631C115.497 13.8048 116.21 14.0787 116.21 14.5198C116.244 14.5198 116.373 14.7454 116.373 14.8089C116.57 14.9088 116.725 15.2571 116.903 15.4078C117 15.4897 117.189 15.7222 117.189 15.8417C117.35 15.9941 117.842 16.3236 117.842 16.544C117.982 16.6138 118.127 16.8736 118.169 17.0398C118.309 17.1622 118.781 17.5561 118.781 17.7421C119.083 17.9456 119.181 18.5577 119.637 18.5713C119.818 18.5766 119.86 18.6031 119.964 18.4443C120.064 18.4443 119.946 18.3612 120.046 18.3612C120.111 18.0792 120.229 17.8461 120.27 17.6384C120.288 17.5497 120.419 17.3288 120.332 17.3288C120.315 17.024 120.332 16.7074 120.332 16.4613C120.415 16.4613 120.523 15.1507 120.536 14.9331C120.7 14.9331 120.543 14.4101 120.516 14.3158C120.44 14.0422 120.536 13.8782 120.536 13.6523C120.559 13.6523 120.658 12.0102 120.658 11.8344C120.658 11.6366 120.678 10.3474 120.781 10.3474C120.781 10.1686 120.852 8.94253 120.944 8.94253C120.944 8.7477 120.993 7.95171 121.148 7.95171C121.183 7.66522 121.285 7.5313 121.147 7.25599C121.089 7.14095 121.108 6.29883 121.189 6.29883C121.154 5.65542 121.23 5.235 121.23 4.60522C121.366 4.60522 121.175 3.94459 121.311 3.94459C121.354 3.59575 121.439 3.46646 121.658 3.20072C121.921 2.8819 122.318 2.69548 122.74 2.53957C122.83 2.53957 123.352 2.45982 123.352 2.53957C123.521 2.53957 123.876 2.60923 123.964 2.78757C124.412 2.78757 124.851 3.036 125.148 3.38657C125.233 3.48702 125.392 3.56863 125.392 3.69639C125.471 3.69639 125.464 3.81482 125.556 3.86149C125.556 4.01559 125.733 4.09778 125.842 4.19206C125.842 4.30395 125.949 4.41621 126.046 4.48138C126.046 4.53574 126.136 4.7705 126.169 4.7705C126.169 4.97839 126.25 5.21554 126.25 5.41071C126.25 5.65542 126.587 6.23347 126.929 6.19235C127.163 6.16376 127.191 5.96639 127.352 5.845C127.352 5.77533 127.521 5.51437 127.556 5.51437C127.556 5.33359 127.74 5.15205 127.859 5.01851C128.04 4.81588 128.259 4.4427 128.519 4.35176C128.97 4.19393 130.035 4.06694 130.25 3.90294C130.287 3.7541 130.514 3.36601 130.698 3.36601C130.775 3.20593 131.759 3.00235 131.759 2.99398C132.104 3.02328 132.949 2.74445 133.188 2.66374C133.621 2.51772 138.658 1.97046 138.658 2.20952C138.87 2.20952 141.18 2.21516 141.408 2.22577C141.695 2.23978 144.861 2.37108 144.861 2.41592C144.983 2.41592 145.067 2.50275 145.195 2.4897C145.384 2.47043 146.934 2.7465 147.218 2.7465C147.667 2.7465 147.876 2.87722 148.342 2.89142C148.517 2.89721 150.289 3.22181 150.289 3.28344C150.438 3.28344 150.643 3.47115 150.82 3.53091C150.82 3.54961 151.537 3.671 151.637 3.69639C151.637 3.77557 152.239 4.02678 152.33 4.02678C152.33 4.13828 152.738 4.28119 152.738 4.48138C152.895 4.55946 153.228 4.84107 153.228 5.01851C153.55 5.1782 153.539 5.68157 153.84 5.88587C153.84 6.04576 153.963 5.9925 153.963 6.17519C154.043 6.17519 153.975 6.28482 154.085 6.34048C154.123 6.53416 154.251 6.83949 154.411 6.91834C154.411 7.05805 154.535 7.08363 154.574 7.24949C154.663 7.24949 154.668 7.49415 154.684 7.56586C154.731 7.78829 154.861 8.10806 154.861 8.28229C155.021 8.28229 155.146 8.88052 155.146 9.02544C155.146 9.43653 155.31 9.85078 155.31 10.2238C155.31 10.4227 155.391 10.6119 155.391 10.8018C155.391 11.0194 155.391 11.2995 155.391 11.5866C155.26 11.5866 155.261 12.6947 155.19 12.9042C155.066 13.274 154.826 14.3121 155.531 14.017C155.659 13.9638 155.881 13.7873 155.881 13.6523C156.038 13.5112 156.371 13.2722 156.371 13.0736C156.542 12.9855 156.515 12.7109 156.697 12.6194C156.697 12.4276 156.861 12.3856 156.861 12.2063C157.042 12.0853 157.041 11.8038 157.228 11.7108C157.228 11.6299 157.415 11.2977 157.473 11.2977C157.473 11.1762 157.74 10.554 157.799 10.554C157.799 10.4488 157.996 9.72785 158.044 9.72785C158.105 9.29085 158.34 9.1302 158.412 8.69486C158.487 8.69486 158.534 8.44758 158.534 8.36448C158.67 8.29539 158.649 8.16462 158.78 8.05441C158.938 7.92087 158.916 7.84246 158.943 7.6417C158.971 7.42578 159.106 7.24385 159.106 7.08415C159.271 6.99919 159.238 6.82549 159.351 6.71193C159.489 6.57241 159.526 6.41927 159.717 6.25771C159.717 6.18116 159.773 5.96826 159.841 5.96826C159.841 5.58576 160.378 5.36123 160.656 5.26598C160.656 5.18943 161.56 5.05962 161.677 5.05962C161.677 5.03476 162.639 4.81157 162.738 4.81157C162.937 4.81157 164.126 4.73182 164.126 4.64667C164.49 4.64667 166.056 4.19206 166.125 4.19206C166.125 4.06694 171.855 2.66374 172.085 2.66374C172.085 2.55075 174.533 2.01382 174.533 1.96113C174.645 1.95123 175.227 1.91389 175.227 1.79584C175.426 1.79584 175.518 1.67239 175.717 1.67239C175.717 1.681 177.105 1.3433 177.105 1.46565C177.229 1.46565 177.595 1.47368 177.595 1.58929C177.788 1.58929 177.9 1.8373 178.085 1.8373C178.266 2.04796 178.449 2.25064 178.697 2.25064C178.697 2.28554 178.843 2.32254 178.9 2.39536C178.997 2.51585 179.526 3.79053 179.569 4.07722C179.595 4.25819 179.896 5.08855 179.921 5.18379Z" fill="#7B7B7B"/>
<path id="path30" fill-rule="evenodd" clip-rule="evenodd" d="M235.673 25.4257C235.833 25.4257 236.596 25.5493 236.796 25.5493C236.872 25.5493 237.102 25.4038 237.102 25.5493C237.365 25.638 237.524 25.7563 237.755 25.7563C238.004 25.7563 238.149 25.8679 238.341 25.8491C238.528 25.8313 238.692 25.7716 238.879 25.8907C239.017 25.978 239.105 26.1886 239.102 26.3321C239.099 26.466 239.096 26.6303 239.02 26.7474C238.948 26.8087 235.682 27.2429 235.551 27.2429C235.551 27.4503 232.028 27.6342 231.625 27.6719C231.517 27.6828 231.184 27.6641 231.184 27.5735C230.936 27.5567 230.43 27.637 230.367 27.4499C230.258 27.4499 230.294 27.326 230.164 27.326C230.164 27.2377 229.961 27.2439 229.891 27.2293C229.816 27.214 229.429 26.9964 229.429 26.9538C229.158 26.8871 228.412 26.4594 228.509 26.0956C228.574 25.8491 228.769 25.6448 228.969 25.5007C229.242 25.3043 229.475 25.3588 229.796 25.3846C229.796 25.2589 230.401 25.4378 230.49 25.4527C230.562 25.4649 230.817 25.4597 230.817 25.5493C230.977 25.5331 233.28 25.3846 233.837 25.3846C233.837 25.5306 235.28 25.2234 235.673 25.4257ZM190.288 11.3387C190.587 11.422 190.596 11.9494 190.633 12.1969C190.659 12.3781 190.751 13.776 190.818 13.776C190.809 13.9432 190.827 15.2636 190.737 15.2636C190.737 15.7029 190.614 16.0144 190.614 16.3786C190.452 16.4608 190.573 16.5839 190.41 16.6681C190.41 16.7858 190.138 17.0706 190.042 17.1429C189.766 17.3526 189.537 17.3894 189.168 17.3272C188.853 17.2745 188.542 17.4963 188.224 17.534C188.07 17.5529 187.472 17.5412 187.472 17.3704C187.036 17.0165 187.328 16.5777 187.43 16.1721C187.483 16.1721 187.553 15.894 187.553 15.8417C187.675 15.8417 187.692 15.4284 187.798 15.4284C187.798 15.3 188.01 14.8462 188.165 14.7678C188.165 14.5483 188.369 14.3494 188.369 14.1066C188.507 14.1066 188.498 13.5663 188.655 13.4869C188.655 13.3067 188.881 13.1737 188.941 12.9916C189.016 12.7628 189.095 12.7049 189.145 12.4957C189.163 12.4957 189.486 11.9009 189.512 11.7935C189.637 11.7935 189.509 11.5455 189.635 11.5455C189.635 11.2909 190.108 11.1504 190.288 11.3387ZM192.696 3.24175C192.89 3.24175 192.997 3.57792 193.144 3.65509C193.163 3.7281 194.079 5.04744 194.274 5.22487C194.389 5.32982 194.573 5.54182 194.573 5.67966C194.678 5.73192 194.9 6.10639 194.9 6.21641C195.024 6.27919 195.072 6.46145 195.103 6.6088C195.154 6.83706 195.43 6.96348 195.43 7.1663C195.54 7.22143 195.634 7.49688 195.634 7.6209C195.709 7.6209 195.797 7.90123 195.797 7.99274C195.933 7.99274 196.004 9.66116 196.022 9.81058C196.073 10.2278 196.287 10.5481 196.287 10.9259C196.439 10.9259 196.455 11.8756 196.573 11.8756C196.573 11.9737 196.823 13.0327 196.859 13.0327C196.859 13.2129 196.95 14.1066 197.063 14.1066C197.072 14.1897 197.126 14.6846 197.185 14.6846C197.185 14.8869 197.267 14.9536 197.267 15.1189C197.267 15.3805 197.313 16.0695 197.745 16.1237C197.985 16.1536 198.205 15.7048 198.205 15.5526C198.265 15.5526 198.348 15.3057 198.369 15.222C198.589 15.1086 198.563 14.7089 198.778 14.6025C198.859 14.3494 199.028 14.2149 199.104 13.9828C199.179 13.7536 199.246 13.6274 199.43 13.4869C199.43 13.3904 199.592 13.1563 199.675 13.1152C199.714 12.9617 199.798 12.9496 199.798 12.8263C199.86 12.7838 200.042 12.6033 200.042 12.5368C200.298 12.5368 200.358 12.0821 200.614 12.0821C200.683 11.9414 201.178 11.5246 201.24 11.3527C201.301 11.1803 201.291 11.0679 201.471 11.0085C201.471 10.9941 201.768 10.7607 201.838 10.7607C201.838 10.6975 202.21 10.4557 202.287 10.4299C202.484 10.3638 202.696 10.3244 202.696 10.2237C202.846 10.2237 203.578 9.6778 203.634 9.56252C203.844 9.56252 203.918 9.23195 204.124 9.23195C204.185 9.13766 204.614 8.94808 204.614 8.90137C204.82 8.85059 204.842 8.78036 205.062 8.73646C205.12 8.61655 205.552 8.47837 205.552 8.40551C205.612 8.40551 205.797 8.33455 205.797 8.28224C205.955 8.24208 206.295 8.09716 206.369 7.95167C206.677 7.95167 207.045 7.56415 207.369 7.51744C207.685 7.47149 207.928 7.28865 208.246 7.20775C208.246 7.16353 208.739 7.02061 208.817 7.00101C208.817 6.9805 209.503 6.846 209.621 6.82267C209.798 6.78681 209.912 6.72834 210.083 6.67043C210.169 6.64151 210.45 6.50534 210.45 6.46408C211.069 6.35946 212.375 5.96821 212.45 5.96821C212.45 5.92059 212.884 5.88583 212.981 5.88583C212.981 5.83745 213.316 5.76181 213.388 5.76181C213.388 5.71605 214.054 5.67966 214.164 5.67966C214.164 5.4942 216.13 5.37782 216.298 5.37744C216.498 5.37706 216.637 5.39016 216.797 5.39016C217.022 5.39016 217.156 5.30739 217.429 5.30739C217.648 5.30739 218.008 5.34981 218.236 5.47268C218.388 5.55545 218.541 5.63797 218.695 5.72074C218.748 5.82903 218.939 5.80383 218.939 5.88583C219.199 5.95215 219.382 6.22502 219.538 6.45045C219.682 6.65925 219.888 6.72313 220.069 6.93231C220.219 7.10563 220.323 7.30022 220.49 7.41473C220.49 7.56711 220.572 7.48009 220.572 7.66216C220.572 7.86948 220.789 7.96884 220.939 8.09587C221.195 8.31213 221.183 8.75851 221.47 8.90137C221.59 9.09955 221.608 9.38136 221.633 9.60364C221.757 9.60364 221.888 10.1904 221.919 10.3059C222.059 10.3059 222.114 11.2425 222.141 11.4433C222.197 11.856 222.123 12.2754 222.123 12.6194C222.123 12.8356 222.171 13.9828 222.001 13.9828C222.001 14.0692 221.98 14.4781 221.919 14.4781C221.919 14.6632 221.796 14.7659 221.796 14.9331C221.709 14.9331 221.537 15.9071 221.388 16.007C221.388 16.1293 221.317 16.1433 221.225 16.2133C221.128 16.5153 220.909 16.6345 220.817 16.9436C220.762 17.1296 220.704 17.0874 220.653 17.2871C220.541 17.387 220.327 17.503 220.327 17.6589C220.236 17.7054 220.082 17.9282 220.082 18.031C219.853 18.1468 219.768 18.4443 219.511 18.4443C219.511 18.4994 218.282 18.5263 218.164 18.5263C218.164 18.66 217.628 18.4628 217.552 18.4443C217.46 18.2631 217.378 18.3201 217.246 18.3201C217.081 18.3201 216.246 18.3677 216.246 18.1548C216.063 18.1548 215.962 17.9185 215.756 17.8657C215.704 17.7551 215.452 17.6589 215.348 17.6589C215.348 17.6393 215.116 17.474 215.048 17.4376C214.953 17.3862 214.849 17.3427 214.768 17.2686C214.711 17.2178 214.674 17.155 214.654 17.0809C214.571 17.0635 214.506 17.0196 214.457 16.949C214.278 16.6709 214.215 16.1874 214.27 15.8678C214.28 15.8034 214.327 15.1151 214.327 14.8499C214.386 14.8499 214.33 14.4372 214.287 14.4372C214.287 14.2579 214.404 13.3127 214.539 13.0532C214.671 12.7977 214.654 12.5611 214.654 12.2682C214.654 12.0867 214.534 11.6702 214.368 11.5865C214.368 11.4315 214.053 11.2976 213.92 11.2976C213.703 11.2976 213.309 11.2705 213.103 11.3387C213.103 11.3849 212.762 11.5117 212.675 11.5246C212.47 11.5544 212.243 11.6282 212.042 11.6282C212.042 11.6633 211.748 11.7746 211.674 11.7935C211.674 11.8624 211.221 11.919 211.103 11.9588C210.852 12.0436 210.789 12.2641 210.532 12.3304C210.532 12.4733 210.124 12.4528 210.124 12.5368C209.893 12.5835 209.845 12.69 209.634 12.7432C209.442 12.9866 209.267 13.0327 209.062 13.2805C208.751 13.3848 208.66 13.4772 208.409 13.6931C208.409 13.8769 208.105 14.0048 208.001 14.1271C207.828 14.3326 207.645 14.3804 207.47 14.6025C207.344 14.6025 206.899 15.0526 206.899 15.1805C206.713 15.3068 206.681 15.4909 206.491 15.6353C206.491 15.8155 206.206 15.9052 206.206 16.0895C205.994 16.2768 205.838 16.4263 205.756 16.6681C205.652 16.7214 205.389 17.0422 205.389 17.1634C205.238 17.2406 205.102 17.5362 205.062 17.7009C204.902 17.8308 204.853 17.9923 204.695 18.0726C204.695 18.2165 204.573 18.28 204.573 18.4028C204.537 18.4028 204.244 18.7838 204.226 18.8776C204.206 18.9811 204.024 19.5593 203.96 19.5593C203.96 19.8729 203.69 20.128 203.661 20.5651C203.642 20.8428 203.706 21.1117 203.684 21.398C203.68 21.4657 203.586 21.7075 203.716 21.7075C203.716 21.9453 204.006 22.025 204.124 22.2034C204.384 22.2693 204.445 22.4402 204.673 22.5476C204.783 22.599 204.847 22.6428 204.92 22.7403C205.01 22.8608 205.117 22.8128 205.185 22.9467C205.377 22.9467 205.467 23.2773 205.634 23.2773C205.726 23.4599 205.996 23.4687 206.144 23.6495C206.275 23.8083 207.144 24.2388 207.144 24.434C207.282 24.434 207.513 24.6422 207.594 24.7645C207.733 24.7645 207.645 24.9298 207.838 24.9298C207.901 24.9298 208.124 24.9569 208.124 25.012C208.237 25.012 208.434 25.1455 208.491 25.2604C208.656 25.2604 208.795 25.5022 208.981 25.5493C208.981 25.723 209.716 25.7968 209.716 25.9215C209.957 25.9215 210.181 26.169 210.41 26.169C210.41 26.3048 211.144 26.3601 211.144 26.4996C211.491 26.5215 211.793 26.5394 212.124 26.6503C212.45 26.7614 212.731 26.8712 213.076 26.8712C213.286 26.8712 214.205 26.9114 214.205 26.8296C214.367 26.8296 215.511 26.8451 215.511 26.7474C215.735 26.7474 215.83 26.6649 216.041 26.6649C216.041 26.551 216.596 26.5504 216.736 26.5407C216.736 26.4776 217.292 26.2107 217.389 26.2107C217.435 26.1161 217.552 26.1251 217.552 26.0448C217.746 26.0448 217.799 25.8973 217.919 25.7563C218.049 25.7563 218.468 25.4966 218.552 25.3846C218.683 25.2081 218.956 24.9298 219.185 24.9298C219.227 24.842 219.489 24.7234 219.593 24.7234C219.593 24.6024 219.997 24.6496 220.082 24.6818C220.082 24.7832 220.164 24.6636 220.164 24.7645C220.356 24.7645 220.395 24.9401 220.49 25.0951C220.651 25.1493 220.722 25.131 220.776 25.3015C220.869 25.3485 220.833 25.4257 220.899 25.4257C220.899 25.554 221.143 25.6507 221.143 25.7142C221.486 25.9822 222.001 25.5536 222.001 25.2604C222.321 25.2604 222.013 22.6578 222.163 22.6578C222.163 22.3418 222.409 21.9686 222.409 21.625C222.539 21.625 222.531 20.6752 222.694 20.6752C222.694 20.3557 222.868 20.1125 222.98 19.7661C223.094 19.7661 223.097 18.8985 223.266 18.8985C223.266 18.7684 223.558 17.8242 223.634 17.8242C223.634 17.7159 223.942 16.7503 224 16.7503C224 16.6915 224.079 16.4197 224.123 16.4197C224.123 16.3637 224.279 16.007 224.327 16.007C224.355 15.8351 224.637 15.0984 224.735 15.0984C224.735 14.8462 224.992 14.587 225.041 14.3339C225.07 14.1897 225.225 14.0401 225.225 13.9002C225.294 13.9002 225.419 13.494 225.551 13.4044C225.551 13.2764 225.588 13.3371 225.633 13.1563C225.688 13.1563 225.7 12.9098 225.718 12.839C225.794 12.5258 225.802 12.1874 225.714 11.8756C225.714 11.631 225.653 11.4414 225.631 11.205C225.615 11.0389 225.714 10.8242 225.714 10.5954C225.765 10.5954 225.882 9.85203 226.001 9.85203C226.001 9.69606 226.269 9.0254 226.409 9.0254C226.461 8.81732 226.535 8.3859 226.715 8.24041C226.851 8.13006 226.985 7.78638 227.184 7.78638C227.31 7.59494 227.489 7.55573 227.654 7.35196C227.838 7.12427 227.949 7.04247 228.205 7.04247C228.205 6.91418 229.044 6.84132 229.225 6.78232C229.552 6.67641 229.878 6.57051 230.204 6.46408C230.572 6.46408 230.806 6.41756 231.163 6.39217C231.574 6.36229 234.694 5.77954 234.694 5.84495C235.063 5.84495 237.772 5.27249 238.398 5.23496C238.97 5.20154 239.571 4.8997 240.204 4.86719C240.409 4.85581 241.755 4.81583 241.755 4.68789C242.309 4.68789 242.687 4.64662 243.143 4.64662C243.143 4.53474 244.098 4.48134 244.265 4.48134C244.714 4.48134 246.827 4.07345 246.98 4.04729C247.173 4.01459 247.68 4.00006 247.888 3.90443C248.09 3.81101 249.84 3.46121 250.04 3.44868C250.04 3.31141 250.775 3.21282 250.775 3.07684C250.925 3.07684 251.959 2.98552 251.959 2.91175C252.285 2.86393 252.508 2.82114 252.824 2.92801C252.97 2.97806 253.117 3.02755 253.264 3.07684C253.376 3.20216 253.542 3.4898 253.714 3.4898C253.793 3.59719 253.999 3.75965 253.999 3.86145C254.215 4.04356 254.411 4.30539 254.612 4.43988C254.612 4.58184 254.775 4.65055 254.775 4.81153C254.88 4.81153 255.004 5.23888 255.142 5.30739C255.227 5.56945 255.437 5.71978 255.51 6.01024C255.553 6.01024 255.754 6.48985 255.754 6.58825C255.806 6.58825 255.905 7.1663 255.999 7.1663C255.986 7.33106 256.234 10.5539 255.999 10.5539C255.999 10.7937 255.981 10.9633 255.756 11.1108C255.549 11.2453 255.262 11.3882 255.041 11.3176C254.817 11.2462 254.822 11.2976 254.612 11.2976C254.253 11.2976 253.951 11.2567 253.601 11.1734C253.195 11.0763 251.591 10.967 251.061 10.967C250.774 11.0492 250.472 11.0492 250.176 11.0492C249.896 11.0492 249.719 11.1323 249.469 11.1323C249.216 11.1323 249.016 11.179 248.77 11.2182C248.518 11.2584 248.385 11.1827 248.183 11.1529C248.115 11.143 247.795 11.1958 247.795 11.2559C247.479 11.2559 247.041 11.177 246.743 11.2802C246.527 11.3555 245.148 11.3443 244.928 11.4013C244.775 11.4409 244.533 11.5189 244.407 11.5038C244.127 11.4689 243.962 11.4527 243.69 11.5389C243.414 11.6263 243.214 11.5455 243 11.5455C242.763 11.5455 242.46 11.5778 242.163 11.6282C242.163 11.7141 241.308 11.7104 241.179 11.713C241.002 11.7179 239.592 11.8803 239.592 11.8756C239.385 11.8953 237.714 11.9974 237.714 11.9999C237.215 12.0494 237.038 12.2006 236.545 12.2202C236.349 12.2275 233.469 12.591 233.469 12.7021C233.191 12.7725 233.235 12.8721 233.02 13.0532C232.727 13.3007 232.543 13.4258 232.245 13.6522C232.245 13.7979 232.02 14.0059 231.959 14.1892C231.863 14.1892 231.894 14.4372 231.796 14.4372C231.796 14.6623 231.186 15.4924 231.17 15.6904C231.138 16.1162 231.181 16.3506 231.511 16.6265C231.969 16.6265 232.367 16.7503 232.857 16.7503C232.857 16.8375 233.422 16.8176 233.51 16.8123C233.853 16.7931 234.124 16.8491 234.49 16.8745C234.962 16.8745 235.394 16.9235 235.888 16.9996C236.136 17.037 236.29 16.9567 236.49 16.9567C236.49 16.8893 237.169 16.8833 237.26 16.8861C237.38 16.8904 238.508 16.7092 238.694 16.7092C238.694 16.7503 239.644 16.4799 239.755 16.4612C240.029 16.046 240.458 16.0592 240.898 16.1721C240.898 16.1689 241.256 16.3376 241.306 16.3376C241.361 16.4111 241.673 16.5985 241.673 16.6265C241.749 16.6265 242 16.7148 242 16.7918C242.2 16.7918 242.271 17.093 242.408 17.1634C242.408 17.2602 243.755 19.3464 243.755 19.5182C243.95 19.6206 243.959 19.9916 243.959 20.1794C243.959 20.4388 244.04 20.5583 244.04 20.778C244.04 21.0843 244.044 21.3905 244.045 21.6969C244.046 21.9284 244.011 23.0295 243.795 23.0295C243.795 23.1863 243.729 23.3062 243.592 23.422C243.412 23.5733 242.979 24.0384 242.979 24.3101C242.894 24.5161 242.122 24.9793 242.122 25.054C241.783 25.054 241.504 25.1661 241.183 25.2744C240.97 25.3463 240.779 25.5079 240.612 25.5079C240.612 25.5914 240.295 25.7012 240.224 25.7973C239.942 26.1774 240.443 26.663 240.735 26.9333C240.89 27.0777 241.051 27.2121 241.102 27.4086C241.387 27.4652 241.59 27.7182 241.673 27.9872C241.673 28.5503 241.578 31.25 241.47 31.25C241.47 31.3989 240.984 32.9612 240.642 33.0962C240.464 33.1663 238.852 33.9768 238.531 33.9768C238.531 34.3158 232.244 34.9349 231.47 34.9312C231.357 34.9307 230.204 34.9975 230.204 34.8438C229.811 34.8438 229.337 34.7164 228.98 34.5963C228.817 34.5418 226.991 34.1309 226.817 33.7699C226.708 33.7699 226.444 33.5566 226.368 33.4604C226.293 33.3642 225.942 33.1504 225.838 33.1504C225.775 33.0265 225.677 33.0281 225.551 32.9851C225.474 32.8861 225.438 32.7787 225.307 32.7787C225.18 32.5849 224.915 32.3996 224.735 32.2007C224.665 32.2007 224.409 32.0382 224.409 31.9943C224.262 31.8944 224.336 31.8527 224.204 31.7873C224.204 31.5707 224.01 31.5548 223.918 31.3742C223.748 31.3742 223.499 31.0505 223.388 30.9194C223.297 30.8724 223.103 30.5973 223.103 30.5067C222.921 30.3605 222.906 30.226 222.776 30.0939C222.712 30.0286 222.368 29.8805 222.368 29.9286C222.047 29.9286 221.886 30.672 221.755 30.672C221.755 30.8171 221.598 30.9712 221.572 31.1268C221.559 31.2005 221.437 31.6217 221.348 31.6217C221.348 31.7506 221.114 32.259 220.98 32.3239C220.98 32.4033 220.592 33.0271 220.572 33.0271C220.572 33.1439 220.406 33.359 220.307 33.4393C220.109 33.6005 220.122 33.8395 219.919 33.9768C219.708 34.2262 219.508 34.3055 219.307 34.5222C219.079 34.7673 218.821 35.132 218.511 35.1955C218.205 35.2581 218.014 35.4635 217.695 35.4635C217.517 35.4635 217.383 35.5522 217.143 35.5672C216.782 35.589 216.463 35.6447 216.066 35.6624C215.583 35.683 214.979 35.5644 214.442 35.5382C214.164 35.5251 213.857 35.4635 213.634 35.4635C213.436 35.4635 213.342 35.3397 213.144 35.3397C213.077 35.3397 212.613 35.4346 212.613 35.2992C212.394 35.2618 212.343 35.1843 212.164 35.1544C211.845 35.1003 211.625 34.9054 211.294 34.8718C211.033 34.8453 210.928 34.7323 210.695 34.6925C210.598 34.6763 210.124 34.5979 210.124 34.4727C210.038 34.4615 209.593 34.4096 209.593 34.3074C209.41 34.3074 209.304 34.1515 209.103 34.1005C209.103 33.9927 208.287 33.8134 208.287 33.7699C208.211 33.7699 207.879 33.698 207.879 33.6046C207.664 33.6046 207.509 33.274 207.267 33.274C207.267 33.2027 206.788 32.9851 206.695 32.9851C206.695 32.9412 206.4 32.7787 206.328 32.7787C206.219 32.5617 205.943 32.6256 205.838 32.407C205.737 32.407 205.515 32.252 205.471 32.1586C205.391 32.1586 205.251 32.102 205.185 32.0348C205.096 31.9452 204.908 31.8318 204.777 31.7873C204.6 31.5707 204.448 31.4932 204.246 31.3742C204.092 31.3742 203.824 31.1523 203.716 31.0231C203.582 30.8662 203.441 30.7719 203.267 30.7131C203.191 30.5627 202.969 30.502 202.858 30.3614C202.684 30.1416 202.437 30.1136 202.287 29.8866C201.942 29.6401 201.671 29.2348 201.307 29.1433C201.009 28.7641 200.65 28.6185 200.342 28.2617C200.212 28.1133 200.133 28.1058 200.083 27.9041C199.986 27.8247 199.879 27.7896 199.879 27.656C199.797 27.5548 199.7 27.6249 199.634 27.4908C199.514 27.4908 198.941 26.7349 198.941 26.5407C198.618 26.2973 198.579 25.859 198.247 25.632C198.247 25.4935 198.166 25.5639 198.166 25.4257C198.004 25.3173 198.021 25.1988 197.89 25.054C197.778 24.9298 197.665 24.8056 197.553 24.6818C197.43 24.6818 197.308 24.6818 197.185 24.6818C197.197 24.7776 197.169 24.819 197.104 24.8062C197.104 24.9339 196.841 25.7973 196.777 25.7973C196.746 26.4669 196.608 27.1294 196.628 27.7995C196.646 28.3813 196.859 28.9593 196.859 29.529C196.859 30.2418 196.94 30.9124 196.94 31.581C196.811 31.581 196.87 32.6359 196.845 32.8295C196.822 33.0122 196.781 33.2867 196.614 33.3984C196.614 33.5221 196.455 33.8713 196.423 34.0332C196.361 34.3476 196.185 34.5767 195.975 34.8559C195.852 35.0199 195.654 35.1498 195.471 35.2566C195.471 35.3658 195.144 35.3957 195.144 35.4635C195.045 35.4635 194.491 35.5012 194.491 35.4224C194.253 35.4224 194.471 35.3813 194.288 35.3813C194.288 35.287 194.024 35.3841 193.961 35.3948C193.757 35.4293 193.644 35.3496 193.444 35.3122C193.315 35.2889 192.777 35.1214 192.777 35.0097C192.525 35.0097 192.06 34.8547 191.9 34.638C191.794 34.4942 191.554 34.2047 191.43 34.1421C191.375 33.9703 191.144 33.8194 191.144 33.6462C190.761 33.4455 190.798 32.6891 190.777 32.2829C190.579 31.5741 190.65 30.7756 190.626 30.0463C190.611 29.556 190.603 29.0176 190.682 28.5787C190.78 28.0367 190.737 27.5066 190.737 26.9263C190.737 26.5799 190.366 26.0962 190.002 26.0037C190.002 25.7749 188.574 25.8291 188.574 25.9215C187.962 25.9066 187.261 25.9215 186.716 25.9215C186.641 25.9215 185.921 26.141 185.921 26.169C185.588 26.169 185.318 26.3343 185.023 26.3343C185.023 26.3474 183.955 26.6042 183.799 26.6232C183.799 26.7022 182.941 26.7134 182.941 26.8712C182.872 26.8712 182.656 26.9749 182.656 27.0365C182.459 27.0855 182.339 27.2018 182.166 27.2018C181.951 27.4549 181.706 27.6641 181.484 27.9078C181.406 27.9947 181.199 28.5232 181.145 28.5232C181.115 28.6176 180.946 28.9369 180.9 28.9369C180.9 29.09 180.737 29.1838 180.737 29.3502C180.586 29.4505 180.596 29.6494 180.451 29.7217C180.451 29.7727 180.286 30.1345 180.288 30.1345C180.256 30.367 180.166 30.4843 180.166 30.672C180.061 30.672 179.627 32.0765 179.512 32.0765C179.462 32.286 179.402 32.2384 179.349 32.4476C179.2 32.5477 179.248 32.6648 179.105 32.7376C178.982 33.0807 178.808 33.3054 178.697 33.6462C178.604 33.6924 178.64 33.7699 178.575 33.7699C178.575 33.9156 178.43 33.9862 178.329 34.0799C178.094 34.2981 177.896 34.4288 177.676 34.6785C177.433 34.7603 177.121 35.2095 176.833 34.9555C176.652 34.7949 174.608 33.7475 174.37 33.6874C174.259 33.537 174.003 33.4412 174.003 33.274C173.773 33.1597 173.639 32.2829 173.554 32.2829C173.495 31.858 173.348 31.4194 173.329 30.9488C173.324 30.8438 173.352 30.5481 173.432 30.5481C173.432 30.4006 173.385 29.7633 173.512 29.7633C173.614 29.3585 173.758 29.0546 173.88 28.532C173.963 28.1777 174.37 27.8705 174.37 27.4908C174.431 27.4908 174.533 27.2724 174.533 27.2018C174.714 27.0804 174.715 26.9297 174.901 26.7885C174.901 26.6994 175.024 26.4165 175.105 26.376C175.105 26.259 175.444 25.8384 175.513 25.8384C175.513 25.6619 175.792 25.181 175.962 25.0951C176.074 24.7471 176.411 24.4097 176.411 24.0623C176.586 24.0623 176.607 23.36 176.737 23.36C176.737 23.2097 176.869 23.0575 176.9 22.8642C176.99 22.8642 177.064 22.5046 177.064 22.4098C177.293 22.4098 177.313 21.4186 177.471 21.4186C177.471 21.2561 177.554 21.1393 177.554 20.9087C177.554 20.6865 177.488 20.4788 177.536 20.199C177.579 19.9562 177.613 19.7231 177.635 19.4771C177.748 19.2593 178.004 19.1073 178.166 18.9261C178.308 18.7664 178.365 18.6621 178.575 18.6096C178.672 18.4583 178.789 18.5069 178.86 18.3612C179.047 18.3612 179.251 18.059 179.417 17.9073C179.632 17.7122 179.776 17.4822 179.872 17.1881C179.916 17.0566 180.024 16.585 180.124 16.585C180.124 16.445 180.435 15.8912 180.533 15.8417C180.533 15.6204 180.774 15.4401 180.86 15.1805C180.962 14.8686 181.136 14.7565 181.227 14.3955C181.337 14.34 181.431 14.0665 181.431 13.9413C181.478 13.9413 181.634 13.5842 181.716 13.5278C181.716 13.3477 181.953 13.2544 181.982 13.0532C181.992 12.9794 182.173 12.4957 182.247 12.4957C182.247 12.3342 182.385 12.1988 182.451 11.9999C182.584 11.9312 182.548 11.6282 182.656 11.6282C182.656 11.4405 182.812 11.2817 182.86 11.0907C182.97 11.0352 183.057 10.7196 183.145 10.7196C183.145 10.5033 183.472 10.2844 183.472 10.0584C183.582 10.0584 183.59 9.70768 183.717 9.6449C183.837 9.15014 184.41 8.92097 184.41 8.40551C184.501 8.35975 184.655 8.17204 184.655 8.07512C184.793 7.98155 184.858 7.87173 184.901 7.70329C185.154 7.57515 185.195 7.12054 185.431 7.00101C185.431 6.91323 185.704 6.46408 185.757 6.46408C185.864 6.14751 186.533 5.83185 186.533 5.51433C186.587 5.51433 186.696 5.32757 186.696 5.26594C186.848 5.12308 187.001 4.97983 187.153 4.8362C187.313 4.68602 187.456 4.52021 187.604 4.35731C187.763 4.18308 188.007 4.13226 188.084 3.9029C188.265 3.75592 188.599 3.55984 188.696 3.36597C188.841 3.36597 188.946 3.1138 189.063 3.01483C189.24 2.86599 189.287 2.76271 189.512 2.70462C189.767 2.20111 190.68 2.51151 191.063 2.56061C191.125 2.56845 191.349 2.60862 191.349 2.6637C191.477 2.6637 191.725 2.68143 191.89 2.73336C192.146 2.81464 192.615 2.93508 192.696 3.24175Z" fill="#7B7B7B"/>
<path id="path32" d="M46.7824 10.7605C46.7515 11.0342 46.6598 11.1606 46.6598 11.3797C46.6176 11.3797 46.4146 11.776 46.4146 11.8343C46.3249 11.8793 46.1291 12.1921 46.1291 12.2885C46.0409 12.3563 45.8831 12.6193 45.8435 12.6193C45.766 12.8589 45.5528 13.0232 45.3535 13.2081C45.2045 13.3458 44.9736 13.8174 44.7825 13.8174C44.7357 13.9098 44.6192 13.9038 44.6192 13.9827C44.4671 13.9827 44.3851 14.162 44.2924 14.2718C44.1883 14.2718 43.8847 14.5192 43.8235 14.6024C43.7458 14.706 43.612 14.7649 43.4969 14.7882C43.2926 14.8293 43.0748 14.8792 42.8143 14.837C42.615 14.805 42.6194 14.5622 42.6194 14.3954C42.4954 14.3954 42.7054 13.0875 42.7278 12.9498C42.7657 12.7179 42.8641 12.59 42.8641 12.4129C43.0071 12.4129 42.8433 11.669 42.9864 11.669C42.9864 11.4077 43.0682 11.3395 43.0682 11.0906C43.1444 11.0906 43.1088 10.4184 43.1088 10.3058C43.2212 9.91264 43.1134 9.59904 43.0878 9.19545C43.0748 8.99746 43.1889 8.15792 43.2723 8.15792C43.2723 7.95252 43.5629 7.58178 43.7618 7.41463C44.2104 7.42113 44.4211 7.66205 44.823 7.66205C44.823 7.7125 45.4872 7.9824 45.639 8.03375C45.8005 8.25097 46.0684 8.35309 46.2107 8.57069C46.3871 8.57069 46.4532 8.81721 46.5779 8.90126C46.5779 8.9704 46.7134 9.27296 46.7414 9.27296C46.8313 9.54936 46.8748 9.69935 46.8944 10.0166C46.9001 10.107 46.9534 10.7605 46.7824 10.7605ZM56.0063 27.5734C55.9903 27.5734 55.8325 27.0878 55.8023 26.9954C55.6804 26.8964 55.491 26.7769 55.4347 26.6648C55.2255 26.5938 55.2562 26.2514 55.0266 26.2514C54.9038 26.1418 54.8169 25.9859 54.7002 25.8383C54.2741 25.7309 54.2061 25.1897 53.8026 25.0539C53.5962 24.9839 53.5173 24.8568 53.3123 24.8061C53.2759 24.7308 52.993 24.558 52.9041 24.558C52.7837 24.375 52.6358 24.3741 52.496 24.1864C52.4247 24.1864 52.0472 23.9454 52.0472 23.8969C51.8181 23.839 51.7747 23.773 51.5167 23.773C51.3835 23.6176 51.1062 23.1535 50.9045 23.1535C50.8644 23.0732 50.5427 22.8641 50.4553 22.8641C50.2899 22.6633 50.1383 22.5811 49.9654 22.3887C49.7812 22.1842 49.7103 21.9741 49.5166 21.8107C49.3555 21.6753 49.0268 21.453 49.0268 21.2532C48.8968 21.2532 48.9252 20.818 48.9663 20.7293C49.0376 20.5761 49.1675 20.4762 49.288 20.366C49.4264 20.2396 49.5166 20.0775 49.5166 19.9312C49.6309 19.9312 50.2777 19.2434 50.3712 19.0839C50.4907 18.8808 50.6022 18.7652 50.7817 18.6095C50.8237 18.481 50.8228 18.3827 50.9451 18.32C50.9636 18.227 51.0595 17.8656 51.1497 17.8656C51.1497 17.6794 51.4567 17.5085 51.4964 17.3081C51.5517 17.0266 51.8432 16.8342 51.8432 16.5438C51.9296 16.5438 52.129 15.7448 52.129 15.6352C52.2726 15.6352 52.1077 14.8913 52.2518 14.8913C52.2518 14.8199 52.3321 14.478 52.3737 14.478C52.4289 14.254 52.5371 14.1769 52.5371 13.9617C52.5371 13.7535 52.6486 13.5701 52.7001 13.363C52.7284 13.363 52.8229 13.0469 52.8229 12.9915C52.9358 12.9915 52.9041 12.5263 52.9041 12.4021C52.9041 12.1172 52.8834 11.7644 52.8975 11.4211C52.907 11.2022 52.8229 11.1303 52.8229 10.8848C52.8059 10.8848 52.9197 10.0583 52.7001 10.0583C52.7001 9.68195 52.5371 9.40927 52.5371 9.06655C52.4809 9.06655 52.2919 8.46703 52.2919 8.36433C52.2097 8.36433 52.1436 7.90485 52.129 7.78627C52.0713 7.78627 51.9655 7.49863 51.9655 7.41463C51.7543 7.41463 51.7973 6.46397 51.5574 6.46397C51.5574 6.25197 51.2309 6.13263 51.2309 5.92698C51.152 5.92698 50.511 4.82787 50.4553 4.52249C50.3972 4.52249 50.2649 4.20033 50.1903 4.1092C50.067 3.95921 49.639 3.6152 49.639 3.44857C49.4921 3.34754 49.357 2.99383 49.1496 2.99383C48.9082 2.71011 48.8161 2.66134 48.4689 2.55342C48.1141 2.44283 48.2487 2.2645 48.0267 2.0852C47.7882 1.89093 47.7149 1.83714 47.3945 1.79569C47.3945 1.63786 46.4967 1.68644 46.4967 1.54821C46.0286 1.54821 45.5907 1.30021 45.1491 1.30021C45.1491 1.23537 44.7845 1.08878 44.711 1.08319C44.5579 1.07291 44.4047 1.06263 44.2514 1.05235C44.1938 0.934155 44.1291 0.952805 44.0071 0.928516C44.0071 0.785271 43.2566 0.639584 43.1088 0.639584C43.1088 0.63681 42.0516 0.474297 41.9459 0.474297C41.7001 0.474297 40.4968 0.534443 40.4968 0.763226C40.3202 0.763226 40.2986 0.845989 40.0883 0.845989C40.0883 0.879986 39.5522 0.928516 39.4762 0.928516C39.4762 1.06822 38.7418 1.08596 38.7418 1.21764C38.5065 1.21764 38.1967 1.40253 37.9662 1.63136C37.8837 1.75462 37.6162 2.00243 37.4763 2.00243C37.3794 2.201 37.0683 2.32703 37.0683 2.53942C36.5911 2.86679 36.5708 3.58532 36.2722 4.08864C36.0119 4.52809 35.9175 4.85775 35.9417 5.34893C35.9651 5.82706 35.8902 6.1879 36.0294 6.68807C36.0868 6.89538 36.1298 7.11728 36.1298 7.29022C36.1789 7.29022 36.2931 7.62079 36.2931 7.70318C36.3388 7.70318 36.4962 8.06081 36.5785 8.11685C36.5785 8.21434 36.7243 8.4381 36.8232 8.48854C36.8232 8.57069 37.165 9.03294 37.2316 9.06655C37.3089 9.18331 37.5569 9.35998 37.5822 9.49615C37.5979 9.58168 37.7298 10.0583 37.5986 10.0583C37.5986 10.2296 37.5113 10.3015 37.4763 10.5125C37.3074 10.5125 37.1497 11.325 37.1497 11.4628C37.0375 11.4628 37.0037 12.3303 36.8642 12.3303C36.8642 12.9532 36.4008 13.3451 36.3133 13.9617C36.2772 14.2185 36.17 14.4156 36.17 14.6024C36.1182 14.6024 36.0478 14.7891 36.0478 14.8498C35.9886 14.8498 35.9251 15.0983 35.8439 15.1393C35.8439 15.313 35.6223 15.4335 35.5175 15.5937C35.4147 15.5937 35.2922 15.6557 35.1499 15.6763C35.1499 15.7674 34.851 15.7172 34.7829 15.7172C34.7829 15.7912 34.376 15.8005 34.293 15.8005C34.293 15.798 33.9313 16.061 33.8826 16.1862C33.789 16.4271 33.842 16.6326 33.5892 16.7835C33.362 16.9192 33.2511 16.965 33.2111 17.205C33.1709 17.4496 33.1265 17.733 33.109 18.0309C33.0384 18.2871 33.0889 18.5697 33.0878 18.8317C33.0869 19.1238 33.0145 19.406 33.041 19.7002C33.0674 19.9968 33.1655 20.2753 33.2723 20.5509C33.3036 20.7349 33.3952 20.8335 33.3952 20.9637C33.5449 21.0397 33.6671 21.3774 33.7213 21.5427C33.8996 21.6855 33.9937 21.812 34.1297 21.9965C34.1876 21.9965 34.3227 22.3271 34.4155 22.3271C34.4155 22.6138 34.4412 22.799 34.4155 23.1125C34.3528 23.1125 34.3216 24.6 34.3088 24.7812C34.2666 25.3662 34.0889 25.9102 34.0889 26.4167C34.0889 26.526 33.9296 27.6151 33.885 27.6151C33.885 28.0627 33.8768 28.6561 33.8232 29.1575C33.8158 29.2257 33.663 29.7216 33.8032 29.7216C33.8169 30.0798 33.8306 30.4375 33.8442 30.7961C33.8883 30.7961 34.0974 31.6136 34.1297 31.7458C34.1618 31.7458 34.2522 32.0521 34.2522 32.1175C34.2684 32.1175 34.4969 32.4531 34.4969 32.5311C34.6927 32.6604 34.6635 32.8836 34.8643 32.985C34.8643 33.1226 35.1021 33.2679 35.2112 33.3567C35.5946 33.6677 35.8207 34.1579 36.3333 34.2554C36.7175 34.3278 37.5582 34.3213 37.5582 34.4309C37.7125 34.4465 37.8994 34.4455 38.0071 34.4309C38.395 34.4571 38.5816 34.4987 38.9051 34.2656C38.9051 34.1387 39.1195 33.7862 39.2315 33.7283C39.2315 33.5606 39.4352 33.5173 39.4352 33.357C39.5744 33.2875 39.5389 32.9028 39.6395 32.9028C39.6395 32.7413 39.8028 32.5928 39.8028 32.4069C39.8699 32.4069 39.7622 31.1556 39.7622 31.0024C39.5989 31.0024 39.6579 29.9332 39.6498 29.7838C39.6356 29.5204 39.5581 29.1908 39.5581 28.9368C39.5581 28.7214 39.4352 28.4858 39.4352 28.2598C39.4352 27.96 39.4603 27.6602 39.393 27.3689C39.3422 27.1494 39.2876 26.887 39.3538 26.6648C39.4105 26.6648 39.5989 25.6469 39.5989 25.5492C39.717 25.5492 40.0475 24.7463 40.0475 24.6408C40.2006 24.5636 40.2768 24.2807 40.4728 24.2443C40.7535 24.192 40.7808 24.1841 41.0273 24.4067C41.1775 24.5421 41.3764 24.9708 41.5986 24.9708C41.6767 25.1286 41.9952 25.3518 42.1455 25.5161C42.305 25.6898 42.4666 25.6432 42.6191 25.7972C42.7008 25.8804 42.8951 25.9704 43.0274 26.0036C43.1865 26.332 43.6826 26.4009 43.8845 26.7059C44.0194 26.7059 44.3398 27.0034 44.4355 27.119C44.576 27.2895 44.787 27.423 44.9862 27.4906C45.0624 27.6468 45.2919 27.706 45.3944 27.8629C45.6126 28.0282 45.7529 28.1561 45.9422 28.3236C46.083 28.4479 46.288 28.7715 46.4558 28.7715C46.5971 28.9343 46.7899 29.2319 46.9457 29.3085C47.0586 29.4629 47.2512 29.554 47.3125 29.6801C47.5098 29.8295 47.543 30.0023 47.7211 30.1624C47.8623 30.2894 48.1013 30.713 48.2917 30.713C48.2917 30.8829 48.6366 31.0579 48.7003 31.2499C48.9172 31.4492 49.1297 31.6375 49.3126 31.8694C49.4968 31.8694 49.7117 32.1726 49.8431 32.3238C50.0792 32.3238 50.1803 32.7375 50.4146 32.7375C50.4146 32.7958 50.7482 32.9224 50.8431 32.9433C51.222 33.0283 51.4199 33.2349 51.8809 33.2185C52.0312 33.2123 52.9041 33.2838 52.9041 33.1086C53.1285 33.1086 53.7242 32.7935 53.8026 32.4891C53.9325 32.4499 54.0624 32.3659 54.1697 32.3659C54.2561 32.1856 54.4961 32.0683 54.4961 31.8694C54.5358 31.8009 54.6255 31.6216 54.6591 31.6216C54.7092 31.4208 54.986 31.2975 54.986 31.1257C55.1154 31.0131 55.4347 30.7619 55.4347 30.5893C55.5401 30.4967 55.6794 30.5103 55.6794 30.3413C55.9785 30.1392 56.047 29.725 56.047 29.391C56.047 28.827 56.0063 28.1272 56.0063 27.5734Z" fill="#7B7B7B"/>
</g>
</g>
<defs>
<clipPath id="clip0_1358_2695">
<rect width="255.814" height="40" fill="white" transform="translate(0.285156)"/>
</clipPath>
</defs>
</svg>
