<svg width="16" height="16" viewBox="0 0 16 16" fill="none" xmlns="http://www.w3.org/2000/svg">
<g id="Social Media icons / Behance">
<g id="Group">
<path id="Vector" d="M6.58254 7.52037C6.91457 7.35336 7.16559 7.16734 7.3376 6.96633C7.64363 6.6043 7.79464 6.12426 7.79464 5.52921C7.79464 4.95016 7.64363 4.45512 7.3416 4.04009C6.83756 3.36403 5.98449 3.018 4.77839 3H0V12.7538H4.45537C4.95741 12.7538 5.42245 12.7108 5.85248 12.6228C6.28252 12.5338 6.65455 12.3708 6.96957 12.1327C7.2496 11.9257 7.48361 11.6687 7.66963 11.3657C7.96365 10.9076 8.11067 10.3886 8.11067 9.81056C8.11067 9.25051 7.98166 8.77347 7.72563 8.38144C7.46661 7.98941 7.08658 7.70239 6.58254 7.52037ZM1.97116 4.69414H4.12334C4.59638 4.69414 4.98641 4.74514 5.29243 4.84615C5.64646 4.99316 5.82348 5.29219 5.82348 5.74823C5.82348 6.15726 5.68847 6.44328 5.42145 6.6043C5.15242 6.76531 4.80339 6.84632 4.37536 6.84632H1.97116V4.69414ZM5.37444 10.8896C5.13642 11.0047 4.80139 11.0617 4.37236 11.0617H1.97116V8.46045H4.40536C4.8294 8.46345 5.15942 8.51945 5.39544 8.62446C5.81548 8.81448 6.0245 9.1625 6.0245 9.67155C6.0245 10.2716 5.80848 10.6756 5.37444 10.8896Z" fill="white"/>
<path id="Vector_2" d="M14.4639 3.45508H10.2266V4.66918H14.4639V3.45508Z" fill="white"/>
<path id="Vector_3" d="M15.9337 8.24683C15.8457 7.68178 15.6517 7.18474 15.3496 6.75571C15.0186 6.26967 14.5986 5.91364 14.0875 5.68862C13.5785 5.4626 13.0054 5.34959 12.3674 5.35059C11.2963 5.35059 10.4262 5.68562 9.75318 6.35067C9.08212 7.01773 8.74609 7.97681 8.74609 9.22691C8.74609 10.56 9.11712 11.5231 9.86319 12.1141C10.6062 12.7062 11.4643 13.0012 12.4384 13.0012C13.6175 13.0012 14.5346 12.6502 15.1896 11.9501C15.6087 11.5081 15.8457 11.0731 15.8977 10.646H13.9455C13.8325 10.857 13.7015 11.0221 13.5515 11.1421C13.2795 11.3621 12.9254 11.4721 12.4914 11.4721C12.0784 11.4721 11.7283 11.3811 11.4363 11.2001C10.9543 10.91 10.7023 10.402 10.6703 9.67895H15.9977C16.0057 9.0559 15.9857 8.57686 15.9337 8.24683ZM10.7183 8.43385C10.7883 7.96481 10.9583 7.59278 11.2283 7.31775C11.4983 7.04373 11.8804 6.90572 12.3694 6.90472C12.8204 6.90472 13.1975 7.03373 13.5045 7.29275C13.8075 7.55377 13.9785 7.9328 14.0135 8.43385H10.7183Z" fill="white"/>
</g>
</g>
</svg>
