<svg width="262" height="32" viewBox="0 0 262 32" fill="none" xmlns="http://www.w3.org/2000/svg">
<path d="M26.0784 0.541992H27.9701V31.4572H21.7545V14.5081L14.0526 22.7793L6.3507 14.5081V31.5928H0V0.541992H1.8917L13.9175 13.9657L26.0784 0.541992Z" fill="white"/>
<path d="M51.616 0.541992C72.5598 0.541992 72.5598 31.9996 51.616 31.9996C30.6723 31.9996 30.6723 0.541992 51.616 0.541992ZM51.616 6.77928C39.4551 6.77928 39.4551 25.6267 51.616 25.6267C63.777 25.6267 63.9121 6.77928 51.616 6.77928Z" fill="white"/>
<path d="M80.2621 31.4578V7.05106H72.6953V1.08496H94.0445V7.18666H86.4777V31.5934C86.3426 31.4578 80.2621 31.4578 80.2621 31.4578Z" fill="white"/>
<path d="M100.665 31.4578V1.08496H106.881V31.5934L100.665 31.4578Z" fill="white"/>
<path d="M130.392 0.541992C151.336 0.541992 151.336 31.9996 130.392 31.9996C109.449 31.9996 109.449 0.541992 130.392 0.541992ZM130.392 6.77928C118.232 6.77928 118.232 25.6267 130.392 25.6267C142.553 25.6267 142.553 6.77928 130.392 6.77928Z" fill="white"/>
<path d="M169.172 31.4578V19.39H160.119V31.4578H153.903V1.08496H160.119V13.2884H169.172V1.08496H175.388V31.5934L169.172 31.4578Z" fill="white"/>
<path d="M184.306 31.4578V1.08496H199.439V7.18666H190.251V13.2884H198.223V19.5256H190.251V25.6273H199.98V31.729C199.98 31.4578 184.306 31.4578 184.306 31.4578Z" fill="white"/>
<path d="M217.951 0H218.491L231.328 31.5932H224.437L223.22 28.339H213.222L212.005 31.5932H205.114L217.951 0ZM221.059 22.5085L218.356 14.6441L215.519 22.5085H221.059Z" fill="white"/>
<path d="M246.867 31.4578H237.813V1.08496H246.867C267.135 1.08496 267.135 31.4578 246.867 31.4578ZM243.894 7.18666V25.4917H246.867C258.757 25.4917 258.757 7.18666 246.867 7.18666H243.894Z" fill="white"/>
</svg>
