<svg width="16" height="16" viewBox="0 0 16 16" fill="none" xmlns="http://www.w3.org/2000/svg">
<g id="Group">
<path id="Vector" d="M5.89453 0.582656C6.50925 1.31672 8.01453 3.23144 9.21844 5.70669C10.7236 5.28328 12.3041 4.53244 13.8556 3.28816L14.2302 2.98775C12.7626 1.16709 10.5153 0 8.00006 0C7.19769 0 6.42272 0.11925 5.69141 0.340094L5.89453 0.582656Z" fill="white"/>
<path id="Vector_2" d="M14.4416 4.01964C12.9471 5.2182 11.3335 6.07333 9.61816 6.57992C9.8572 7.13392 10.0654 7.68402 10.2423 8.2282C11.8195 8.09405 13.601 8.31492 15.5426 8.88623L15.9369 9.00227C15.9781 8.67389 15.9995 8.33945 15.9995 8.00011C15.9995 6.44036 15.5504 4.98377 14.7754 3.75195L14.4416 4.01964Z" fill="white"/>
<path id="Vector_3" d="M0.972844 5.32534C1.76781 5.62684 3.52959 6.17868 5.75091 6.17874C6.54684 6.17877 7.40184 6.10777 8.29247 5.92918C7.1875 3.71493 5.84684 1.98555 5.17591 1.1843L4.75906 0.686523C2.81922 1.54962 1.28412 3.1624 0.523438 5.1549L0.972844 5.32534Z" fill="white"/>
<path id="Vector_4" d="M3.079 13.9069C3.43141 12.8578 4.31431 10.9001 6.26809 9.57613C7.15828 8.97294 8.17825 8.56375 9.30709 8.35425C9.12912 7.82437 8.92656 7.30956 8.70806 6.81403C7.86747 6.99847 7.00422 7.10269 6.11994 7.12484C6.00153 7.12784 5.88391 7.12928 5.76772 7.12928C3.44319 7.12931 1.57253 6.55591 0.640156 6.20228L0.240656 6.05078C0.0837813 6.675 0 7.32794 0 8.00016C0 10.509 1.16122 12.7514 2.97406 14.2193L3.079 13.9069Z" fill="white"/>
<path id="Vector_5" d="M15.2785 9.78511C13.4083 9.23479 11.8359 9.06317 10.5146 9.15042C10.6336 9.60339 10.7299 10.0513 10.8031 10.4928C11.0852 12.1947 11.0276 13.8218 10.6316 15.3289L10.5663 15.5775C13.1256 14.7085 15.1065 12.5768 15.7646 9.92814L15.2785 9.78511Z" fill="white"/>
<path id="Vector_6" d="M9.72445 15.0912C10.2443 13.1126 10.0832 11.1137 9.58186 9.26074C5.89836 9.89812 4.4738 12.6977 3.96736 14.2054L3.77148 14.7885C4.99911 15.5559 6.44839 16.0002 7.9997 16.0002C8.52089 16.0002 9.03042 15.9495 9.52411 15.8539L9.72445 15.0912Z" fill="white"/>
</g>
</svg>
