<svg width="16" height="16" viewBox="0 0 16 16" fill="none" xmlns="http://www.w3.org/2000/svg">
<g id="Social Media icons / Vimeo" clip-path="url(#clip0_1358_2011)">
<path id="Vector" d="M13.6647 1.00361C11.446 0.922942 9.94733 2.19494 9.15667 4.79961C9.56333 4.61761 9.95867 4.53628 10.3413 4.53628C11.154 4.53628 11.5133 5.00094 11.4173 5.92428C11.3693 6.48361 11.012 7.29694 10.3427 8.36694C9.67 9.43694 9.16733 9.97294 8.83267 9.97294C7.818 9.97294 7.208 5.11694 7.00133 3.79094C6.714 1.94761 5.948 1.08561 4.70333 1.20628C3.56067 1.31494 1.56667 3.37228 0 4.76694L0.752667 5.74828C1.46933 5.24028 1.88733 4.98561 2.00667 4.98561C3.254 4.98561 3.858 9.23028 4.82667 12.3869C5.47667 14.1289 6.256 15.0003 7.19533 15.0003C8.70467 15.0003 10.5433 13.5709 12.722 10.7109C14.8253 7.97294 15.9147 5.81494 15.9847 4.24094L15.9933 4.23428C16.0827 2.12428 15.3127 1.04428 13.6647 1.00361Z" fill="white"/>
</g>
<defs>
<clipPath id="clip0_1358_2011">
<rect width="16" height="16" fill="white"/>
</clipPath>
</defs>
</svg>
