<svg width="16" height="16" viewBox="0 0 16 16" fill="none" xmlns="http://www.w3.org/2000/svg">
<g clip-path="url(#clip0_1358_2566)">
<path d="M15.9953 0.399411C15.9891 0.182777 15.8158 0.00637458 15.596 0.00018502C14.0641 -0.0245732 12.4115 0.3468 10.8146 1.08026C9.2239 1.80754 7.8034 2.84119 6.70475 4.06363C4.56626 4.11314 2.468 5.01372 0.945371 6.53636C0.837054 6.64467 0.796822 6.8087 0.843243 6.95415C0.89276 7.1027 1.01655 7.20792 1.17129 7.22959L3.57284 7.57311L3.3562 7.81759C3.21384 7.97852 3.22003 8.2261 3.37168 8.37775L7.61462 12.6207C7.69199 12.6981 7.79411 12.7383 7.90243 12.7383C8.00456 12.7383 8.1005 12.7012 8.17168 12.6362L8.41616 12.4164L8.75968 14.818C8.77825 14.9603 8.88966 15.0841 9.0475 15.1367C9.08464 15.1491 9.12487 15.1553 9.1651 15.1553C9.27961 15.1553 9.39411 15.1058 9.47458 15.0253C10.9848 13.5151 11.8761 11.4261 11.9256 9.28452C13.1543 8.18278 14.191 6.76227 14.9183 5.17465C15.661 3.57775 16.0324 1.92514 15.9953 0.399411ZM11.056 10.0675C10.8765 11.4478 10.3225 12.7476 9.44982 13.84L9.15272 11.7665L11.056 10.0675ZM5.92796 4.94254L4.22893 6.84583L2.15543 6.54873C3.22932 5.68839 4.56007 5.12204 5.92796 4.94254ZM4.64982 7.59786C4.68386 7.57001 4.71172 7.53906 4.73647 7.50193L7.1504 4.79709L7.17516 4.76924C7.19682 4.75067 7.2123 4.72901 7.22777 4.70734C9.23628 2.41411 12.3496 0.891481 15.1813 0.817206C15.1071 3.65202 13.5813 6.76846 11.285 8.77697C11.2695 8.78935 11.2541 8.80173 11.2417 8.81411L11.2231 8.82959C11.2169 8.83578 11.2077 8.84196 11.1984 8.85125L8.49663 11.2621C8.46259 11.2837 8.42854 11.3116 8.40379 11.3456L7.921 11.7758L4.22274 8.07446L4.64982 7.59786Z" fill="#9762FD"/>
<path d="M11.3847 6.33829C11.8458 6.33829 12.2822 6.1588 12.6071 5.83384C13.2787 5.15918 13.2787 4.06363 12.6071 3.38897C12.2822 3.06402 11.8458 2.88452 11.3847 2.88452C10.9236 2.88452 10.4872 3.06402 10.1622 3.38897C9.48758 4.06363 9.48758 5.15918 10.1622 5.83384C10.4903 6.1588 10.9236 6.33829 11.3847 6.33829ZM11.3847 3.69845C11.6292 3.69845 11.8582 3.79439 12.0315 3.9646C12.3874 4.3205 12.3874 4.89922 12.0315 5.25512C11.6756 5.61102 11.0969 5.61102 10.741 5.25512C10.3851 4.89922 10.3851 4.3205 10.741 3.9646C10.9112 3.79439 11.1402 3.69845 11.3847 3.69845Z" fill="#9762FD"/>
<path d="M3.31932 10.5657C2.75297 10.5657 2.22067 10.7854 1.82144 11.1846C1.10036 11.9026 0.125505 15.1119 0.0171878 15.474C-0.0261391 15.6164 0.014093 15.7742 0.119315 15.8794C0.196685 15.9568 0.298813 15.997 0.40713 15.997C0.444267 15.997 0.484499 15.9908 0.524731 15.9815C0.889915 15.8732 4.0992 14.8953 4.81719 14.1773C5.21641 13.7781 5.43614 13.2458 5.43614 12.6794C5.43614 12.1131 5.21641 11.5808 4.81719 11.1815C4.41487 10.7854 3.88566 10.5657 3.31932 10.5657ZM4.23846 13.6017C3.88875 13.9514 2.31042 14.5487 1.02918 14.9695C1.44697 13.6883 2.04736 12.11 2.39707 11.7603C2.64465 11.5158 2.96961 11.3796 3.31932 11.3796C3.66593 11.3796 3.99398 11.5158 4.23846 11.7603C4.74601 12.2678 4.74601 13.0941 4.23846 13.6017Z" fill="#9762FD"/>
</g>
<defs>
<clipPath id="clip0_1358_2566">
<rect width="16" height="16" fill="white"/>
</clipPath>
</defs>
</svg>
