<svg width="165" height="38" viewBox="0 0 165 38" fill="none" xmlns="http://www.w3.org/2000/svg">
<path id="Element" d="M85.6532 31.7734L86.1166 31.5856L85.6532 31.7734ZM88.5937 6.28391L88.8667 5.86503L88.5937 6.28391ZM2.73405 37.5372C2.84176 37.7915 3.13521 37.9103 3.38948 37.8026L7.53301 36.0472C7.78728 35.9395 7.90608 35.6461 7.79837 35.3918C7.69065 35.1375 7.3972 35.0187 7.14294 35.1265L3.4598 36.6867L1.89952 33.0036C1.7918 32.7493 1.49836 32.6305 1.24409 32.7382C0.98982 32.846 0.871015 33.1394 0.97873 33.3937L2.73405 37.5372ZM164.612 32.5547C147.008 15.2599 125.899 11.7588 109.84 14.1933C101.816 15.4096 95.0253 18.1115 90.5498 21.3412C88.3134 22.9552 86.63 24.7192 85.6733 26.5208C84.7115 28.3318 84.4767 30.2014 85.1898 31.9612L86.1166 31.5856C85.5388 30.1597 85.7001 28.6025 86.5564 26.9898C87.4178 25.3678 88.9745 23.7113 91.135 22.1521C95.4536 19.0356 102.085 16.3803 109.99 15.182C125.788 12.7872 146.565 16.2266 163.912 33.268L164.612 32.5547ZM85.1898 31.9612C86.0227 34.0165 87.1244 35.4604 88.3933 36.3437C89.6684 37.2314 91.0836 37.5323 92.489 37.3442C95.2769 36.9711 97.9518 34.6959 99.557 31.4587C101.172 28.2023 101.744 23.9077 100.279 19.367C98.8125 14.824 95.3197 10.0711 88.8667 5.86503L88.3206 6.70278C94.6212 10.8096 97.9445 15.3904 99.3269 19.6742C100.71 23.9603 100.163 27.9856 98.6611 31.0145C97.1497 34.0626 94.7103 36.038 92.3563 36.353C91.1907 36.509 90.028 36.2634 88.9646 35.523C87.8949 34.7783 86.8974 33.5125 86.1166 31.5856L85.1898 31.9612ZM88.8667 5.86503C83.667 2.47584 76.5475 0.605614 68.6103 0.222511C60.6669 -0.160888 51.8692 0.943057 43.2835 3.53694C26.1241 8.72105 9.72143 19.8883 2.73098 37.1545L3.6579 37.5298C10.4972 20.6368 26.5913 9.62454 43.5727 4.49421C52.0573 1.93088 60.741 0.843848 68.5621 1.22135C76.3894 1.59914 83.3175 3.4417 88.3206 6.70278L88.8667 5.86503Z" fill="#7B7B7B"/>
</svg>
