<svg width="32" height="32" viewBox="0 0 32 32" fill="none" xmlns="http://www.w3.org/2000/svg">
<rect width="32" height="32" rx="8" fill="white"/>
<path d="M14.1455 16.8684C15.8386 15.1701 17.6772 13.5574 19.2678 12.1788C19.9909 11.5488 20.6532 10.851 21.2459 10.0948C21.2994 10.0273 21.3691 9.9373 21.4337 9.84058C21.5012 9.75488 21.5356 9.64739 21.5306 9.53801C21.5256 9.42863 21.4815 9.32479 21.4065 9.24576C21.3401 9.16787 21.2482 9.11684 21.1476 9.10209C21.0469 9.08733 20.9444 9.10987 20.8589 9.16551C20.6879 9.25848 20.5253 9.3667 20.3732 9.48886C19.8833 9.89274 19.4015 10.3042 18.9948 10.6535C16.787 12.5451 14.6801 14.5537 12.683 16.6707C12.3422 17.0328 12.0325 17.4336 11.733 17.8209C11.5985 17.995 11.4594 18.1749 11.3196 18.3485C10.9024 18.8667 10.7333 19.4991 10.8024 20.2819C10.8707 21.0549 11.2566 21.7567 11.8344 22.1591C12.3683 22.531 13.0272 22.6205 13.7397 22.4177C14.3169 22.2611 14.8574 21.9901 15.33 21.6206C15.4685 21.5098 15.6077 21.3992 15.7474 21.2889C16.4047 20.7683 17.085 20.2301 17.6829 19.6251C19.2364 18.0544 20.7856 16.4269 22.2836 14.8537C22.6933 14.4233 23.1031 13.9932 23.5132 13.5634C23.9701 13.0907 24.3435 12.5424 24.6173 11.9423C25.1062 10.8543 25.2083 9.83705 24.9297 8.83239C24.6383 7.78205 23.9455 6.88179 23.0764 6.4242C22.2485 5.988 21.2723 5.94783 20.2543 6.30722C19.3786 6.62203 18.5532 7.06483 17.8047 7.62152C16.1807 8.80626 14.9355 9.84886 13.8857 10.9026C12.1852 12.6095 10.4671 14.3559 8.80568 16.0447L8.47205 16.3838C7.84222 17.024 7.4705 17.6824 7.33547 18.3967C7.25968 18.798 7.20623 19.2094 7.15468 19.6071C7.13138 19.7864 7.10817 19.9657 7.08291 20.1446C7.0802 20.1638 7.08381 20.1835 7.0932 20.2004C7.10259 20.2174 7.11723 20.2308 7.13488 20.2385C7.13488 20.2622 7.13418 20.2861 7.13384 20.3099C7.13205 20.4228 7.13024 20.5396 7.13792 20.6557C7.14398 20.748 7.15901 20.839 7.17343 20.927C7.18274 20.9838 7.19215 21.0406 7.19906 21.0978C7.42321 22.9544 8.41468 24.4159 10.146 25.4418C10.7106 25.7729 11.3533 25.9435 12.0061 25.9356C12.1635 25.9353 12.3208 25.9267 12.4774 25.9097C13.4778 25.8039 14.3678 25.3998 15.1063 25.0185C16.4179 24.3499 17.6452 23.5248 18.7621 22.5607C19.9282 21.5428 21.0848 20.4745 22.2032 19.4421C22.4886 19.1785 22.7742 18.9151 23.06 18.6519C23.4922 18.2541 23.8981 17.8403 24.3461 17.3794C24.4881 17.2372 24.6046 17.0712 24.6903 16.8887C24.8349 16.5644 24.8013 16.2656 24.5951 16.0475C24.3541 15.792 24.0552 15.7268 23.7752 15.8687C23.5309 15.9805 23.3025 16.125 23.0961 16.2981C21.9621 17.3362 20.8473 18.3813 19.9063 19.2669C18.8235 20.2856 17.7545 21.2712 16.5836 22.1289C15.5689 22.8722 14.4532 23.6307 13.1705 24.1437C11.9021 24.6511 10.8108 24.4056 9.83481 23.3937C9.06978 22.6006 8.65897 21.7075 8.57908 20.6649C8.45958 19.0997 8.76999 18.0766 9.61851 17.2438C10.6468 16.2347 11.6748 15.1912 12.669 14.1821C13.2851 13.5569 13.9221 12.9102 14.5526 12.2784C15.5992 11.2298 16.7864 10.2176 18.2889 9.09316C18.9215 8.61963 19.7766 8.03351 20.7812 7.70152C21.342 7.51635 21.7742 7.50016 22.1829 7.64878C23.0694 7.97145 23.7883 9.20859 23.6623 10.1943C23.5548 11.0358 23.1936 11.7864 22.5583 12.4889C22.1674 12.9212 21.7631 13.3451 21.3844 13.7389C20.9918 14.1473 20.5998 14.5564 20.2083 14.9663C19.1373 16.0862 18.0298 17.2443 16.9167 18.3582C16.304 18.9715 15.6255 19.5414 14.9695 20.0926C14.8404 20.2011 14.7114 20.3097 14.5825 20.4184C14.1998 20.745 13.7543 20.9877 13.274 21.1315C12.7907 21.275 12.4346 21.1412 12.2151 20.734C11.9294 20.2033 11.9201 19.7231 12.1866 19.2664C12.7223 18.3481 13.4445 17.5712 14.1455 16.8684Z" fill="#242627"/>
</svg>
