<svg width="109" height="95" viewBox="0 0 109 95" fill="none" xmlns="http://www.w3.org/2000/svg">
<g id="Element">
<path id="Vector" d="M102.013 49.9037C101.853 49.9547 101.684 49.9793 101.534 49.9689C101.322 49.949 96.5171 49.7298 92.48 48.128C92.2075 48.0107 91.9083 47.9018 91.574 47.7749C89.8673 47.1227 87.527 46.2347 85.4531 44.795C83.7906 43.6326 81.6243 41.9015 79.6272 38.57C78.6805 36.9752 77.9698 35.5678 77.4346 34.2504C76.8553 34.4642 76.2226 34.6951 75.5815 34.8994C71.6196 36.133 67.7278 36.3814 64.5976 35.5994C62.8428 35.1667 61.2994 34.2873 60.1078 33.0332C57.7747 34.302 55.1302 35.1449 52.4527 35.3272C51.7078 35.3896 50.9728 35.3905 50.2561 35.3563C48.6112 40.3738 45.1236 44.4031 39.9583 47.129C37.4199 48.4924 34.6646 49.0788 31.9749 48.9441C31.4433 51.5352 30.7109 53.9569 29.696 56.3228C26.6729 63.2092 22.3755 66.4462 17.863 65.2003C12.7856 63.8426 9.27532 56.8503 9.14781 56.5408C8.81419 55.8594 9.10335 55.0086 9.791 54.6727C10.4786 54.3368 11.3328 54.619 11.6664 55.3004C12.5314 57.0087 15.4262 61.688 18.5816 62.5496C22.8384 63.7311 25.9418 57.8403 27.0665 55.2644C27.9882 53.1617 28.6459 50.968 29.1379 48.623C26.2802 47.9583 23.6933 46.4778 21.7483 44.2384C18.9963 41.0308 17.719 37.5575 18.0254 34.1628C18.286 31.3663 19.6763 28.7933 21.9666 26.9254C25.2628 24.2409 27.7357 24.6198 29.2188 25.4017C32.7819 27.2712 33.9131 33.0669 33.4618 37.6748C33.1615 40.7174 32.8558 43.5574 32.4295 46.2025C34.4925 46.216 36.6349 45.7374 38.6009 44.7023C42.9267 42.3899 45.906 39.0769 47.3755 34.9907C43.2645 34.0835 39.7021 31.6594 37.618 28.239C35.8706 25.3239 35.4473 22.1327 36.4766 19.4413C37.3662 17.1445 39.1841 15.4564 41.615 14.6816L41.6417 14.6731C43.5917 14.0516 45.5602 14.4162 47.1677 15.6835C50.2775 18.1644 51.7841 23.7529 51.1882 30.5952C51.1142 31.2898 51.0319 31.958 50.9144 32.6081C51.3571 32.6129 51.7914 32.5912 52.2257 32.5695C54.5223 32.3918 56.641 31.7457 58.4818 30.7797C58.4215 30.6822 58.3879 30.5762 58.3276 30.4787C55.8929 25.3027 55.5381 20.1931 57.2518 15.2996C58.2856 12.3442 60.2316 10.4109 62.4496 10.1708C64.2066 9.96095 65.8385 10.8413 66.8806 12.5515C68.4318 15.0331 69.8673 19.098 67.9438 24.3502C66.9313 27.0945 64.9846 29.5823 62.4722 31.4918C63.1615 32.0891 64.0645 32.6182 65.246 32.9127C67.8915 33.5575 71.2605 33.3298 74.7415 32.2495C75.3827 32.0451 75.997 31.8493 76.5679 31.609C75.8394 28.6609 76.1024 26.2429 76.5188 23.6594C76.9352 21.0758 78.2042 18.8624 80.0244 17.5528C81.2524 16.6946 82.6048 16.3219 83.8497 16.5378C85.4037 16.8011 88.9507 18.063 87.9485 23.8093C87.5451 26.1554 85.9267 30.1432 80.0218 33.134C80.4883 34.3274 81.1472 35.6638 82.0518 37.1261C83.7741 39.9616 85.5641 41.4335 87.0778 42.4974C88.8807 43.7317 90.9569 44.5288 92.6018 45.1716C92.9361 45.2984 93.2437 45.4338 93.5429 45.5427C97.1403 46.9636 101.653 47.1885 101.688 47.2064C102.466 47.2501 103.049 47.8814 103 48.6555C102.954 49.2536 102.548 49.7334 102.013 49.9037ZM82.5167 19.3844C82.2228 19.478 81.9191 19.6332 81.6321 19.8414C80.4309 20.6911 79.5716 22.2487 79.2742 24.0941C78.9188 26.2206 78.7084 28.1549 79.1651 30.431C83.6428 28.041 84.8621 25.114 85.158 23.3566C85.7964 19.7103 84.0569 19.4186 83.315 19.305C83.0944 19.2586 82.8105 19.2907 82.5167 19.3844ZM25.9456 27.7871C25.2777 27.9999 24.5352 28.4409 23.7361 29.0748C22.003 30.4734 20.9972 32.3111 20.8021 34.3865C20.5712 36.9985 21.6302 39.7829 23.8699 42.3951C25.3981 44.1546 27.4148 45.3208 29.6458 45.8643C30.0806 43.2457 30.3679 40.4407 30.6767 37.4246C31.1051 33.1158 29.8848 28.8948 27.8835 27.8696C27.3217 27.5819 26.6668 27.5572 25.9456 27.7871ZM62.4362 13.0052C61.6081 13.2692 60.6092 14.2003 59.8927 16.2084C58.4217 20.3827 58.7535 24.7702 60.8546 29.2648C63.0266 27.5805 64.5948 25.4759 65.3295 23.4328C66.8723 19.2065 65.7407 16.0076 64.4994 14.0399C64.2063 13.579 63.617 12.8331 62.7385 12.9381C62.6583 12.9636 62.5431 12.9712 62.4362 13.0052ZM42.4549 17.3316C40.8788 17.8339 39.6997 18.9391 39.1344 20.4031C38.411 22.2967 38.7609 24.6069 40.0694 26.7866C41.7565 29.6041 44.7335 31.573 48.1392 32.2964C48.2651 31.6728 48.3558 31.0311 48.4114 30.3715C48.9175 24.6375 47.7445 19.7303 45.4209 17.8742C44.521 17.169 43.5501 16.9825 42.4549 17.3316Z" fill="#242627"/>
<path id="Vector_2" d="M40.1068 59.6561C39.2787 59.9201 38.3949 59.8225 37.6239 59.3388C36.1958 58.4518 35.4506 56.4719 35.5747 53.894C35.6234 53.1199 36.2622 52.537 37.0323 52.5541C37.8108 52.5977 38.3933 53.229 38.3712 53.9947C38.2677 55.895 38.8288 56.7373 39.1265 56.9342C39.2051 56.9967 39.2585 56.9796 39.3386 56.9541C39.6691 56.7904 40.2857 55.952 40.3358 54.0687C40.3579 53.3031 40.9882 52.6937 41.7584 52.7108C42.5285 52.728 43.1376 53.3508 43.1156 54.1164C43.0633 56.6423 42.1446 58.569 40.6426 59.3978C40.4808 59.5369 40.2938 59.5965 40.1068 59.6561Z" fill="#242627"/>
<path id="Vector_3" d="M62.2667 53.7616C61.5722 53.983 60.7937 53.9394 60.0998 53.6062C58.5801 52.8943 57.5762 51.026 57.4079 48.4538C57.3414 47.6872 57.9283 47.0333 58.6999 46.9624C59.4716 46.8915 60.1257 47.4708 60.1922 48.2374C60.3192 50.1226 60.9787 50.9044 61.2947 51.0662C61.365 51.1022 61.4268 51.1117 61.5252 51.0511C61.8122 50.843 62.3502 49.9421 62.1698 48.0739C62.1033 47.3073 62.6551 46.6355 63.4183 46.5381C64.1899 46.4672 64.8624 47.0114 64.9556 47.7695C65.1956 50.2897 64.541 52.3073 63.1429 53.2782C62.8643 53.5128 62.5605 53.668 62.2667 53.7616Z" fill="#242627"/>
<path id="Vector_4" d="M54.6205 61.5655C54.0061 61.7613 53.2146 61.9553 52.2926 62.0157C50.9096 62.1064 48.9 62.0759 47.381 60.8094C47.1016 60.5775 46.2283 59.8639 46.3267 58.7822C46.4433 57.6654 47.4446 57.1129 48.1689 56.707C49.0985 56.2064 49.6379 55.2175 49.9026 53.7327C50.0925 52.4759 49.1044 49.173 48.3325 47.2016C48.0439 46.4766 48.4117 45.6883 49.1161 45.4054C49.8473 45.114 50.6381 45.4747 50.9183 46.1731C51.2657 47.0836 53.0279 51.7154 52.6496 54.1409C52.2744 56.3904 51.3167 58.0086 49.7415 58.9775C50.3132 59.2038 51.0734 59.2824 52.1106 59.2144C53.5822 59.1247 54.5835 58.5721 54.5835 58.5721C55.2627 58.2097 56.1 58.4389 56.4871 59.1033C56.8474 59.7762 56.6117 60.6099 55.9676 60.9903C55.8775 61.0773 55.3952 61.3186 54.6205 61.5655Z" fill="#242627"/>
<path id="Vector_5" d="M58.3661 82.75C52.516 84.6146 47.3371 82.4723 44.322 80.6615C39.6597 77.8294 34.6321 71.5249 34.3978 71.2495C33.9123 70.6457 34.016 69.7665 34.6349 69.3066C35.2454 68.8203 36.1293 68.9178 36.5881 69.5302C36.64 69.6012 41.5203 75.7192 45.7711 78.274C49.9953 80.8373 56.4465 82.6324 63.1715 76.7543C70.0316 70.7456 72.3181 62.9269 72.9642 59.8616C73.1846 58.8869 73.1761 57.8392 73.1531 57.1172C73.1133 56.3421 73.5765 55.6693 74.2726 55.3599C74.977 55.077 75.7891 55.2266 76.328 55.8134C77.0929 56.6492 77.6349 57.06 77.899 57.1509C79.1744 57.6488 80.2285 57.6338 80.2369 57.6603C80.9986 57.6509 81.6345 58.2652 81.6392 59.0223C81.6438 59.7794 81.0219 60.4153 80.2601 60.4247C80.1098 60.4142 78.6482 60.4425 76.8628 59.7277C76.5552 59.5924 76.2392 59.4305 75.898 59.1891C75.8469 59.5847 75.8042 60.0068 75.6997 60.4194C74.969 63.7742 72.4933 72.2951 65.0044 78.8252C62.7561 80.8256 60.5031 82.0688 58.3661 82.75Z" fill="#242627"/>
</g>
</svg>
