<svg width="262" height="32" viewBox="0 0 262 32" fill="none" xmlns="http://www.w3.org/2000/svg">
<path d="M26.0784 0.542374H27.9701V31.4576H21.7545V14.5085L14.0526 22.7797L6.3507 14.5085V31.5932H0V0.542374H1.8917L13.9175 13.9661L26.0784 0.542374Z" fill="#242627"/>
<path d="M51.616 0.542374C72.5598 0.542374 72.5598 32 51.616 32C30.6723 32 30.6723 0.542374 51.616 0.542374ZM51.616 6.77966C39.4551 6.77966 39.4551 25.6271 51.616 25.6271C63.777 25.6271 63.9121 6.77966 51.616 6.77966Z" fill="#242627"/>
<path d="M80.2621 31.4576V7.05085H72.6953V1.08475H94.0445V7.18644H86.4777V31.5932C86.3426 31.4576 80.2621 31.4576 80.2621 31.4576Z" fill="#242627"/>
<path d="M100.665 31.4576V1.08475H106.881V31.5932L100.665 31.4576Z" fill="#242627"/>
<path d="M130.392 0.542374C151.336 0.542374 151.336 32 130.392 32C109.449 32 109.449 0.542374 130.392 0.542374ZM130.392 6.77966C118.232 6.77966 118.232 25.6271 130.392 25.6271C142.553 25.6271 142.553 6.77966 130.392 6.77966Z" fill="#242627"/>
<path d="M169.172 31.4576V19.3898H160.119V31.4576H153.903V1.08475H160.119V13.2881H169.172V1.08475H175.388V31.5932L169.172 31.4576Z" fill="#242627"/>
<path d="M184.306 31.4576V1.08475H199.439V7.18644H190.251V13.2881H198.223V19.5254H190.251V25.6271H199.98V31.7288C199.98 31.4576 184.306 31.4576 184.306 31.4576Z" fill="#242627"/>
<path d="M217.951 0H218.491L231.328 31.5932H224.437L223.22 28.339H213.222L212.005 31.5932H205.114L217.951 0ZM221.059 22.5085L218.356 14.6441L215.519 22.5085H221.059Z" fill="#242627"/>
<path d="M246.867 31.4576H237.813V1.08475H246.867C267.135 1.08475 267.135 31.4576 246.867 31.4576ZM243.894 7.18644V25.4915H246.867C258.757 25.4915 258.757 7.18644 246.867 7.18644H243.894Z" fill="#242627"/>
</svg>
