<svg width="181" height="152" viewBox="0 0 181 152" fill="none" xmlns="http://www.w3.org/2000/svg">
<g id="Element">
<path id="Vector 12" d="M92.0357 80.2508L91.5474 80.1434L92.0357 80.2508ZM98.2544 85.0645L98.7416 84.9517L98.2544 85.0645ZM61.8556 66.6019L61.8556 66.1019L61.8556 66.6019ZM7.00163 110.08C6.73752 110.161 6.45806 110.012 6.37744 109.748L5.0636 105.444C4.98298 105.18 5.13172 104.9 5.39583 104.82C5.65995 104.739 5.93942 104.888 6.02004 105.152L7.18788 108.978L11.0136 107.81C11.2777 107.729 11.5572 107.878 11.6378 108.142C11.7184 108.406 11.5697 108.686 11.3056 108.766L7.00163 110.08ZM179.635 52.0504C151.793 38.3777 130.581 42.9909 116.051 52.229C108.773 56.8564 103.158 62.6533 99.225 67.9237C95.2815 73.2081 93.0603 77.9197 92.5241 80.3581L91.5474 80.1434C92.1273 77.5063 94.4416 72.6615 98.4236 67.3257C102.416 61.9758 108.117 56.0887 115.514 51.3851C130.336 41.9613 151.918 37.3254 180.076 51.1528L179.635 52.0504ZM92.5241 80.3581C91.3691 85.6104 93.2799 88.0359 94.9559 88.5683C95.8193 88.8426 96.6645 88.655 97.215 88.1174C97.7584 87.5868 98.1026 86.6254 97.7673 85.1773L98.7416 84.9517C99.1339 86.646 98.7691 87.9975 97.9136 88.8329C97.0653 89.6613 95.8216 89.8926 94.6531 89.5214C92.265 88.7627 90.3389 85.6389 91.5474 80.1434L92.5241 80.3581ZM97.7673 85.1773C97.6596 84.7122 97.3049 84.0631 96.6696 83.2613C96.0432 82.4708 95.1773 81.5727 94.1046 80.612C91.96 78.6912 89.0184 76.5463 85.5907 74.5401C78.725 70.5219 69.9812 67.1019 61.8556 67.1019L61.8556 66.1019C70.2301 66.1019 79.1532 69.6138 86.0958 73.6771C89.5721 75.7116 92.5699 77.8949 94.7718 79.8671C95.8723 80.8528 96.7814 81.7923 97.4533 82.6402C98.1162 83.4768 98.583 84.2671 98.7416 84.9517L97.7673 85.1773ZM61.8556 67.1019C43.6171 67.1019 23.7463 78.9322 7.29702 109.837L6.41428 109.367C22.965 78.2717 43.1158 66.1019 61.8556 66.1019L61.8556 67.1019Z" fill="#242627"/>
</g>
</svg>
