<svg width="40" height="40" viewBox="0 0 40 40" fill="none" xmlns="http://www.w3.org/2000/svg">
<g id="Round house" clip-path="url(#clip0_1358_2302)">
<g id="Group">
<path id="Vector" d="M17.3592 0.0100225H18.7988C18.8888 0.130293 18.9888 0.250564 18.9788 0.400902C18.9988 2.23503 18.9688 4.07918 19.0088 5.9133C19.2087 6.83538 20.8783 6.77524 20.9683 5.80306C21.0682 3.87873 20.8483 1.91431 21.0582 0H22.4979C22.6378 0.170383 22.6878 0.380857 22.6778 0.59133C22.6778 2.2651 22.6778 3.93886 22.6878 5.61263C22.6578 6.37434 22.4779 7.26635 21.7581 7.6873C20.7083 8.45903 19.1787 8.46906 18.139 7.66725C17.5091 7.28639 17.3092 6.50463 17.2692 5.81308C17.2592 4.27963 17.2692 2.74618 17.2592 1.20271C17.2592 0.811827 17.2192 0.390879 17.3592 0.0100225Z" fill="#7B7B7B"/>
<path id="Vector_2" d="M2.77103 12.238C4.12069 11.8872 5.76028 12.6389 6.15018 14.042C7.02996 13.9618 7.90974 13.7915 8.79952 13.7514C9.15943 13.7113 9.34938 14.1623 9.19942 14.4529C9.00947 14.904 9.00947 15.5354 8.56958 15.826C7.76978 15.9864 6.94998 16.0064 6.14019 16.0866C6.11019 16.2169 6.0802 16.3572 6.05021 16.4875C6.71004 16.718 7.41987 16.8684 8.02971 17.2292C8.35963 17.4998 8.0697 17.9107 7.98972 18.2214C7.87975 18.5321 7.77978 19.0934 7.31989 18.9531C5.85026 18.5522 4.42062 17.9709 2.93099 17.6401C1.97123 17.2392 0.901496 17.0889 0.0117188 16.5376V16.1668C0.341636 15.355 0.521591 14.5031 0.851509 13.7013C1.19142 12.9295 2.01122 12.5186 2.77103 12.238ZM2.4811 15.355C2.99097 15.5153 3.50085 15.6757 4.01072 15.8361C4.11069 15.5454 4.25066 15.2648 4.28065 14.9641C4.24066 14.4529 3.72079 14.012 3.20092 14.1623C2.67105 14.2826 2.51109 14.8839 2.4811 15.355Z" fill="#7B7B7B"/>
<path id="Vector_3" d="M17.7462 33.4156C18.216 32.724 19.0958 32.3532 19.9156 32.2931C21.0953 32.283 22.555 33.0548 22.535 34.3878C22.565 36.262 22.545 38.1262 22.555 40.0004H21.3453C21.3353 38.2264 21.3553 36.4524 21.3253 34.6885C21.2753 33.6361 19.8356 33.2252 19.0958 33.8666C18.7559 34.1372 18.6159 34.5782 18.6359 34.9992C18.6359 36.6729 18.6459 38.3467 18.6459 40.0104H17.4162C17.4162 38.3066 17.4062 36.6028 17.4062 34.8989C17.4662 34.3878 17.4862 33.8566 17.7462 33.4156Z" fill="#7B7B7B"/>
<path id="Vector_4" d="M29.5942 2.48555C30.244 2.45549 30.7839 3.00673 31.2238 3.42767C30.8639 4.98117 30.384 6.5046 29.9541 8.03805C30.8839 6.9055 31.7736 5.71282 32.5334 4.46C33.0433 4.6404 33.4832 5.02126 33.8731 5.38207C33.5232 6.14378 32.8834 6.74514 32.4435 7.45674C31.4937 8.79976 30.5339 10.1428 29.5642 11.4658C29.4142 11.6462 29.3142 11.8967 29.0843 11.9869C28.6344 11.7564 28.2545 11.4257 27.8446 11.125C27.5147 10.8945 27.7746 10.4535 27.8346 10.1528C28.1145 8.97014 28.4945 7.80753 28.7244 6.62487C27.8146 7.63715 27.2048 8.88996 26.275 9.87217C25.8351 9.68174 25.4752 9.34098 25.0953 9.07037C25.0353 8.6394 25.4852 8.34875 25.6752 7.98793C27.0648 6.22396 28.2745 4.31968 29.5942 2.48555Z" fill="#7B7B7B"/>
<path id="Vector_5" d="M9.20746 3.26737C10.1572 3.09698 11.147 3.51793 11.8068 4.19946C12.2567 4.63043 12.5066 5.21174 12.9165 5.6828C13.6563 6.63494 14.3762 7.81761 14.0263 9.08045C13.8163 9.9925 13.0465 10.6039 12.2767 11.0449C11.2869 11.4558 10.0972 11.115 9.34742 10.3834C8.37767 9.44126 7.61786 8.29869 7.038 7.08596C6.40816 5.5024 7.51788 3.51793 9.20746 3.26737ZM9.51738 5.17165C9.0375 5.30194 8.54762 5.78303 8.71758 6.32424C9.09749 7.17616 9.72733 7.89779 10.3172 8.60939C10.5771 8.88 10.8171 9.27088 11.237 9.30094C11.6968 9.31097 12.1467 8.9702 12.2767 8.52921C12.3767 8.08821 12.0767 7.71738 11.8268 7.38664C11.3969 6.72515 10.947 6.0837 10.4072 5.5024C10.1872 5.26185 9.8473 5.0614 9.51738 5.17165Z" fill="#7B7B7B"/>
<path id="Vector_6" d="M37.9294 11.6465C38.1593 11.5563 38.4593 11.7167 38.5292 11.9572C38.8791 12.8593 39.309 13.7813 39.339 14.7636C39.309 16.2168 37.9594 17.199 36.6997 17.62C35.8099 17.8204 34.9401 18.1512 34.0204 18.2614C33.0206 18.3817 31.9009 17.8405 31.551 16.8583C31.2811 16.1166 31.0511 15.3549 30.8012 14.6032C30.7112 14.3927 30.7312 14.1021 30.9311 13.9618C33.1906 12.9996 35.63 12.5386 37.9294 11.6465ZM32.4807 15.0241C32.6707 15.5353 32.7107 16.1667 33.2006 16.4975C33.5705 16.8082 34.0804 16.738 34.5102 16.6278C35.35 16.4073 36.1998 16.1667 36.9996 15.8059C37.4495 15.6355 37.7494 15.1645 37.7894 14.6934C37.7194 14.2424 37.5195 13.8214 37.4495 13.3704C35.7999 13.9517 34.1503 14.523 32.4807 15.0241Z" fill="#7B7B7B"/>
<path id="Vector_7" d="M31.9493 22.7713C31.8493 22.3503 32.1093 21.3781 32.7391 21.6788C34.5787 22.3002 36.4682 22.7612 38.2777 23.4428C38.8476 23.6733 39.5574 23.6833 39.9973 24.1644V24.2546C39.8873 24.5553 39.8174 24.896 39.6274 25.1667C39.4275 25.3671 39.1175 25.1967 38.8876 25.1466C38.0278 24.9261 37.218 24.5553 36.3582 24.3248C36.1483 25.0664 35.8883 25.7981 35.6484 26.5297C36.6781 26.8805 37.7579 27.1712 38.7476 27.6122C38.8976 28.0231 38.5977 28.9752 37.9978 28.7648C35.6384 27.8928 33.129 27.4117 30.8196 26.4195C30.7396 25.9484 30.8996 24.9361 31.5894 25.1667C32.4892 25.4473 33.369 25.778 34.2787 26.0386C34.4687 25.307 34.7486 24.5954 34.9486 23.8637C33.9488 23.4929 32.8591 23.3325 31.9493 22.7713Z" fill="#7B7B7B"/>
<path id="Vector_8" d="M28.0395 29.4867C29.1192 29.2762 30.2489 29.7874 30.8988 30.6493C31.6386 31.5213 32.2784 32.4634 32.7983 33.4757C33.5081 34.959 32.5183 36.9435 30.8888 37.2241C29.4191 37.5448 28.1394 36.4123 27.4796 35.2096C26.8798 34.3276 26.07 33.4657 25.96 32.3532C25.79 31.0202 26.8098 29.8275 28.0395 29.4867ZM28.1494 30.9099C27.4096 31.2006 27.1097 32.1928 27.5196 32.8643C28.1194 33.8365 28.7893 34.7786 29.5691 35.6205C30.4189 36.3421 31.7985 35.5303 31.7285 34.4679C31.5586 33.5258 30.7788 32.8743 30.2989 32.0926C29.779 31.4311 29.0992 30.5291 28.1494 30.9099Z" fill="#7B7B7B"/>
<path id="Vector_9" d="M7.15844 22.3303C7.35839 22.1499 7.76828 21.9094 7.93824 22.2501C8.33814 23.1421 8.55809 24.0943 8.87801 25.0164C8.98798 25.4273 9.25791 25.8382 9.11795 26.2692C7.32839 26.8705 5.55884 27.542 3.72929 27.993C2.94949 28.1233 2.25966 28.6846 1.45986 28.5844C0.929994 27.3917 0.620071 26.1188 0.210174 24.8861C0.0502135 24.4451 0.780031 24.1845 1.03997 24.4551C1.46986 25.4774 1.75979 26.5598 2.12969 27.6022C2.94949 27.2714 3.79928 27.0209 4.63907 26.7603C4.33914 25.728 3.89925 24.7357 3.62932 23.6834C3.73929 23.3025 4.47911 23.1321 4.60907 23.5831C4.919 24.5453 5.23892 25.5075 5.52884 26.4696C6.35864 26.1088 7.26841 25.9484 8.05821 25.4974C7.75829 24.7558 7.56833 23.984 7.36838 23.2123C7.3084 22.9317 6.99848 22.641 7.15844 22.3303Z" fill="#7B7B7B"/>
<path id="Vector_10" d="M9.26615 30.6389C9.92598 29.4161 11.7155 29.0653 12.8053 29.9072C14.1449 30.6288 14.5948 32.5933 13.5051 33.7258C13.1152 33.6657 12.7853 33.4151 12.5353 33.1144C13.0952 32.6534 13.1552 31.7914 12.6653 31.2603C12.1954 30.3783 10.7258 30.3081 10.2659 31.2302C9.876 31.7814 10.1759 32.503 10.6158 32.924C11.1657 33.4552 11.6955 34.0866 11.7855 34.8784C11.8955 35.9709 11.0957 37.1234 9.97597 37.2638C8.51634 37.5444 7.08669 36.2816 7.0567 34.8183C7.02671 34.247 7.33663 33.7358 7.65655 33.2848C7.94648 33.5053 8.69629 33.7358 8.31639 34.1969C7.79652 34.8984 8.38637 35.8806 9.14618 36.1011C9.81601 36.4219 10.6758 35.8406 10.6358 35.1089C10.6458 34.3071 9.846 33.8761 9.4661 33.2648C8.83626 32.5532 8.75628 31.4306 9.26615 30.6389Z" fill="#7B7B7B"/>
</g>
</g>
<defs>
<clipPath id="clip0_1358_2302">
<rect width="40" height="40" fill="white"/>
</clipPath>
</defs>
</svg>
