<svg width="121" height="40" viewBox="0 0 121 40" fill="none" xmlns="http://www.w3.org/2000/svg">
<g id="Whirlpool" clip-path="url(#clip0_1358_2317)">
<g id="g12">
<path id="path14" d="M82.1961 33.9774C81.9666 34.0217 81.5621 34.0977 81.2021 34.0977C79.9684 34.0977 79.2695 33.5789 79.2695 32.1651C79.2695 30.6967 80.1979 30.1779 81.3659 30.1779C81.7259 30.1779 81.9666 30.2437 82.1517 30.2982V30.9919C82.0152 30.9535 81.6338 30.8878 81.3497 30.8878C80.6723 30.8878 80.1373 30.9919 80.1373 32.1378C80.1373 33.2683 80.6945 33.3937 81.3062 33.3937C81.6338 33.3937 81.9009 33.328 82.1961 33.2683V33.9774Z" fill="#7B7B7B"/>
<path id="path16" d="M85.6659 32.1317C85.6659 31.1163 85.3331 30.805 84.7922 30.805C84.241 30.805 83.9082 31.1709 83.8912 32.1317C83.875 33.0925 84.2248 33.4636 84.776 33.4636C85.3221 33.4636 85.6659 33.147 85.6659 32.1317ZM83.0234 32.1368C83.0234 30.6846 83.7273 30.1769 84.787 30.1769C85.8459 30.1769 86.5336 30.7179 86.5336 32.1368C86.5336 33.5506 85.8408 34.0967 84.776 34.0967C83.7171 34.0967 83.0234 33.5676 83.0234 32.1368Z" fill="#7B7B7B"/>
<path id="path18" d="M88.67 32.0669C89.0744 32.0669 89.4345 31.9466 89.4345 31.4611C89.4345 30.9807 89.1513 30.8989 88.6812 30.8989H88.414V32.0669H88.67ZM87.5898 30.2325H88.6487C89.8167 30.2325 90.2971 30.5439 90.2971 31.4278C90.2971 32.1488 89.9261 32.3399 89.4891 32.4713V32.5362L89.6044 32.5584C90.0027 32.706 90.2374 33.4645 90.4832 33.9398V34.043H89.571C89.391 33.5353 89.1999 32.7657 88.8177 32.6565H88.414V34.043H87.5898V30.2325Z" fill="#7B7B7B"/>
<path id="path20" d="M92.2812 32.1478H92.5815C93.0619 32.1478 93.3017 31.995 93.3017 31.5199C93.3017 31.0395 93.0619 30.903 92.62 30.903H92.2812V32.1478ZM91.457 30.2315H92.4945C93.6191 30.2315 94.1643 30.4883 94.1643 31.4653C94.1643 32.4431 93.515 32.7263 92.6959 32.7263H92.2812V34.042H91.457V30.2315Z" fill="#7B7B7B"/>
<path id="path22" d="M97.5171 32.1317C97.5171 31.1163 97.1844 30.805 96.644 30.805C96.0922 30.805 95.7595 31.1709 95.7423 32.1317C95.7261 33.0925 96.0759 33.4636 96.6278 33.4636C97.174 33.4636 97.5171 33.147 97.5171 32.1317ZM94.875 32.1368C94.875 30.6846 95.5794 30.1769 96.6383 30.1769C97.6972 30.1769 98.3854 30.7179 98.3854 32.1368C98.3854 33.5506 97.6925 34.0967 96.6278 34.0967C95.5689 34.0967 94.875 33.5676 94.875 32.1368Z" fill="#7B7B7B"/>
<path id="path24" d="M100.521 32.0669C100.926 32.0669 101.286 31.9466 101.286 31.4611C101.286 30.9807 101.003 30.8989 100.533 30.8989H100.266V32.0669H100.521ZM99.4414 30.2325H100.5C101.669 30.2325 102.149 30.5439 102.149 31.4278C102.149 32.1488 101.778 32.3399 101.341 32.4713V32.5362L101.456 32.5584C101.855 32.706 102.089 33.4645 102.335 33.9398V34.043H101.423C101.243 33.5353 101.051 32.7657 100.669 32.6565H100.266V34.043H99.4414V30.2325Z" fill="#7B7B7B"/>
<path id="path26" d="M105.196 32.6393L104.813 31.3236L104.77 31.1103H104.715L104.671 31.3236L104.273 32.6393H105.196ZM102.984 33.955L104.344 30.2042H105.152L106.577 33.955V34.042H105.665L105.348 33.1905H104.153L103.874 34.042H102.984V33.955Z" fill="#7B7B7B"/>
<path id="path28" d="M107.981 30.8868L106.91 30.9141V30.2315H109.881V30.9141L108.805 30.8868V34.042H107.981V30.8868Z" fill="#7B7B7B"/>
<path id="path30" d="M110.754 34.043V30.2325H111.578V34.043H110.754Z" fill="#7B7B7B"/>
<path id="path32" d="M115.2 32.1317C115.2 31.1163 114.867 30.805 114.327 30.805C113.776 30.805 113.442 31.1709 113.426 32.1317C113.41 33.0925 113.759 33.4636 114.31 33.4636C114.856 33.4636 115.2 33.147 115.2 32.1317ZM112.559 32.1368C112.559 30.6846 113.262 30.1769 114.321 30.1769C115.38 30.1769 116.068 30.7179 116.068 32.1368C116.068 33.5506 115.375 34.0967 114.31 34.0967C113.252 34.0967 112.559 33.5676 112.559 32.1368Z" fill="#7B7B7B"/>
<path id="path34" d="M117.121 30.2315H117.841L119.249 32.2348L119.446 32.5626H119.495V30.2315H120.32V34.042H119.615L118.169 31.9619L118.005 31.6837H117.946V34.042H117.121V30.2315Z" fill="#7B7B7B"/>
<path id="path36" d="M28.5467 4.33135L22.372 26.8975H18.7838L14.4191 10.5062L9.99004 26.8975H6.40136L0.226562 4.33135H3.78278L8.17946 20.7227L12.6086 4.33135H16.1323L20.5939 20.7227L24.991 4.33135H28.5467Z" fill="#7B7B7B"/>
<path id="path38" d="M30.1953 4.39528L33.7515 4.10429V9.63235L33.6867 11.7014H33.8164C35.4649 11.0871 36.7908 10.7961 38.4072 10.7961C41.2847 10.7961 43.2241 12.0897 43.2241 17.0356V26.8965H39.6679V17.3265C39.6679 14.3524 38.213 13.9646 36.5647 13.9646C35.5297 13.9646 34.6568 14.1911 33.7515 14.4497V26.8965H30.1953V4.39528Z" fill="#7B7B7B"/>
<path id="path40" d="M46.3234 11.0227H49.8797V26.8965H46.3234V11.0227ZM48.1016 4.62136C49.9445 4.62136 50.2354 5.6883 50.2354 6.88457C50.2354 8.08075 49.8473 9.18019 48.1016 9.18019C46.3559 9.18019 46 8.08075 46 6.88457C46 5.6883 46.3234 4.62136 48.1016 4.62136Z" fill="#7B7B7B"/>
<path id="path42" d="M52.8867 11.0227H55.3116L55.7966 12.3158H56.0232C56.9604 11.5077 58.4472 10.7961 60.3874 10.7961C60.6135 10.7961 60.872 10.7961 61.1306 10.8286V14.3199C60.4846 14.2236 59.8055 14.1264 59.1264 14.1264C58.1562 14.1264 57.3806 14.3524 56.4429 14.7729V26.8965H52.8867V11.0227Z" fill="#7B7B7B"/>
<path id="path44" d="M62.6484 26.8965V4.39528L66.2048 4.10429V26.8965H62.6484Z" fill="#7B7B7B"/>
<path id="path46" d="M94.8472 19.0406C94.8472 16.0347 94.3618 13.5776 91.5171 13.5776C88.6401 13.5776 87.9285 15.9375 87.9285 19.0406C87.9285 21.9179 88.5105 24.4076 91.3558 24.4076C94.2005 24.4076 94.8472 22.0476 94.8472 19.0406ZM91.4848 10.7969C96.5282 10.7969 98.4688 13.7713 98.4688 19.0406C98.4688 23.9869 96.6578 27.2207 91.4199 27.2207C86.1828 27.2207 84.3398 23.9869 84.3398 19.0406C84.3398 13.7713 86.4413 10.7969 91.4848 10.7969Z" fill="#7B7B7B"/>
<path id="path48" d="M110.792 19.0406C110.792 16.0347 110.307 13.5776 107.463 13.5776C104.586 13.5776 103.874 15.9375 103.874 19.0406C103.874 21.9179 104.456 24.4076 107.301 24.4076C110.146 24.4076 110.792 22.0476 110.792 19.0406ZM107.431 10.7969C112.474 10.7969 114.414 13.7713 114.414 19.0406C114.414 23.9869 112.603 27.2207 107.366 27.2207C102.129 27.2207 100.285 23.9869 100.285 19.0406C100.285 13.7713 102.387 10.7969 107.431 10.7969Z" fill="#7B7B7B"/>
<path id="path50" d="M116.715 26.8965V4.39528L120.271 4.10429V26.8965H116.715Z" fill="#7B7B7B"/>
<path id="path52" d="M72.6696 23.9553C73.6713 23.9868 74.2216 24.0193 75.2557 24.0193C77.4535 24.0193 78.9093 22.8555 78.9093 18.2319C78.9093 15.0639 77.6157 14.2243 75.2881 14.2243C74.3828 14.2243 73.5424 14.3847 72.6696 14.6765V23.9553ZM69.1133 11.0229H71.7967L72.0876 12.1868C73.1551 11.6049 75.1259 10.7969 76.9049 10.7969C80.137 10.7969 82.497 13.1569 82.497 18.8138C82.497 24.3751 80.0073 27.1233 75.87 27.1233C74.347 27.1233 72.6696 26.8 72.6696 26.8V34.0737L69.1133 34.4619V11.0229Z" fill="#7B7B7B"/>
<path id="path54" d="M86.7185 1.26971C84.0591 -1.81167 75.6207 0.896839 66.2036 7.41444V9.05687C74.497 3.16176 81.8078 0.441719 83.9016 2.86782C86.5159 5.89696 80.0127 15.805 69.3742 24.986C58.7349 34.1675 47.987 39.1457 45.3732 36.1163C44.0155 34.5429 45.1226 31.1142 47.987 26.8972H46.322C42.7751 32.1866 41.4456 36.6305 43.2667 38.7408C46.5865 42.588 59.0046 37.3246 71.0005 26.9731C82.9951 16.6217 90.038 5.11663 86.7185 1.26971Z" fill="#7B7B7B"/>
</g>
</g>
<defs>
<clipPath id="clip0_1358_2317">
<rect width="120.094" height="40" fill="white" transform="translate(0.226562)"/>
</clipPath>
</defs>
</svg>
