<svg width="153" height="40" viewBox="0 0 153 40" fill="none" xmlns="http://www.w3.org/2000/svg">
<g id="Aurelia_London_Logo_Black 1" clip-path="url(#clip0_1358_2680)">
<g id="Aurelia_London_Logo_Black">
<path id="Fill-1" fill-rule="evenodd" clip-rule="evenodd" d="M7.32909 14.4415C8.63301 14.4838 9.56643 14.5046 10.13 14.5046C10.2989 14.5046 11.7392 14.4838 14.4511 14.4415L10.8869 5.03971L7.32909 14.4415ZM11.0415 0.430969H11.929C13.1969 4.05643 14.7558 8.1679 16.6059 12.7646L19.8882 20.7414C20.0385 21.0237 20.2023 21.2331 20.3813 21.3683C20.5028 21.4627 21.1936 21.7138 22.452 22.1206V23.0459C20.7429 22.9306 19.4844 22.8732 18.6765 22.8732C17.8501 22.8732 16.4412 22.9306 14.4503 23.0459V22.1206C15.5868 21.86 16.2487 21.6506 16.4369 21.4938C16.6246 21.3373 16.7186 21.1549 16.7186 20.9454C16.7186 20.7263 16.6202 20.3553 16.4225 19.8331L14.9916 16.0086C13.0007 15.9879 11.5518 15.9774 10.6448 15.9774L6.78939 16.0086L5.30815 19.9739C5.06381 20.611 4.94145 21.0085 4.94145 21.1653C4.94145 21.3012 5.00046 21.4132 5.11758 21.5019C5.23484 21.5906 5.78161 21.7504 6.75923 21.9801C6.86192 22.0112 7.00803 22.0584 7.19544 22.1206V23.0459C5.58987 22.9306 4.45775 22.8732 3.80081 22.8732C2.96431 22.8732 1.89397 22.9306 0.588867 23.0459V22.1206C1.44346 21.9121 2.02998 21.6769 2.34973 21.4154C2.5841 21.2172 2.82844 20.8831 3.08222 20.4127C3.61759 19.3781 4.97882 16.0511 7.16751 10.43L11.0415 0.430969Z" fill="#7B7B7B"/>
<path id="Fill-2" fill-rule="evenodd" clip-rule="evenodd" d="M23.8037 1.73192V0.806946C25.5503 0.921972 27.0575 0.979618 28.3253 0.979618C29.65 0.979618 31.1757 0.921972 32.9038 0.806946V1.73192C32.6126 1.8049 32.3919 1.85673 32.2416 1.88859C30.9177 2.11825 30.1711 2.31737 30.0021 2.48356C29.8332 2.6516 29.739 3.00091 29.7204 3.53427C29.6636 4.95518 29.6356 7.62988 29.6356 11.5582C29.6356 14.181 29.6988 15.9616 29.826 16.902C29.9526 17.8421 30.2622 18.6473 30.7553 19.3158C31.2484 19.9843 31.9269 20.4994 32.7915 20.859C33.6554 21.2197 34.5754 21.4004 35.5521 21.4004C37.0262 21.4004 38.2215 21.0606 39.1372 20.3817C40.0529 19.7021 40.6587 18.7961 40.9549 17.6625C41.2504 16.5285 41.3983 14.3112 41.3983 11.0098C41.3983 6.64237 41.3652 4.06683 41.2999 3.28319C41.2719 2.93851 41.182 2.6955 41.0325 2.55482C40.8816 2.41322 40.1773 2.19176 38.9195 1.88859C38.7872 1.85673 38.586 1.8049 38.3134 1.73192V0.806946C40.1542 0.921972 41.5536 0.979618 42.5117 0.979618C43.5912 0.979618 44.8217 0.921972 46.2023 0.806946V1.73192C45.94 1.81508 45.7438 1.87273 45.6137 1.90393C44.3704 2.18621 43.6638 2.40529 43.4957 2.56209C43.3274 2.71877 43.2246 2.9906 43.1872 3.37759C43.0858 4.20275 43.0249 6.63668 43.0048 10.6803C42.9947 13.8043 42.943 15.7896 42.8495 16.6355C42.7273 17.8062 42.5067 18.7489 42.1876 19.4645C41.8677 20.1803 41.3774 20.859 40.7156 21.502C40.0529 22.1449 39.2946 22.6173 38.4401 22.9204C37.3131 23.317 36.1343 23.5161 34.9045 23.5161C33.5333 23.5161 32.3099 23.3273 31.2348 22.9514C30.1587 22.5758 29.3258 22.0664 28.7343 21.4236C28.1428 20.7809 27.7008 20.0235 27.4096 19.1511C27.1186 18.2787 26.9733 17.0122 26.9733 15.3507L27.0294 8.23582C27.0294 5.59259 27.0201 4.10358 27.0015 3.76948C26.9641 3.25768 26.8935 2.9122 26.7901 2.73463C26.7147 2.58841 26.6017 2.4788 26.4522 2.40529C26.3394 2.34288 25.686 2.18132 24.4938 1.91993C24.3435 1.88859 24.1136 1.82566 23.8037 1.73192Z" fill="#7B7B7B"/>
<path id="Fill-3" fill-rule="evenodd" clip-rule="evenodd" d="M55.8787 11.3231C56.8552 11.4383 57.6114 11.495 58.1462 11.495C59.8553 11.495 61.1211 11.0712 61.9433 10.2236C62.7647 9.37611 63.1759 8.19834 63.1759 6.69096C63.1759 5.37252 62.8114 4.33146 62.0842 3.567C61.3561 2.80333 60.2967 2.42109 58.9074 2.42109C58.4093 2.42109 57.4281 2.48442 55.9627 2.6099L55.8787 11.3231ZM49.9756 1.73186V0.806885C52.4646 0.921911 54.4606 0.979557 55.9627 0.979557C56.8266 0.979557 57.6344 0.969112 58.3863 0.948354C59.3811 0.906707 60.0716 0.885156 60.4569 0.885156C62.2884 0.885156 63.6689 1.36576 64.5982 2.32762C65.5189 3.29926 65.979 4.61043 65.979 6.26153C65.979 7.36909 65.7697 8.34867 65.3514 9.20106C64.9332 10.0525 64.3302 10.7706 63.5409 11.3559C62.9675 11.7741 62.1503 12.1451 61.0887 12.4689L65.7806 19.2695C66.3626 20.1154 66.7292 20.6118 66.8795 20.7575C67.1145 20.9774 67.42 21.1653 67.7952 21.322C68.3213 21.5516 69.2097 21.8178 70.4587 22.1207V23.0459C68.9746 22.9306 67.895 22.8732 67.2188 22.8732C66.439 22.8732 65.6412 22.9306 64.824 23.0459C64.4012 22.2623 63.8284 21.2771 63.1055 20.0914C62.3816 18.9055 61.9403 18.2026 61.7807 17.9835C61.6868 17.8582 61.5976 17.7278 61.5134 17.5919L58.4142 12.8592C57.5783 12.8384 56.7331 12.7705 55.8787 12.6552L55.9913 20.5537C56.0101 20.867 56.0941 21.102 56.2444 21.2588C56.47 21.4683 57.1744 21.6931 58.3575 21.9329C58.5272 21.9641 58.7851 22.0272 59.1323 22.1207V23.0459C57.4324 22.9306 55.9345 22.8732 54.6387 22.8732C53.2486 22.8732 51.6949 22.9306 49.9756 23.0459V22.1207L50.5815 21.9801C51.9248 21.6977 52.6874 21.465 52.8707 21.2827C53.0539 21.0998 53.1596 20.7735 53.1875 20.3032C53.2063 20.0002 53.23 17.3152 53.2581 12.2474L53.2019 4.88161C53.1928 3.75329 53.1668 3.1057 53.1244 2.93845C53.0821 2.77146 52.9907 2.64586 52.8498 2.56203C52.3892 2.29073 51.6618 2.0661 50.6662 1.88853C50.5161 1.85667 50.286 1.80484 49.9756 1.73186Z" fill="#7B7B7B"/>
<path id="Fill-4" fill-rule="evenodd" clip-rule="evenodd" d="M79.4846 10.6179H82.8937C84.2081 10.6179 84.9828 10.5787 85.218 10.5003C85.4521 10.422 85.6426 10.2628 85.7886 10.0222C85.9337 9.7822 86.1141 9.08741 86.3305 7.93767C86.3586 7.82344 86.401 7.64588 86.4577 7.40511H87.387C87.2835 9.12906 87.2325 10.4556 87.2325 11.3854C87.2325 12.3474 87.2835 13.6636 87.387 15.3348H86.4577C86.1846 13.8203 86.0158 12.9744 85.9502 12.796C85.8563 12.5456 85.6916 12.365 85.4573 12.2555C85.2223 12.1459 84.523 12.0907 83.3586 12.0907H79.4982L79.5687 21.3062H85.4716L85.9927 21.29C86.7999 21.29 87.3072 21.2541 87.5142 21.1806C87.8708 21.0453 88.1856 20.8175 88.4578 20.4994C88.7304 20.1803 89.2328 19.2792 89.9652 17.7959C90.0398 17.6494 90.1527 17.4352 90.303 17.1529H91.2754C91.1626 17.4871 90.5803 19.4517 89.5282 23.046C86.1098 22.9307 82.9869 22.8733 80.1602 22.8733C78.188 22.8733 76.0094 22.9307 73.624 23.046V22.1207L75.906 21.5724C76.2725 21.4579 76.4975 21.3428 76.5824 21.2276C76.7233 21.0293 76.7936 20.6168 76.7936 19.9898V19.7077L76.8642 16.0248C76.8733 15.3139 76.8783 13.9195 76.8783 11.8405C76.8783 8.82113 76.8684 6.60879 76.8497 5.20308C76.831 3.79804 76.7844 3.00092 76.7087 2.81304C76.6527 2.68743 76.5658 2.58589 76.4487 2.50775C76.3309 2.42922 75.8966 2.29581 75.1457 2.1078L73.624 1.73192V0.806946C75.3892 0.921972 77.4979 0.979618 79.949 0.979618C81.2923 0.979618 84.4855 0.921972 89.5282 0.806946C89.5468 2.61485 89.6597 4.40107 89.8668 6.16653H88.8805C88.5047 4.74641 88.1993 3.80055 87.965 3.33039C87.8047 3.00647 87.6077 2.79228 87.3733 2.68743C87.0629 2.55231 86.3772 2.48356 85.3163 2.48356H79.6255L79.5263 7.53059L79.4846 10.6179Z" fill="#7B7B7B"/>
<path id="Fill-5" fill-rule="evenodd" clip-rule="evenodd" d="M95.835 1.73186V0.806885C98.1356 0.921911 99.6947 0.979557 100.512 0.979557C101.019 0.979557 102.639 0.921911 105.372 0.806885V1.73186C103.681 2.05578 102.69 2.26997 102.399 2.37402C102.193 2.44754 102.042 2.56203 101.949 2.71871C101.808 2.93845 101.728 3.39274 101.709 4.08277C101.69 4.77213 101.681 8.63796 101.681 15.68C101.681 17.0697 101.695 18.9241 101.723 21.2436H107.936C108.866 21.2436 109.471 21.1805 109.753 21.0549C110.034 20.9302 110.326 20.6535 110.627 20.2248C110.927 19.7963 111.49 18.7202 112.317 16.9962H113.514L112.388 20.4913C112.19 21.139 111.95 21.9904 111.669 23.0459C107.784 22.9306 104.402 22.8732 101.521 22.8732C99.4847 22.8732 97.5937 22.9306 95.8487 23.0459V22.1207C97.2797 21.8289 98.1207 21.6274 98.3736 21.5178C98.6259 21.4076 98.7963 21.2588 98.8853 21.0709C98.9738 20.8831 99.0183 20.3346 99.0183 19.4253L99.0887 9.81823L99.0464 3.62768C99.0464 3.09512 98.9758 2.76102 98.835 2.62497C98.6193 2.41647 97.9245 2.19646 96.7508 1.96707C96.5438 1.92542 96.2383 1.84702 95.835 1.73186Z" fill="#7B7B7B"/>
<path id="Fill-6" fill-rule="evenodd" clip-rule="evenodd" d="M126.869 0.806946V1.73192C126.539 1.81508 126.295 1.87273 126.135 1.90393C124.886 2.14456 124.163 2.37171 123.966 2.58589C123.769 2.80035 123.67 3.27843 123.67 4.01963V4.56832L123.6 10.8681L123.642 20.0212C123.642 20.7528 123.738 21.2173 123.931 21.4155C124.124 21.6146 124.783 21.7866 125.91 21.933C126.126 21.9642 126.441 22.0273 126.855 22.1207V23.046C125.342 22.9307 123.887 22.8733 122.487 22.8733C121.041 22.8733 119.453 22.9307 117.726 23.046V22.1207C117.998 22.0376 118.205 21.9857 118.346 21.9642C119.679 21.7242 120.442 21.502 120.635 21.2981C120.827 21.0942 120.923 20.58 120.923 19.7549L120.895 18.9712L120.938 13.219C120.938 7.30595 120.923 4.03576 120.895 3.4088C120.876 3.06411 120.776 2.79704 120.594 2.60916C120.411 2.42115 119.704 2.19652 118.469 1.93513C118.301 1.89362 118.053 1.82566 117.726 1.73192V0.806946C119.767 0.921972 121.361 0.979618 122.509 0.979618C123.788 0.979618 125.241 0.921972 126.869 0.806946Z" fill="#7B7B7B"/>
<path id="Fill-7" fill-rule="evenodd" clip-rule="evenodd" d="M137.266 14.4415C138.571 14.4838 139.504 14.5046 140.068 14.5046C140.236 14.5046 141.676 14.4838 144.389 14.4415L140.826 5.03971L137.266 14.4415ZM140.979 0.430969H141.866C143.134 4.05643 144.694 8.1679 146.544 12.7646L149.826 20.7414C149.976 21.0237 150.14 21.2331 150.319 21.3683C150.441 21.4627 151.131 21.7138 152.39 22.1206V23.0459C150.681 22.9306 149.422 22.8732 148.615 22.8732C147.789 22.8732 146.38 22.9306 144.389 23.0459V22.1206C145.525 21.86 146.187 21.6506 146.374 21.4938C146.562 21.3373 146.656 21.1549 146.656 20.9454C146.656 20.7263 146.559 20.3553 146.36 19.8331L144.93 16.0086C142.939 15.9879 141.489 15.9774 140.582 15.9774L136.727 16.0086L135.245 19.9739C135.001 20.611 134.879 21.0085 134.879 21.1653C134.879 21.3012 134.937 21.4132 135.055 21.5019C135.173 21.5906 135.719 21.7504 136.697 21.9801C136.801 22.0112 136.945 22.0584 137.134 22.1206V23.0459C135.527 22.9306 134.395 22.8732 133.738 22.8732C132.902 22.8732 131.831 22.9306 130.526 23.0459V22.1206C131.381 21.9121 131.968 21.6769 132.288 21.4154C132.521 21.2172 132.766 20.8831 133.02 20.4127C133.555 19.3781 134.917 16.0511 137.105 10.43L140.979 0.430969Z" fill="#7B7B7B"/>
<path id="Fill-8" fill-rule="evenodd" clip-rule="evenodd" d="M35.6162 32.7061H36.8037V38.3526H39.642V39.4354H35.6162V32.7061Z" fill="#7B7B7B"/>
<path id="Fill-9" fill-rule="evenodd" clip-rule="evenodd" d="M48.939 36.0228C48.939 36.3851 48.9937 36.7172 49.1031 37.0215C49.2137 37.3248 49.3686 37.5886 49.5705 37.8105C49.771 38.0323 50.0118 38.2068 50.2917 38.3328C50.5717 38.4602 50.8841 38.5232 51.2292 38.5232C51.5755 38.5232 51.8893 38.4602 52.1719 38.3328C52.4557 38.2068 52.6965 38.0323 52.8984 37.8105C53.0989 37.5886 53.2551 37.3248 53.3645 37.0215C53.4752 36.7172 53.5299 36.3851 53.5299 36.0228C53.5299 35.688 53.4752 35.3743 53.3645 35.083C53.2551 34.7916 53.0989 34.5358 52.8984 34.3177C52.6965 34.0985 52.4557 33.928 52.1719 33.8045C51.8893 33.6813 51.5755 33.6182 51.2292 33.6182C50.8841 33.6182 50.5717 33.6813 50.2917 33.8045C50.0118 33.928 49.771 34.0985 49.5705 34.3177C49.3686 34.5358 49.2137 34.7916 49.1031 35.083C48.9937 35.3743 48.939 35.688 48.939 36.0228ZM47.6943 36.0989C47.6943 35.5608 47.7816 35.0711 47.9586 34.6315C48.1344 34.1904 48.3778 33.8151 48.689 33.5054C49.0002 33.1942 49.3713 32.9554 49.8009 32.7874C50.2319 32.6193 50.7044 32.5354 51.22 32.5354C51.7421 32.5288 52.22 32.6062 52.6536 32.7678C53.0871 32.9304 53.4609 33.1654 53.7746 33.4765C54.0898 33.7862 54.3345 34.1603 54.5102 34.5972C54.686 35.0345 54.7745 35.5227 54.7745 36.0609C54.7745 36.5871 54.686 37.0662 54.5102 37.4967C54.3345 37.9273 54.0898 38.2987 53.7746 38.6084C53.4609 38.9196 53.0871 39.161 52.6536 39.3356C52.22 39.5102 51.7421 39.5995 51.22 39.6059C50.7044 39.6059 50.2319 39.5221 49.8009 39.3541C49.3713 39.1873 49.0002 38.9498 48.689 38.6413C48.3778 38.3342 48.1344 37.9653 47.9586 37.5348C47.7816 37.1043 47.6943 36.6252 47.6943 36.0989Z" fill="#7B7B7B"/>
<path id="Fill-10" fill-rule="evenodd" clip-rule="evenodd" d="M63.4521 32.7064H65.0264L68.2605 37.7058H68.2787V32.7064H69.4675V39.4357H67.9584L64.6592 34.2748H64.6396V39.4357H63.4521V32.7064Z" fill="#7B7B7B"/>
<path id="Fill-11" fill-rule="evenodd" clip-rule="evenodd" d="M80.5706 38.3528C80.9405 38.3528 81.292 38.3096 81.6201 38.2242C81.9507 38.1389 82.2372 38.005 82.482 37.8253C82.7294 37.644 82.9221 37.4104 83.0627 37.1217C83.2033 36.8329 83.2762 36.4837 83.2762 36.0716C83.2762 35.6661 83.211 35.3169 83.086 35.0255C82.9611 34.7343 82.7866 34.498 82.5627 34.3181C82.3414 34.1369 82.0757 34.0044 81.7711 33.9192C81.4664 33.8324 81.1331 33.7905 80.7685 33.7905H79.6827V38.3528H80.5706ZM78.4951 32.7064H81.1253C81.5654 32.7064 81.9898 32.7745 82.3986 32.9112C82.8074 33.0476 83.1694 33.2549 83.4819 33.5332C83.797 33.8127 84.0496 34.1619 84.2371 34.5833C84.4246 35.0058 84.5209 35.5007 84.5209 36.0716C84.5209 36.6478 84.4116 37.1467 84.1954 37.5679C83.9767 37.9893 83.698 38.3383 83.3543 38.614C83.0132 38.8896 82.633 39.0958 82.2137 39.2309C81.797 39.3675 81.3856 39.4357 80.9847 39.4357H78.4951V32.7064Z" fill="#7B7B7B"/>
<path id="Fill-12" fill-rule="evenodd" clip-rule="evenodd" d="M94.0796 36.0228C94.0796 36.3851 94.1343 36.7172 94.2463 37.0216C94.3557 37.3249 94.5119 37.5887 94.7124 37.8105C94.913 38.0324 95.1524 38.2069 95.4338 38.3329C95.7125 38.4602 96.0247 38.5233 96.3711 38.5233C96.7175 38.5233 97.0325 38.4602 97.3138 38.3329C97.5977 38.2069 97.8398 38.0324 98.0404 37.8105C98.2408 37.5887 98.397 37.3249 98.5064 37.0216C98.6158 36.7172 98.6731 36.3851 98.6731 36.0228C98.6731 35.6881 98.6158 35.3743 98.5064 35.0831C98.397 34.7917 98.2408 34.5358 98.0404 34.3178C97.8398 34.0986 97.5977 33.928 97.3138 33.8046C97.0325 33.6813 96.7175 33.6183 96.3711 33.6183C96.0247 33.6183 95.7125 33.6813 95.4338 33.8046C95.1524 33.928 94.913 34.0986 94.7124 34.3178C94.5119 34.5358 94.3557 34.7917 94.2463 35.0831C94.1343 35.3743 94.0796 35.6881 94.0796 36.0228ZM92.835 36.099C92.835 35.5609 92.9235 35.0712 93.1005 34.6316C93.2751 34.1905 93.5198 33.8151 93.8296 33.5055C94.1422 33.1942 94.5119 32.9555 94.9442 32.7874C95.3738 32.6194 95.8478 32.5354 96.3634 32.5354C96.8842 32.5288 97.3607 32.6063 97.7956 32.7679C98.2277 32.9305 98.6028 33.1654 98.9178 33.4765C99.2304 33.7863 99.4751 34.1603 99.6523 34.5973C99.8292 35.0345 99.9153 35.5228 99.9153 36.0609C99.9153 36.5871 99.8292 37.0663 99.6523 37.4968C99.4751 37.9274 99.2304 38.2988 98.9178 38.6084C98.6028 38.9197 98.2277 39.1611 97.7956 39.3356C97.3607 39.5103 96.8842 39.5995 96.3634 39.606C95.8478 39.606 95.3738 39.5222 94.9442 39.3541C94.5119 39.1874 94.1422 38.9498 93.8296 38.6414C93.5198 38.3342 93.2751 37.9653 93.1005 37.5349C92.9235 37.1044 92.835 36.6252 92.835 36.099Z" fill="#7B7B7B"/>
<path id="Fill-13" fill-rule="evenodd" clip-rule="evenodd" d="M108.589 32.7064H110.164L113.396 37.7058H113.417V32.7064H114.604V39.4357H113.096L109.795 34.2748H109.776V39.4357H108.589V32.7064Z" fill="#7B7B7B"/>
</g>
</g>
<defs>
<clipPath id="clip0_1358_2680">
<rect width="151.579" height="40" fill="white" transform="translate(0.706055)"/>
</clipPath>
</defs>
</svg>
