<svg width="191" height="40" viewBox="0 0 191 40" fill="none" xmlns="http://www.w3.org/2000/svg">
<g id="superdrug-logo-vector 1" clip-path="url(#clip0_1358_2704)">
<path id="Vector" d="M21.7057 17.8C21.7057 14.6571 16.639 14.3428 14.2007 14.3428C11.319 14.3428 8.21566 14.8857 5.65066 15.7714C3.56066 16.4857 0.805664 17.7714 0.805664 20.1143C0.805664 23.1714 5.93566 24.8 9.76733 25.8857C14.0423 27.0857 16.8923 28.2285 16.8923 29.2C16.8923 30.9428 12.1423 30.9714 11.0657 30.9714C6.60066 30.9714 3.78233 30.1428 3.40233 30.1428C2.54733 30.1428 2.07233 32.2285 2.92733 32.4571C5.524 33.1428 8.089 33.4285 10.559 33.4285C16.5757 33.4285 19.9007 31.9143 19.9007 29.0571C19.9007 26.7428 16.164 25.1428 11.6357 23.8C8.184 22.7714 3.814 21.8571 3.814 20.1143C3.814 19.0571 5.46066 18.3714 6.72733 17.9428C8.88066 17.1714 11.5723 16.8 13.979 16.8C14.7073 16.8 18.729 16.8 18.729 18C18.729 18.3143 18.4757 18.5714 17.969 19.0285C17.4307 19.5143 18.7923 21.0571 19.7423 20.6C20.7873 20.1143 21.7057 19.1428 21.7057 17.8ZM49.0023 31.5714C49.034 32.1143 49.0657 32.6857 49.0657 33.1714V36.5714C49.0657 37.1428 48.8123 37.5143 47.5457 37.5143C46.4373 37.5143 46.279 37.0285 46.279 36.7143V27.9143C46.279 27.4 46.849 26.9714 47.799 26.9714C48.4007 26.9714 49.0657 27.2571 49.0657 28.2857C49.0657 29.4571 50.269 30.3428 52.8973 30.3428C53.974 30.3428 55.209 30.4285 55.969 29.8571C56.634 29.3714 56.6657 28.4571 56.6657 27.0571C56.6657 24.4857 56.0323 23.5714 52.3273 23.5714C50.649 23.5714 48.7807 23.4857 47.1973 24.1714C43.714 25.6857 42.6057 32.6571 38.6157 32.6571C36.2723 32.6571 34.689 30.0857 34.3407 26.2857H34.2457C33.169 29.9428 31.5857 32.6571 28.6723 32.6571C24.3973 32.6571 23.0673 27 22.624 22.4285C22.5607 21.8285 22.719 21.4285 24.3973 21.3428C24.9673 21.3143 25.4423 21.4 25.474 21.8285C25.854 26.4285 26.709 30.3428 28.8623 30.3428C31.2057 30.3428 32.7257 24 33.2323 22C33.454 21.0857 36.209 21.2 36.2407 22.2C36.3357 24.3428 36.8107 30.4 38.9323 30.4C40.6423 30.4 42.3207 24 46.374 22.2C47.4823 21.7143 48.7807 21.3143 52.169 21.3143C53.6257 21.3143 56.1907 21.4 57.8373 22.3714C58.9773 23.0571 59.484 24.5428 59.484 27.0285C59.484 30.9143 57.8057 32.6 53.4673 32.6C51.3773 32.6 49.9207 32.2857 49.0023 31.4857V31.5714ZM163.952 36.5714C166.201 36.5714 168.164 34.2571 168.417 32.2285C165.472 32.0857 162.274 33.4285 162.274 35.2857C162.274 35.8571 162.939 36.5714 163.952 36.5714ZM121.044 24.2571C121.772 24.2571 120.569 32.6571 124.369 32.6571C128.739 32.6571 128.359 23.8 132.476 23.7714C132.887 23.7714 133.806 23.8285 133.901 23.8285C134.439 23.8285 134.629 23.4285 134.819 22.5428C135.041 21.6 134.439 21.2857 132.856 21.2857C129.277 21.2857 128.042 23.6857 127.251 25.1714C125.794 27.9143 125.192 30.4857 124.654 30.4857C123.292 30.4857 125.192 21.6571 121.361 21.6571C117.877 21.6571 116.326 30.2857 113.729 30.2857C112.969 30.2857 112.621 28.4857 112.621 26.4571V16.6857C112.621 16.1143 112.336 15.8 111.101 15.8C109.992 15.8 109.771 16.2857 109.771 16.6V20.2285C109.771 20.8857 109.802 21.9428 109.866 22.4285L109.802 22.4571C108.852 21.8 106.541 21.4 104.292 21.4C99.099 21.4 97.4207 22.5714 97.4207 26.9143C97.4207 29.8 97.959 30.6285 98.9407 31.4285C100.334 32.5428 102.456 32.6571 104.166 32.6857C105.781 32.6857 107.871 32.5714 108.536 32.2C108.947 31.9714 108.947 31.6857 108.947 31.4285C108.947 30.8 108.662 30.0285 107.997 30.0571C107.554 30.0571 106.572 30.3714 104.007 30.3714C100.936 30.3714 100.461 29.6857 100.461 27.1143C100.461 24.2285 101.062 23.6857 104.767 23.6857C107.079 23.6857 108.757 24.0285 109.296 24.8285C109.802 25.5428 109.707 25.7428 109.961 28.5143C110.182 30.7428 111.227 32.6857 113.254 32.6857C117.687 32.6571 119.936 24.2571 121.044 24.2571ZM158.981 29.6857C157.366 29.3428 154.927 28.6 154.927 25.8285C154.927 22.6 157.049 21.3714 162.717 21.3714C165.726 21.3714 167.689 21.8 169.241 22.8285C171.267 24.1428 171.457 27.9143 171.394 30C172.376 29.9714 174.022 30 174.846 30C175.732 30 175.827 30.5428 175.827 31.0285C175.827 31.5714 175.764 32.3143 174.972 32.3143C173.737 32.3143 171.299 32.2571 171.046 32.2857C170.159 35.7428 167.436 38.7143 163.889 38.7143C161.641 38.7143 159.551 37.5714 159.551 35.4C159.551 32.3428 163.889 30.2285 168.639 30.1143C168.702 29.0285 168.544 26.6571 168.101 25.6857C167.182 23.8 165.156 23.6 162.749 23.6C158.157 23.6 157.841 24.4571 157.841 26.0285C157.841 28.5428 161.767 27.9143 161.767 29.5428C161.767 31.3428 157.556 32.4285 155.719 32.4C150.969 32.3714 148.626 29.6571 148.182 25.9714H148.056C146.947 29.6571 145.206 32.7143 142.229 32.7143C138.271 32.7143 136.592 27.1428 136.466 22.4857C136.434 21.8857 136.687 21.4857 137.732 21.4285C138.746 21.3714 139.252 21.6285 139.252 22.2571C139.379 27.1714 140.836 30.4 142.577 30.4C144.351 30.4 145.776 26.4857 146.916 22.0857C147.169 21.1428 149.702 21.2571 149.734 22.2571C149.892 27.6 151.666 30.5143 155.561 30.5143C156.986 30.5143 157.841 30.2857 158.949 29.8V29.6857H158.981ZM83.6773 24.6571C84.279 24.6571 82.4423 32.6571 86.3057 32.6571C90.739 32.6571 90.644 23.7428 94.2857 23.7428C94.9823 23.7428 95.3307 23.8 95.584 23.8C96.4073 23.8 96.5973 23.1143 96.5973 22.3428C96.5973 21.4 96.344 21.2285 94.7607 21.2285C91.3407 21.2285 90.0423 23.6285 89.5357 24.7428C88.7123 26.5143 87.2557 30.4857 86.654 30.4857C86.0207 30.4857 86.0207 27.8285 86.0207 26.3714C86.0207 24.8285 86.2107 22.1143 83.994 22.1143C81.3023 22.1143 80.764 27.4571 76.7107 29.4571C75.1907 30.2285 72.9107 30.7143 70.219 30.7143C65.7223 30.7143 64.899 30.1714 64.899 26.8857C64.899 25.7714 64.804 25 65.279 24.4C66.0073 23.4857 68.4457 23.4571 69.6807 23.4571C72.6573 23.4571 72.974 23.9143 72.974 24.9428C72.974 26.1714 72.6257 26.2857 70.9473 26.2857C70.3457 26.2857 69.3007 26.2285 69.3007 27.0857C69.3007 27.9714 69.6173 28.0857 70.8523 28.0857C73.354 28.0857 75.7607 27.1428 75.7607 24.7714C75.7607 22.3143 74.779 21.2857 69.4273 21.2857C66.6407 21.2857 62.9357 21.6571 62.239 24.4285C62.049 25.2285 61.9857 26.6 61.9857 27.3143C61.9857 31.6 64.4557 32.6857 70.504 32.6857C73.8923 32.6857 76.394 32.1143 78.2307 30.9428C82.0623 28.6 83.139 24.6571 83.6773 24.6571ZM179.817 3.25712C180.324 4.51426 181.591 7.02855 182.509 7.59998C183.332 8.11426 186.246 7.99997 187.892 7.94283C186.847 8.82854 184.536 9.99998 184.092 11.4857C183.744 12.7143 184.852 15.2 185.359 16.3714C184.251 15.6 181.686 14.0857 180.672 14.0857C179.374 14.0857 177.126 16 176.207 16.7428C176.461 15.8571 177.442 13 176.999 11.8C176.556 10.6 174.592 9.62855 172.534 8.34283C174.592 8.11426 177.379 8.25712 178.139 7.59998C178.899 6.9714 179.437 4.45712 179.817 3.25712ZM180.641 16.3428C180.609 16.3143 185.612 19.6857 187.386 18.9143C189.191 18.1143 186.689 12.5714 186.657 11.8285C187.987 10.6857 190.774 8.65711 190.774 7.22854C190.774 5.82854 188.462 5.51426 184.029 5.59998C183.301 4.22855 181.274 0.114258 179.691 0.114258C177.981 0.114258 176.714 4.5714 176.461 5.68569C172.376 5.88569 169.241 6.19997 169.241 7.85712C169.241 9.31426 172.471 11.5428 174.402 12.4571C174.086 14.0857 173.072 18.1714 174.212 19C175.669 20.1143 179.152 17.4 180.641 16.3428Z" fill="#7B7B7B"/>
</g>
<defs>
<clipPath id="clip0_1358_2704">
<rect width="190" height="40" fill="white" transform="translate(0.805664)"/>
</clipPath>
</defs>
</svg>
