<svg width="147" height="40" viewBox="0 0 147 40" fill="none" xmlns="http://www.w3.org/2000/svg">
<g id="marionnaud 1" clip-path="url(#clip0_1358_2706)">
<g id="Group">
<g id="Group_2">
<path id="Vector" d="M61.4414 36.0515H61.7186C62.6061 36.0515 63.5681 35.8853 63.5681 34.7809C63.5681 33.6956 62.5314 33.5677 61.6725 33.5677H61.4414V36.0515ZM61.4414 39.7335H60.5713V32.7924H61.5699C63.7159 32.7924 64.3818 33.5297 64.3818 34.8C64.3818 36.2632 63.2637 36.8232 61.9391 36.8232H61.4414V39.7335Z" fill="#7B7B7B"/>
</g>
<g id="Group_3">
<path id="Vector_2" d="M69.4766 34.3953L68.2371 37.2006H70.7158L69.4766 34.3953ZM67.8774 37.9939L67.0806 39.7333H66.1455L69.4766 32.4983L72.8059 39.7333H71.8714L71.077 37.9939H67.8774Z" fill="#7B7B7B"/>
</g>
<g id="Group_4">
<path id="Vector_3" d="M76.5658 36.0789H76.8427C77.732 36.0789 78.6934 35.9121 78.6934 34.8083C78.6934 33.7224 77.6587 33.5674 76.7978 33.5674H76.5658V36.0789ZM80.0346 39.7333H78.9807L76.9269 36.7962H76.5658V39.7333H75.6963V32.7921H76.7523C77.3712 32.7921 78.0367 32.8021 78.5912 33.1142C79.1752 33.4568 79.5068 34.1089 79.5068 34.7724C79.5068 35.7668 78.8418 36.5948 77.834 36.7127L80.0346 39.7333Z" fill="#7B7B7B"/>
</g>
<g id="Group_5">
<path id="Vector_4" d="M83.5266 32.7921H84.3955V39.7333H83.5266V32.7921Z" fill="#7B7B7B"/>
</g>
<g id="Group_6">
<path id="Vector_5" d="M91.4223 34.1088C91.1637 33.6771 90.8298 33.4568 90.3037 33.4568C89.7493 33.4568 89.1389 33.8332 89.1389 34.4406C89.1389 34.9844 89.6751 35.2682 90.1104 35.4341L90.6093 35.6285C91.5973 36.0135 92.3382 36.5568 92.3382 37.7179C92.3382 38.9782 91.3579 39.8809 90.1104 39.8809C88.9817 39.8809 88.1019 39.0526 87.9541 37.9379L88.8334 37.7538C88.8233 38.5174 89.4345 39.0691 90.184 39.0691C90.9323 39.0691 91.4681 38.4447 91.4681 37.7179C91.4681 36.9706 90.8679 36.6488 90.2676 36.4024L89.7853 36.1988C88.9906 35.8574 88.2692 35.4082 88.2692 34.4406C88.2692 33.3179 89.2681 32.6444 90.3229 32.6444C91.0993 32.6444 91.7377 33.0226 92.1172 33.6956L91.4223 34.1088Z" fill="#7B7B7B"/>
</g>
<g id="Group_7">
<path id="Vector_6" d="M23.5302 0.323206C23.3692 -0.0191475 23.1679 -0.0629708 22.7837 0.0696762L21.6653 0.445559C20.1196 0.995264 18.7935 2.1782 17.6985 3.20938C12.5188 8.16879 4.96223 20.8479 1.13697 30.3964C0.869207 31.0529 0.805664 31.3603 0.805664 31.5426C0.805664 32.0497 1.28888 32.2541 2.12617 32.1247C5.51283 23.9814 12.6784 9.70673 19.2422 3.87556L20.1557 3.07762H20.3049V3.52468C20.3049 5.06762 19.9503 8.48556 19.4159 11.3741C18.704 15.1091 17.6728 19.5953 17.3415 21.1067C16.9248 22.9656 16.7755 24.6238 16.7755 25.0785C16.7755 25.5567 16.8943 25.6844 17.4517 25.6209C18.2896 25.522 19.4753 24.972 19.8867 24.6647C20.3049 24.3329 20.7551 23.9523 21.566 22.2906C22.6912 19.9564 25.8136 13.2306 29.4471 8.77291L29.9826 8.1038H30.1194L29.9826 8.96526C29.7991 10.3476 29.5354 12.2647 29.5354 14.6341C29.5354 17.8094 29.8301 21.235 30.631 23.3767C31.2201 24.9106 32.0151 25.5567 32.9203 25.5567C33.7245 25.5567 34.3975 25.1664 34.9422 24.4709C33.5614 22.5017 32.7995 18.1656 32.7995 14.1211C32.7995 11.8809 32.8867 9.92615 33.1133 8.23791C33.1819 7.7482 33.3646 6.50232 33.3646 5.86527C33.3646 5.48085 33.3137 5.18644 32.9203 5.26144C32.5042 5.29085 31.4305 5.67144 31.0247 5.86527C29.8301 6.37232 29.1208 7.0735 27.4855 9.16203C26.0362 10.9864 22.9102 15.9523 20.0242 22.3176H19.8867L20.7551 18.9273C22.7269 11.3085 23.842 6.20938 23.842 2.87938C23.842 1.31791 23.5846 0.517029 23.5302 0.323206Z" fill="#7B7B7B"/>
</g>
<g id="Group_8">
<path id="Vector_7" d="M45.3112 22.8688V19.0879L42.5195 19.4009C40.5887 19.6273 39.778 20.1147 39.778 21.2056C39.778 22.4056 40.6147 23.0894 42.8963 23.0894C43.673 23.0894 44.3767 22.9959 45.3112 22.8688ZM38.1753 13.097C39.2617 12.5594 40.928 12.2982 42.4495 12.2982C46.6279 12.2982 47.8183 14.5747 47.8183 17.0062V24.3709C46.2759 24.6641 44.2836 24.8503 42.3108 24.8503C39.9098 24.8503 37.1494 24.2409 37.1494 21.2056C37.1494 19.6273 38.0103 18.2512 41.6116 17.8082L45.3112 17.3567V17.0738C45.3112 14.9547 44.2836 14.2476 42.0898 14.2476C40.9064 14.2476 39.3634 14.5347 38.1753 15.205V13.097Z" fill="#7B7B7B"/>
</g>
<g id="Group_9">
<path id="Vector_8" d="M55.9732 12.298C56.4816 12.298 57.4495 12.3294 58.0669 12.52V14.5347C57.2899 14.3709 56.7142 14.2468 55.6393 14.2468C54.6716 14.2468 53.9263 14.4112 53.0018 14.6912V24.6644H50.4775V13.4783C51.7321 12.9006 53.3257 12.298 55.9732 12.298Z" fill="#7B7B7B"/>
</g>
<g id="Group_10">
<path id="Vector_9" d="M67.2867 18.5085C67.2867 21.2347 68.7635 22.8862 71.4952 22.8862C73.2768 22.8862 75.4287 21.8082 75.4287 18.64C75.4287 15.9182 73.9495 14.2474 71.2154 14.2474C69.4042 14.2474 67.2867 15.3427 67.2867 18.5085ZM71.5354 12.2974C75.564 12.2974 78.0274 15.0547 78.0274 18.5085C78.0274 22.2291 75.4913 24.8503 71.3096 24.8503C67.3038 24.8503 64.708 22.0885 64.708 18.6068C64.708 14.8977 67.3038 12.2974 71.5354 12.2974Z" fill="#7B7B7B"/>
</g>
<g id="Group_11">
<path id="Vector_10" d="M85.8783 12.298C89.8516 12.298 91.6391 13.548 91.6391 17.4577V24.6644H89.1373V17.618C89.1373 14.8292 87.6273 14.2468 85.4285 14.2468C84.5004 14.2468 83.6324 14.443 82.7053 14.7377V24.6644H80.1846V13.453C81.4421 12.808 83.8866 12.298 85.8783 12.298Z" fill="#7B7B7B"/>
</g>
<g id="Group_12">
<path id="Vector_11" d="M99.9987 12.298C103.956 12.298 105.761 13.548 105.761 17.4577V24.6644H103.245V17.618C103.245 14.8292 101.764 14.2468 99.5802 14.2468C98.6392 14.2468 97.7416 14.443 96.8086 14.7377V24.6644H94.3018V13.453C95.59 12.808 97.9976 12.298 99.9987 12.298Z" fill="#7B7B7B"/>
</g>
<g id="Group_13">
<path id="Vector_12" d="M144.289 22.5512V14.7659C143.456 14.4421 142.584 14.2482 141.559 14.2482C139.534 14.2482 136.925 14.8665 136.925 18.545C136.925 21.7062 139.012 22.8862 141.716 22.8862C142.584 22.8862 143.39 22.7712 144.289 22.5512ZM141.559 24.8503C137.021 24.8503 134.345 22.5777 134.345 18.8318C134.345 14.353 137.608 12.2977 141.328 12.2977C142.584 12.2977 143.526 12.4903 144.289 12.8077V5.83472H146.797V24.2409C144.935 24.6644 143.331 24.8503 141.559 24.8503Z" fill="#7B7B7B"/>
</g>
<g id="Group_14">
<path id="Vector_13" d="M108.917 13.0974C110.019 12.5595 111.688 12.2977 113.194 12.2977C117.374 12.2977 118.566 14.5751 118.566 17.006V24.3713C117.027 24.6645 115.043 24.8504 113.063 24.8504C110.646 24.8504 107.892 24.2401 107.892 21.2057C107.892 19.6277 108.755 18.2513 112.358 17.8092L116.068 17.3574V17.0739C116.068 14.9551 115.043 14.2474 112.845 14.2474C111.654 14.2474 110.114 14.5351 108.917 15.2054V13.0974ZM116.03 22.8689V19.088L113.238 19.4013C111.295 19.6277 110.494 20.1148 110.494 21.2057C110.494 22.4063 111.358 23.0895 113.616 23.0895C114.381 23.0895 115.097 22.996 116.03 22.8689Z" fill="#7B7B7B"/>
</g>
<g id="Group_15">
<path id="Vector_14" d="M60.0212 24.6642L60.0244 12.5195L62.5457 12.5202L62.5425 24.6649L60.0212 24.6642Z" fill="#7B7B7B"/>
</g>
<g id="Group_16">
<path id="Vector_15" d="M60.024 7.37292H62.5361V9.73763H60.024V7.37292Z" fill="#7B7B7B"/>
</g>
<g id="Group_17">
<path id="Vector_16" d="M126.584 24.8839C122.612 24.8839 120.915 23.6339 120.915 19.7212V12.5192H123.417V19.5642C123.417 22.3506 124.837 22.9318 127.033 22.9318C127.961 22.9318 128.741 22.738 129.666 22.4415V12.5192H132.186V23.7274C130.925 24.3733 128.578 24.8839 126.584 24.8839Z" fill="#7B7B7B"/>
</g>
</g>
</g>
<defs>
<clipPath id="clip0_1358_2706">
<rect width="146" height="40" fill="white" transform="translate(0.805664)"/>
</clipPath>
</defs>
</svg>
