<svg width="632" height="424" viewBox="0 0 632 424" fill="none" xmlns="http://www.w3.org/2000/svg">
<path d="M4.38827 31.585C5.85478 16.2797 18.9198 5.04127 34.3437 4.99518C107.522 4.7765 168.92 3.72185 227.328 2.71854C341.226 0.762076 443.756 -0.999113 600.099 4.01471C616.532 4.54171 629.745 17.7231 630.123 34.1501C631.123 77.6102 632.377 157.377 629.338 197.112C626.211 237.989 627.618 338.882 628.627 391.247C628.965 408.812 614.743 423.253 597.173 423.215C527.122 423.063 469.083 422.452 413.597 421.867C302.932 420.701 202.425 419.642 37.0315 422.553C18.0136 422.888 2.84541 406.321 4.45458 387.348C6.81681 359.495 9.17331 320.645 7.59683 288.59C7.32539 283.07 6.92155 275.791 6.4433 267.171C4.22621 227.21 0.410127 158.427 0.774288 102.538C0.960683 73.932 2.70907 49.1101 4.38827 31.585Z" fill="white" stroke="#7B7B7B" stroke-width="1.5"/>
</svg>
