<svg width="24" height="24" viewBox="0 0 24 24" fill="none" xmlns="http://www.w3.org/2000/svg">
<g id="check(1) 1">
<path id="Vector" fill-rule="evenodd" clip-rule="evenodd" d="M23.4477 1.70382C23.5948 1.81686 23.7182 1.95778 23.8108 2.11852C23.9033 2.27926 23.9634 2.45668 23.9873 2.64063C24.0113 2.82459 23.9989 3.01146 23.9506 3.19057C23.9023 3.3697 23.8192 3.53754 23.7061 3.68452L9.58842 22.0375C9.46588 22.1967 9.31087 22.3279 9.13369 22.4223C8.95637 22.5169 8.76098 22.5724 8.56051 22.5854C8.36013 22.5984 8.15923 22.5684 7.9713 22.4976C7.78336 22.4267 7.61271 22.3164 7.47074 22.1744L0.411919 15.1156C0.154752 14.8493 0.0124596 14.4927 0.0156784 14.1226C0.0188832 13.7524 0.167359 13.3983 0.429114 13.1366C0.690869 12.8748 1.04495 12.7263 1.41512 12.7231C1.78528 12.7198 2.1419 12.8621 2.40815 13.1194L8.33051 19.0417L21.467 1.96217C21.58 1.81508 21.721 1.69172 21.8816 1.59911C22.0424 1.50651 22.2199 1.44649 22.4039 1.42251C22.5878 1.39851 22.7746 1.411 22.9537 1.45928C23.1329 1.50755 23.3008 1.59065 23.4477 1.70382Z" fill="#9762FD"/>
</g>
</svg>
