<svg width="154" height="32" viewBox="0 0 154 32" fill="none" xmlns="http://www.w3.org/2000/svg">
<g id="thred [&#208;&#191;&#209;&#128;&#208;&#181;&#208;&#190;&#208;&#177;&#209;&#128;&#208;&#176;&#208;&#183;&#208;&#190;&#208;&#178;&#208;&#176;&#208;&#189;&#208;&#189;&#209;&#139;&#208;&#185;] 1">
<g id="Group">
<path id="Vector" d="M25.5859 0.408203C28.3973 0.408203 31.2087 0.439576 34.02 0.408203C34.0825 4.17291 34.02 7.96899 34.0513 11.7337C36.8938 8.4082 42.173 7.21605 45.9527 9.60036C48.2018 11.0435 48.9515 13.8357 49.0139 16.3455C49.0452 21.2709 49.0139 26.1964 49.0139 31.0906C46.1713 31.1219 43.36 31.0906 40.5174 31.0906C40.5174 27.1062 40.5174 23.1219 40.5174 19.1376C40.4861 17.8827 40.4237 16.4082 39.3616 15.5611C37.9872 14.6513 35.863 14.9651 34.9259 16.3768C34.2074 17.4749 34.1137 18.8239 34.0513 20.0788C34.0513 23.7494 34.0513 27.42 34.0513 31.0906C31.2399 31.1219 28.4285 31.1219 25.6172 31.0906C25.5859 20.8317 25.5859 10.6357 25.5859 0.408203Z" fill="#242627"/>
<g id="Group_2">
<path id="Vector_2" d="M126.701 0.408203C129.544 0.408203 132.417 0.408203 135.26 0.408203C135.26 10.6357 135.26 20.8631 135.26 31.0592C132.636 31.1219 129.981 31.0906 127.357 31.0906C127.357 29.9925 127.357 28.9259 127.357 27.8592C124.889 31.3729 119.954 32.6278 116.111 30.7141C112.863 28.9572 111.301 25.1611 110.957 21.6474C110.645 18.0082 111.051 13.8984 113.675 11.1376C116.955 7.43565 123.327 7.43565 126.701 11.0121C126.732 7.46703 126.732 3.92193 126.701 0.408203ZM121.797 14.8709C120.079 15.4984 119.454 17.4749 119.391 19.1376C119.329 21.02 119.329 23.2788 120.922 24.5964C122.515 26.0709 125.326 25.2239 126.17 23.3102C126.982 21.4906 126.951 19.3572 126.451 17.4435C125.92 15.5298 123.702 14.1494 121.797 14.8709Z" fill="#242627"/>
</g>
<path id="Vector_3" d="M5.09247 4.76899C7.93506 3.32585 10.7464 1.85134 13.589 0.408203C13.6203 3.23173 13.589 6.05526 13.589 8.87879C15.1509 8.87879 16.7127 8.87879 18.2746 8.87879C18.3059 10.9494 18.2746 13.02 18.2746 15.0906C16.7127 15.0906 15.1509 15.0906 13.6203 15.0906C13.6515 18.1964 13.4641 21.3023 13.714 24.3768C14.3075 26.2278 16.619 25.3494 17.9622 25.067C18.1809 27.0121 18.3683 28.9572 18.5558 30.9023C15.2134 31.467 11.6523 32.0631 8.37238 30.9023C6.18577 30.0553 5.31113 27.6082 5.15494 25.4121C4.96752 21.9611 5.09247 18.5102 5.06123 15.0592C4.0304 15.0592 2.96833 15.0592 1.9375 15.0592C1.9375 12.9886 1.90626 10.918 1.96873 8.84742C2.99957 8.84742 4.0304 8.84742 5.09247 8.84742C5.09247 7.4984 5.09247 6.11801 5.09247 4.76899Z" fill="#242627"/>
<path id="Vector_4" d="M68.5345 8.78472C70.5962 7.87491 72.9077 8.56511 74.8132 9.53766C74.0011 11.5455 73.0639 13.522 72.2205 15.5298C70.8461 15.0279 69.0968 14.5573 67.8473 15.6239C66.3791 17.0043 66.1917 19.169 65.9731 21.0514C65.8169 24.4082 65.9418 27.7337 65.9106 31.0906C63.068 31.1533 60.1942 31.122 57.3516 31.122C57.3516 23.7181 57.3516 16.3141 57.3516 8.91021C60.0067 8.91021 62.6931 8.91021 65.3483 8.91021C65.3171 10.071 65.3171 11.2318 65.3796 12.3926C66.1917 10.9808 67.0039 9.44354 68.5345 8.78472Z" fill="#242627"/>
<g id="Group_3">
<path id="Vector_5" d="M83.2142 10.9181C86.6503 8.18873 91.3671 8.00049 95.5529 8.65932C98.5517 9.09853 101.457 10.7299 103.05 13.3966C104.674 15.9691 104.799 19.1064 104.862 22.0554C99.1452 22.0868 93.46 22.024 87.7436 22.0868C87.7123 25.0358 90.6799 27.4515 93.5225 26.3848C94.9594 26.2593 95.4904 24.1887 97.0211 24.6593C99.4576 24.9103 101.894 25.1299 104.331 25.3495C103.144 27.2946 101.644 29.1456 99.5825 30.1809C97.146 31.4044 94.3659 31.5613 91.6795 31.5926C88.8056 31.5299 85.7131 31.2162 83.4016 29.3652C77.7789 25.0358 77.6227 15.3103 83.2142 10.9181ZM88.7744 14.9652C88.0872 15.8436 87.931 16.973 87.7436 18.0083C90.5549 18.0083 93.3663 18.0397 96.1777 18.0083C95.9902 16.8162 95.7716 15.4985 94.9282 14.5574C93.3663 12.8632 90.1489 13.0201 88.7744 14.9652Z" fill="#242627"/>
</g>
<path id="Vector_6" d="M143.725 22.5889C146.755 22.5889 149.754 22.5889 152.784 22.5889C152.752 25.4124 152.784 28.2359 152.784 31.0595C149.754 31.0908 146.755 31.0908 143.725 31.0595C143.694 28.2359 143.725 25.4124 143.725 22.5889Z" fill="#242627"/>
</g>
</g>
</svg>
