<svg width="142" height="32" viewBox="0 0 142 32" fill="none" xmlns="http://www.w3.org/2000/svg">
<g id="UNICEF-Logo.wine 3" clip-path="url(#clip0_1358_2160)">
<path id="Vector" d="M121.785 0.201172C114.441 0.201172 108.393 6.16695 108.393 13.6513C108.393 21.0272 114.333 27.1014 121.785 27.1014C129.129 27.1014 135.177 21.1356 135.177 13.6513C135.177 6.16695 129.129 0.201172 121.785 0.201172ZM132.153 6.16695C131.505 6.60083 130.749 7.0347 129.993 7.46858C129.561 6.60083 129.021 5.73308 128.373 4.9738C128.913 4.64839 129.453 4.21452 129.885 3.88911C130.857 4.43145 131.613 5.2992 132.153 6.16695ZM126.537 1.71973C127.617 2.15361 128.589 2.69595 129.561 3.45523C129.129 3.88911 128.589 4.21452 128.049 4.53992C127.401 3.78064 126.645 3.12983 125.889 2.47902C126.105 2.15361 126.321 1.93667 126.537 1.71973ZM127.617 4.75686C126.861 5.19073 126.105 5.40767 125.349 5.73308C125.025 4.9738 124.701 4.21452 124.269 3.5637C124.701 3.34677 125.133 3.12983 125.457 2.80442C126.213 3.34677 126.969 3.99758 127.617 4.75686ZM125.997 1.5028C125.781 1.71973 125.565 1.93667 125.457 2.15361C124.701 1.71973 124.053 1.28586 123.189 0.960453C124.161 0.960453 125.133 1.17739 125.997 1.5028ZM125.025 2.47902C124.701 2.69595 124.377 2.91289 124.053 3.02136C123.621 2.37055 123.189 1.8282 122.757 1.17739C123.513 1.5028 124.269 1.93667 125.025 2.47902ZM122.001 1.28586C122.541 1.8282 122.973 2.47902 123.405 3.2383C122.973 3.34677 122.541 3.45523 122.001 3.45523V1.28586ZM122.001 3.99758C122.541 3.99758 123.189 3.88911 123.729 3.67217C124.161 4.32298 124.485 5.08227 124.809 5.84155C123.945 6.05848 122.973 6.16695 122.001 6.27542V3.99758ZM121.461 1.28586V3.45523C121.029 3.45523 120.597 3.34677 120.057 3.2383C120.597 2.58748 121.029 1.93667 121.461 1.28586ZM119.625 3.02136C119.301 2.91289 118.869 2.69595 118.653 2.47902C119.409 2.04514 120.165 1.61127 120.921 1.28586C120.381 1.8282 119.949 2.37055 119.625 3.02136ZM120.381 0.851984C119.625 1.17739 118.869 1.61127 118.113 2.04514C117.897 1.8282 117.681 1.61127 117.573 1.39433C118.437 1.17739 119.409 0.960453 120.381 0.851984ZM129.561 23.8474C127.833 22.8711 127.725 21.461 127.833 21.0272C127.941 20.4848 128.265 20.7018 128.481 20.7018C129.669 20.7018 130.857 20.3764 132.369 18.7493C134.097 17.0138 134.637 13.109 131.937 10.6142C129.129 7.90245 126.105 8.33633 124.161 10.8311C123.729 11.3735 122.757 11.6989 122.001 11.6989C120.705 11.6989 121.569 12.6751 121.569 12.892C121.569 13.109 121.353 13.2174 121.245 13.2174C120.813 13.109 121.029 13.7598 121.029 13.8682C121.029 13.9767 120.813 14.1936 120.813 14.1936C120.273 14.1936 120.381 14.6275 120.489 14.8445C120.489 14.9529 120.489 15.1699 120.273 15.2783C120.057 15.3868 119.949 15.8207 119.949 16.1461C119.949 16.6884 120.489 17.1223 121.353 17.7731C122.217 18.4239 122.325 19.0747 122.325 19.5086C122.325 19.9425 122.433 20.7018 122.541 21.1356C122.757 21.678 122.757 22.7627 121.569 22.7627C120.057 22.8711 117.465 23.9558 117.249 24.0643C116.385 24.3897 115.305 24.4982 114.441 24.2812C114.009 23.9558 113.577 23.6304 113.145 23.1965C112.929 22.6542 113.253 22.0034 113.577 21.5695C114.117 22.1119 114.765 22.0034 115.197 22.0034C115.629 22.0034 117.573 21.678 117.897 21.5695C118.221 21.461 118.329 21.461 118.437 21.5695C119.193 21.8949 120.273 21.8949 120.705 20.4848C121.137 18.9663 120.165 19.4001 119.949 19.5086C119.841 19.6171 119.625 19.5086 119.733 19.4001C119.949 19.0747 119.625 19.0747 119.517 19.0747C119.085 19.0747 118.545 19.5086 118.437 19.6171C118.221 19.7255 118.113 19.7255 118.005 19.7255C117.465 19.4001 115.845 19.834 115.305 18.9663C115.305 18.7493 114.873 15.1699 114.657 14.519C114.657 14.4106 114.549 14.1936 114.765 13.9767C115.197 13.3259 116.277 13.9767 116.925 13.9767C117.681 13.9767 117.789 13.6513 118.005 13.4344C118.221 13.2174 118.329 13.3259 118.437 13.2174C118.545 13.109 118.437 13.0005 118.437 12.892C118.437 12.7835 118.545 12.892 118.653 12.7835C118.761 12.6751 118.653 12.4581 118.653 12.3497C118.869 12.0243 119.301 12.2412 119.085 11.5904C118.977 11.1565 119.193 10.7226 119.409 10.5057C119.733 10.0718 121.137 8.11939 118.761 6.05848C116.493 4.10605 114.117 4.32298 112.605 5.95002C111.093 7.57705 111.849 9.96336 111.957 10.6142C112.065 11.265 111.633 11.8073 111.093 12.0243C110.661 12.2412 109.689 12.892 109.041 13.4344C109.149 8.22786 112.281 3.67217 117.033 1.8282C117.249 2.04514 117.465 2.37055 117.681 2.58748C117.141 3.02136 115.953 3.99758 115.953 3.99758C115.953 3.99758 116.061 3.99758 116.277 4.10605C116.385 4.10605 116.601 4.21452 116.601 4.21452C116.601 4.21452 117.573 3.34677 118.113 3.02136C118.437 3.34677 118.869 3.5637 119.301 3.78064C119.085 4.21452 118.437 5.2992 118.437 5.2992C118.437 5.2992 118.545 5.40767 118.653 5.40767C118.761 5.51614 118.869 5.51614 118.869 5.51614C118.869 5.51614 119.517 4.32298 119.733 3.88911C120.273 4.10605 120.813 4.21452 121.353 4.21452V6.38389C121.029 6.38389 120.273 6.38389 119.949 6.27542H119.733L119.841 6.49236C119.949 6.60083 119.949 6.7093 120.057 6.81777H121.353V10.8311H121.893V9.85489C122.757 9.85489 123.405 9.74642 124.161 9.63795L124.917 8.98714H124.485C123.621 9.09561 122.865 9.20408 122.217 9.20408H121.893V6.7093C122.865 6.7093 123.945 6.60083 124.917 6.27542L125.673 8.55327L126.213 8.33633L125.457 6.05848C126.321 5.84155 127.077 5.40767 127.833 5.08227C128.481 5.84155 129.021 6.7093 129.453 7.57705C129.021 7.79398 128.373 8.01092 128.373 8.01092C128.913 8.11939 129.345 8.22786 129.345 8.22786C129.345 8.22786 129.561 8.11939 129.669 8.11939C129.669 8.22786 129.777 8.4448 129.777 8.4448L130.533 8.7702L130.425 8.55327C130.425 8.55327 130.209 8.01092 130.101 7.90245C130.857 7.57705 131.613 7.14317 132.369 6.60083C133.773 8.66173 134.421 11.1565 134.421 13.6513C134.637 17.7731 132.585 21.461 129.561 23.8474ZM107.205 3.78064L106.989 3.99758C106.233 4.64839 104.397 6.49236 104.721 8.55327V8.66173L104.829 9.09561L105.045 8.87867C106.125 7.90245 106.989 6.16695 107.313 4.21452L107.421 3.67217L107.205 3.78064ZM103.533 7.25164L103.425 7.46858C103.317 7.79398 103.101 8.55327 102.993 9.42102C102.777 10.7226 102.885 12.6751 103.965 14.0852L104.073 14.3021L104.181 14.519L104.397 13.6513C104.613 12.1327 104.289 8.98714 103.749 7.57705L103.533 7.14317V7.25164ZM102.237 12.6751V12.892C102.129 14.1936 102.237 17.5562 104.937 19.4001L105.261 19.6171V19.1832C105.261 17.8816 103.749 14.0852 102.669 12.7835L102.345 12.3497L102.237 12.6751ZM102.669 18.6409V18.8578C103.101 20.8102 104.829 23.8474 107.637 24.8236L108.069 24.932L107.961 24.4982C107.421 23.0881 104.721 19.7255 102.993 18.6409L102.669 18.4239V18.6409ZM108.393 6.7093L108.069 6.81777C106.017 8.11939 105.045 9.63795 105.045 11.5904V12.0243L105.369 11.8073C106.449 10.8311 107.961 8.4448 108.285 7.14317L108.393 6.60083V6.7093ZM107.097 10.8311L106.989 11.048C106.449 11.5904 104.721 13.4344 104.829 15.7122C104.829 16.0376 104.937 16.4715 105.045 16.7969L105.153 17.1223L105.369 16.7969C106.233 15.6037 107.313 12.5666 107.205 11.1565V10.7226L107.097 10.8311ZM107.205 14.8445L107.097 15.0614C106.233 16.363 105.801 17.6646 105.801 18.9663C105.801 19.834 106.125 20.7018 106.665 21.5695L106.881 21.8949L106.989 21.5695C107.313 20.8102 107.637 18.5324 107.637 16.6884C107.637 16.0376 107.529 15.4953 107.421 15.1699L107.313 14.736L107.205 14.8445ZM108.177 19.0747L108.069 19.2917C107.853 20.1594 107.637 20.9187 107.745 21.7865C107.745 23.522 108.609 24.932 110.121 25.9083L110.337 26.0167L110.445 25.6913V25.3659C110.445 23.9558 109.365 20.2679 108.501 19.1832L108.285 18.8578L108.177 19.0747ZM105.261 24.7151L105.369 24.932C106.449 26.776 108.393 29.2708 111.957 28.62H112.281L112.065 28.403C111.417 27.4268 107.097 24.932 105.585 24.7151L105.153 24.6066L105.261 24.7151ZM110.553 29.4877L110.013 29.5962L110.553 29.8131C112.821 30.7894 115.629 31.0063 117.357 30.464C118.005 30.247 118.329 29.9216 118.761 29.4877C121.677 29.8131 124.377 32.1995 125.997 34.1519L126.105 34.2604H126.213C126.429 34.1519 126.645 33.935 126.753 33.8265L126.861 33.718L126.753 33.6095C125.133 31.4402 122.541 30.1385 122.433 30.0301C120.057 28.9454 115.953 28.0776 110.553 29.4877Z" fill="#242627"/>
<path id="Vector_2" d="M110.663 23.4133V23.6302C110.987 25.7996 111.851 28.6198 115.523 28.2944H115.739L115.631 28.0774C115.415 27.1012 112.067 24.281 110.879 23.5217L110.555 23.3048L110.663 23.4133ZM136.151 3.56349L136.259 4.10584C136.583 6.05827 137.447 7.79377 138.527 8.76999L138.743 8.98693L138.851 8.55305V8.44459C139.175 6.38368 137.339 4.53971 136.583 3.8889L136.367 3.67196L136.151 3.56349ZM139.931 7.03449L139.715 7.46837C139.175 8.87846 138.959 12.0241 139.067 13.5426L139.283 14.4104L139.391 14.3019L139.499 14.085C140.687 12.6749 140.687 10.8309 140.471 9.4208C140.363 8.44459 140.147 7.79377 140.039 7.46837L139.931 7.25143V7.03449ZM141.335 12.4579L141.011 12.8918C139.931 14.3019 138.419 17.9898 138.419 19.2915V19.7253L138.743 19.5084C141.443 17.7729 141.551 14.4104 141.443 13.0003V12.7833L141.335 12.4579ZM140.903 18.4237L140.471 18.6406C138.743 19.7253 136.043 23.0879 135.503 24.498L135.395 24.9318L135.827 24.8234C138.635 23.9556 140.471 20.81 140.795 18.8576V18.6406L140.903 18.4237ZM135.179 6.49215L135.287 7.03449C135.719 8.44459 137.015 10.8309 138.203 11.8071L138.527 12.0241V11.5902C138.635 9.63774 137.663 8.11918 135.611 6.81755L135.395 6.70909L135.179 6.49215ZM136.367 10.7224V11.1563C136.259 12.5664 137.447 15.712 138.203 16.7967L138.419 17.1221L138.527 16.7967C138.635 16.3628 138.743 16.0374 138.743 15.712C138.851 13.4341 137.123 11.5902 136.583 11.0478L136.475 10.9394L136.367 10.7224ZM136.259 14.6273L136.151 15.0612C136.043 15.3866 135.935 15.9289 135.935 16.5797C135.935 18.4237 136.151 20.7016 136.583 21.4608L136.691 21.7862L136.907 21.4608C137.447 20.7016 137.771 19.8338 137.771 18.8576C137.771 17.6644 137.339 16.2543 136.475 14.9527L136.367 14.7358L136.259 14.6273ZM135.287 18.8576L135.071 19.183C134.207 20.2677 133.127 23.9556 133.127 25.3657V25.6911L133.235 26.0165L133.451 25.9081C134.963 24.9318 135.719 23.5217 135.827 21.7862C135.827 21.027 135.719 20.1592 135.503 19.2915L135.395 19.0745L135.287 18.8576ZM138.419 24.498L137.987 24.6064C136.475 24.8234 132.155 27.3181 131.507 28.2944L131.291 28.5113H131.615C135.179 29.1621 137.123 26.6673 138.203 24.8234L138.311 24.6064L138.419 24.498ZM121.247 30.0299C121.139 30.0299 118.547 31.44 116.927 33.6093L116.819 33.7178L116.927 33.8263C117.035 33.9347 117.359 34.1517 117.467 34.2601H117.575L117.683 34.1517C119.303 32.1992 122.003 29.7045 124.919 29.4875C125.351 29.9214 125.783 30.2468 126.323 30.4637C127.943 31.0061 130.859 30.7891 133.127 29.8129L133.667 29.596L133.127 29.4875C127.619 28.0774 123.515 28.9452 121.247 30.0299ZM132.911 23.1963L132.587 23.4133C131.399 24.1726 128.159 26.9927 127.835 27.969L127.727 28.1859H127.943C131.507 28.5113 132.371 25.6911 132.803 23.5217V23.3048L132.911 23.1963ZM41.7586 1.50259H46.2946V5.6244H41.7586V1.50259ZM42.1906 10.397H45.9706V30.5722H42.1906V10.397ZM13.5704 10.397H17.3504V30.5722H13.6784V27.6436H13.5704C12.0584 30.1383 9.46637 31.223 6.65836 31.223C2.44633 31.223 0.0703125 27.969 0.0703125 23.9556V10.397H3.85034V22.3286C3.85034 25.7996 4.60634 28.4028 8.27837 28.4028C9.79038 28.4028 11.9504 27.6436 12.7064 25.4742C13.4624 23.6302 13.4624 21.2439 13.4624 20.7016V10.397H13.5704ZM24.9105 13.3257C26.3145 10.8309 29.0145 9.74621 31.0665 9.74621C32.4705 9.74621 38.6266 10.0716 38.6266 16.5797V30.4637H34.8465V17.7729C34.8465 14.4104 33.4425 12.6749 30.2025 12.6749C30.2025 12.6749 28.1505 12.5664 26.5305 14.1934C25.9905 14.7358 24.9105 15.6035 24.9105 19.6169V30.5722H21.1305V10.397H24.9105V13.3257ZM61.8467 16.7967C61.6307 14.3019 60.4427 12.5664 57.7427 12.5664C54.1787 12.5664 52.7747 15.712 52.7747 20.3761C52.7747 25.0403 54.1787 28.1859 57.7427 28.1859C60.2267 28.1859 61.7387 26.5589 61.9547 23.6302H65.7347C65.4107 28.1859 62.0627 30.8976 57.6347 30.8976C51.2626 30.8976 48.6706 26.3419 48.6706 20.4846C48.6706 14.6273 51.5866 9.74621 57.9587 9.74621C62.1707 9.74621 65.3027 12.4579 65.5187 16.7967H61.8467ZM71.3508 21.1354C71.0268 24.6064 72.5388 28.2944 76.3188 28.2944C79.2348 28.2944 80.7468 27.1012 81.1788 24.1726H85.1749C84.5269 28.7282 81.0708 31.0061 76.3188 31.0061C69.9468 31.0061 67.3548 26.4504 67.3548 20.5931C67.3548 14.7358 70.2708 9.85468 76.6428 9.85468C82.5829 9.96315 85.3909 13.7596 85.3909 19.2915V21.1354H71.3508ZM81.5028 18.5322C81.6108 15.1696 80.0988 12.5664 76.4268 12.5664C73.2948 12.5664 71.4588 15.2781 71.4588 18.5322H81.5028ZM89.7109 30.3553V13.0003H86.2549V10.397H89.7109V6.05827C89.8189 1.71952 93.1669 0.526367 95.9749 0.526367C96.839 0.526367 97.811 0.743305 98.675 0.960242V4.10584C98.027 4.10584 97.379 3.99737 96.7309 3.99737C94.5709 3.99737 93.3829 4.53971 93.4909 6.70909V10.397H98.135V13.0003H93.4909V30.3553H89.7109Z" fill="#242627"/>
</g>
<defs>
<clipPath id="clip0_1358_2160">
<rect width="142" height="32" fill="white"/>
</clipPath>
</defs>
</svg>
