<svg width="66" height="32" viewBox="0 0 66 32" fill="none" xmlns="http://www.w3.org/2000/svg">
<g id="ITV" clip-path="url(#clip0_1358_2168)">
<g id="vlpb">
<g id="vlpc">
<g id="vlpe">
<path id="Vector" d="M4.67921 0.000976562C7.32709 0.000976562 8.96165 1.85942 8.96165 4.20119C8.96165 6.54486 7.32709 8.40277 4.67921 8.40277C2.03133 8.40277 0.396484 6.54486 0.396484 4.20119C0.396484 1.85942 2.03133 0.000976562 4.67921 0.000976562ZM46.9842 12.6325C47.8277 13.9926 49.5058 16.9518 51.2056 19.8851C52.3041 21.7814 53.4878 23.8827 54.129 25.0928C56.0832 21.7823 58.2752 16.4558 59.7157 11.7142C59.8605 11.2392 60.0869 11.0089 60.5029 11.0089C60.7246 11.0089 61.0986 11.1003 62.1252 11.411C62.7432 11.5967 63.9762 11.9708 64.4352 12.1146C64.908 12.2623 65.1058 12.4988 65.1058 12.8004C65.1058 13.0951 64.9354 13.5641 64.6943 14.208C62.7748 19.3533 60.1091 24.9454 56.9829 29.6738C55.7903 31.4774 54.4671 32.001 52.264 32.001C49.936 32.001 48.8958 31.3873 47.7532 29.7177C46.9776 28.5835 46.1691 27.3378 45.0756 25.6626L45.0755 25.6628C42.6135 29.6521 38.3954 31.9995 32.6566 31.9995C28.3146 31.9995 24.3824 30.6812 22.2142 28.7291C20.0082 30.7453 16.2749 31.9995 12.6935 31.9995C9.10721 31.9995 5.33414 31.0244 3.12502 28.8402C1.42638 27.1604 0.453001 25.028 0.453001 21.295V11.9416C0.453001 11.4791 0.618373 11.2854 1.11866 11.2854H8.22883C8.73547 11.2854 8.90556 11.486 8.90556 11.9383V22.2846C8.90556 23.9392 9.26738 25.0589 10.0385 25.8646C10.7787 26.6377 12.0201 27.0991 13.42 27.0991C14.8542 27.0991 16.1586 26.6215 16.9882 25.7401C17.9319 24.7365 18.3603 23.3047 18.3603 20.663L18.36 4.7802C18.36 4.00408 18.5642 3.46677 19.0062 3.06772C19.6588 2.48018 20.9793 2.1928 22.5864 2.1928C24.1705 2.1928 25.5139 2.48013 26.1663 3.06772C26.6086 3.46674 26.8136 4.00023 26.8136 4.77962V11.2846H33.4995C34.0059 11.2846 34.1826 11.4863 34.1826 11.9388V15.9159C34.1826 16.3688 34.0059 16.5691 33.4995 16.5691H29.7456C28.5755 16.5691 27.6044 16.3989 26.8137 16.0647V18.733L26.8117 18.9682L26.8137 18.7333L26.8157 20.1946C26.8157 22.6565 27.3381 24.1303 28.418 25.2259C29.5496 26.3755 31.2871 27.0075 33.5366 27.0075C38.2779 27.0075 40.7335 24.062 40.7335 20.8117C40.7335 19.5182 40.3516 18.4644 39.5904 17.1725L39.5689 17.1401C38.8886 15.99 38.7065 15.5034 38.7065 14.8547C38.7065 12.9424 42.1285 10.8921 44.4391 10.8921C45.2645 10.8921 45.7909 11.0899 46.3508 11.7426C46.5041 11.9329 46.6855 12.1511 46.9838 12.6319L46.9842 12.6325Z" fill="#242627"/>
<path id="Vector_2" d="M4.67921 0.000976562C7.32709 0.000976562 8.96165 1.85942 8.96165 4.20119C8.96165 6.54486 7.32709 8.40277 4.67921 8.40277C2.03133 8.40277 0.396484 6.54486 0.396484 4.20119C0.396484 1.85942 2.03133 0.000976562 4.67921 0.000976562ZM46.9842 12.6325C47.8277 13.9926 49.5058 16.9518 51.2056 19.8851C52.3041 21.7814 53.4878 23.8827 54.129 25.0928C56.0832 21.7823 58.2752 16.4558 59.7157 11.7142C59.8605 11.2392 60.0869 11.0089 60.5029 11.0089C60.7246 11.0089 61.0986 11.1003 62.1252 11.411C62.7432 11.5967 63.9762 11.9708 64.4352 12.1146C64.908 12.2623 65.1058 12.4988 65.1058 12.8004C65.1058 13.0951 64.9354 13.5641 64.6943 14.208C62.7748 19.3533 60.1091 24.9454 56.9829 29.6738C55.7903 31.4774 54.4671 32.001 52.264 32.001C49.936 32.001 48.8958 31.3873 47.7532 29.7177C46.9776 28.5835 46.1691 27.3378 45.0756 25.6626L45.0755 25.6628C42.6135 29.6521 38.3954 31.9995 32.6566 31.9995C28.3146 31.9995 24.3824 30.6812 22.2142 28.7291C20.0082 30.7453 16.2749 31.9995 12.6935 31.9995C9.10721 31.9995 5.33414 31.0244 3.12502 28.8402C1.42638 27.1604 0.453001 25.028 0.453001 21.295V11.9416C0.453001 11.4791 0.618373 11.2854 1.11866 11.2854H8.22883C8.73547 11.2854 8.90556 11.486 8.90556 11.9383V22.2846C8.90556 23.9392 9.26738 25.0589 10.0385 25.8646C10.7787 26.6377 12.0201 27.0991 13.42 27.0991C14.8542 27.0991 16.1586 26.6215 16.9882 25.7401C17.9319 24.7365 18.3603 23.3047 18.3603 20.663L18.36 4.7802C18.36 4.00408 18.5642 3.46677 19.0062 3.06772C19.6588 2.48018 20.9793 2.1928 22.5864 2.1928C24.1705 2.1928 25.5139 2.48013 26.1663 3.06772C26.6086 3.46674 26.8136 4.00023 26.8136 4.77962V11.2846H33.4995C34.0059 11.2846 34.1826 11.4863 34.1826 11.9388V15.9159C34.1826 16.3688 34.0059 16.5691 33.4995 16.5691H29.7456C28.5755 16.5691 27.6044 16.3989 26.8137 16.0647V18.733L26.8117 18.9682L26.8137 18.7333L26.8157 20.1946C26.8157 22.6565 27.3381 24.1303 28.418 25.2259C29.5496 26.3755 31.2871 27.0075 33.5366 27.0075C38.2779 27.0075 40.7335 24.062 40.7335 20.8117C40.7335 19.5182 40.3516 18.4644 39.5904 17.1725L39.5689 17.1401C38.8886 15.99 38.7065 15.5034 38.7065 14.8547C38.7065 12.9424 42.1285 10.8921 44.4391 10.8921C45.2645 10.8921 45.7909 11.0899 46.3508 11.7426C46.5041 11.9329 46.6855 12.1511 46.9838 12.6319L46.9842 12.6325Z" fill="#242627"/>
</g>
</g>
</g>
</g>
<defs>
<clipPath id="clip0_1358_2168">
<rect width="64.8" height="32" fill="white" transform="translate(0.599609)"/>
</clipPath>
</defs>
</svg>
